<svg xmlns="http://www.w3.org/2000/svg" xmlns:xlink="http://www.w3.org/1999/xlink" version="1.1" class="marks" width="952" height="480" viewBox="0 0 952 480"><rect width="952" height="480" fill="white"/><g fill="none" stroke-miterlimit="10" transform="translate(47,27)"><g class="mark-group role-frame root" role="graphics-object" aria-roledescription="group mark container"><g transform="translate(0,0)"><path class="background" aria-hidden="true" d="M0.5,0.5h900v420h-900Z" stroke="#ddd"/><g><g class="mark-group role-axis" aria-hidden="true"><g transform="translate(0.5,0.5)"><path class="background" aria-hidden="true" d="M0,0h0v0h0Z" pointer-events="none"/><g><g class="mark-rule role-axis-grid" pointer-events="none"><line transform="translate(0,420)" x2="900" y2="0" stroke="#ddd" stroke-width="1" opacity="1"/><line transform="translate(0,360)" x2="900" y2="0" stroke="#ddd" stroke-width="1" opacity="1"/><line transform="translate(0,300)" x2="900" y2="0" stroke="#ddd" stroke-width="1" opacity="1"/><line transform="translate(0,240)" x2="900" y2="0" stroke="#ddd" stroke-width="1" opacity="1"/><line transform="translate(0,180)" x2="900" y2="0" stroke="#ddd" stroke-width="1" opacity="1"/><line transform="translate(0,120)" x2="900" y2="0" stroke="#ddd" stroke-width="1" opacity="1"/><line transform="translate(0,60)" x2="900" y2="0" stroke="#ddd" stroke-width="1" opacity="1"/><line transform="translate(0,0)" x2="900" y2="0" stroke="#ddd" stroke-width="1" opacity="1"/></g></g><path class="foreground" aria-hidden="true" d="" pointer-events="none" display="none"/></g></g><g class="mark-group role-axis" role="graphics-symbol" aria-roledescription="axis" aria-label="X-axis titled 'Partition' for a discrete scale with 1 value: 1"><g transform="translate(0.5,420.5)"><path class="background" aria-hidden="true" d="M0,0h0v0h0Z" pointer-events="none"/><g><g class="mark-rule role-axis-tick" pointer-events="none"><line transform="translate(450,0)" x2="0" y2="5" stroke="#888" stroke-width="1" opacity="1"/></g><g class="mark-text role-axis-label" pointer-events="none"><text text-anchor="end" transform="translate(449.5,7) rotate(270) translate(0,3)" font-family="sans-serif" font-size="10px" fill="#000" opacity="1">1</text></g><g class="mark-rule role-axis-domain" pointer-events="none"><line transform="translate(0,0)" x2="900" y2="0" stroke="#888" stroke-width="1" opacity="1"/></g><g class="mark-text role-axis-title" pointer-events="none"><text text-anchor="middle" transform="translate(450,25.5615234375)" font-family="sans-serif" font-size="11px" font-weight="bold" fill="#000" opacity="1">Partition</text></g></g><path class="foreground" aria-hidden="true" d="" pointer-events="none" display="none"/></g></g><g class="mark-group role-axis" role="graphics-symbol" aria-roledescription="axis" aria-label="Y-axis titled '-log10(p-value)' for a linear scale with values from 0.00 to 0.35"><g transform="translate(0.5,0.5)"><path class="background" aria-hidden="true" d="M0,0h0v0h0Z" pointer-events="none"/><g><g class="mark-rule role-axis-tick" pointer-events="none"><line transform="translate(0,420)" x2="-5" y2="0" stroke="#888" stroke-width="1" opacity="1"/><line transform="translate(0,360)" x2="-5" y2="0" stroke="#888" stroke-width="1" opacity="1"/><line transform="translate(0,300)" x2="-5" y2="0" stroke="#888" stroke-width="1" opacity="1"/><line transform="translate(0,240)" x2="-5" y2="0" stroke="#888" stroke-width="1" opacity="1"/><line transform="translate(0,180)" x2="-5" y2="0" stroke="#888" stroke-width="1" opacity="1"/><line transform="translate(0,120)" x2="-5" y2="0" stroke="#888" stroke-width="1" opacity="1"/><line transform="translate(0,60)" x2="-5" y2="0" stroke="#888" stroke-width="1" opacity="1"/><line transform="translate(0,0)" x2="-5" y2="0" stroke="#888" stroke-width="1" opacity="1"/></g><g class="mark-text role-axis-label" pointer-events="none"><text text-anchor="end" transform="translate(-7,423)" font-family="sans-serif" font-size="10px" fill="#000" opacity="1">0.00</text><text text-anchor="end" transform="translate(-7,363)" font-family="sans-serif" font-size="10px" fill="#000" opacity="1">0.05</text><text text-anchor="end" transform="translate(-7,302.99999999999994)" font-family="sans-serif" font-size="10px" fill="#000" opacity="1">0.10</text><text text-anchor="end" transform="translate(-7,243)" font-family="sans-serif" font-size="10px" fill="#000" opacity="1">0.15</text><text text-anchor="end" transform="translate(-7,182.99999999999997)" font-family="sans-serif" font-size="10px" fill="#000" opacity="1">0.20</text><text text-anchor="end" transform="translate(-7,123)" font-family="sans-serif" font-size="10px" fill="#000" opacity="1">0.25</text><text text-anchor="end" transform="translate(-7,62.99999999999997)" font-family="sans-serif" font-size="10px" fill="#000" opacity="1">0.30</text><text text-anchor="end" transform="translate(-7,3)" font-family="sans-serif" font-size="10px" fill="#000" opacity="1">0.35</text></g><g class="mark-rule role-axis-domain" pointer-events="none"><line transform="translate(0,420)" x2="0" y2="-420" stroke="#888" stroke-width="1" opacity="1"/></g><g class="mark-text role-axis-title" pointer-events="none"><text text-anchor="middle" transform="translate(-30.462890625,210) rotate(-90) translate(0,-2)" font-family="sans-serif" font-size="11px" font-weight="bold" fill="#000" opacity="1">-log10(p-value)</text></g></g><path class="foreground" aria-hidden="true" d="" pointer-events="none" display="none"/></g></g><g class="mark-group role-scope" role="graphics-object" aria-roledescription="group mark container"><g transform="translate(45,58.76400520322253)"><path class="background" aria-hidden="true" d="M8,0L802,0C806.415320195952,0,810,3.584679804048,810,8L810,361.23599479677745C810,361.23599479677745,810,361.23599479677745,810,361.23599479677745L0,361.23599479677745C0,361.23599479677745,0,361.23599479677745,0,361.23599479677745L0,8C0,3.584679804048,3.584679804048,0,8,0Z"/><g clip-path="url(#clip1)"><g class="mark-group role-scope" role="graphics-object" aria-roledescription="group mark container"><g transform="translate(0,-58.76400520322253)"><path class="background" aria-hidden="true" d="M0,0h810v0h-810Z"/><g><g class="mark-rect role-mark marks" role="graphics-object" aria-roledescription="rect mark container"><path aria-label="Partition: 1; -log10(p-value): 0.301029995664; p_value: 0.5; LRT: 0; tested_branches: 0; background_branches: 0" role="graphics-symbol" aria-roledescription="bar" d="M0,58.76400520322253h810v361.23599479677745h-810Z" fill="#c9ced6"/></g></g><path class="foreground" aria-hidden="true" d="" display="none"/></g></g></g><path class="foreground" aria-hidden="true" d="" display="none"/></g></g><g class="mark-group role-title"><g transform="translate(450,-22)"><path class="background" aria-hidden="true" d="M0,0h0v0h0Z" pointer-events="none"/><g><g class="mark-text role-title-text" role="graphics-symbol" aria-roledescription="title" aria-label="Title text 'BUSTED-S-MH gene-wide evidence: BDNF-64'" pointer-events="none"><text text-anchor="middle" transform="translate(0,10)" font-family="sans-serif" font-size="13px" font-weight="bold" fill="#000" opacity="1">BUSTED-S-MH gene-wide evidence: BDNF-64</text></g></g><path class="foreground" aria-hidden="true" d="" pointer-events="none" display="none"/></g></g></g><path class="foreground" aria-hidden="true" d="" display="none"/></g></g></g><defs><clipPath id="clip1"><path d="M8,0L802,0C806.415320195952,0,810,3.584679804048,810,8L810,361.23599479677745C810,361.23599479677745,810,361.23599479677745,810,361.23599479677745L0,361.23599479677745C0,361.23599479677745,0,361.23599479677745,0,361.23599479677745L0,8C0,3.584679804048,3.584679804048,0,8,0Z"/></clipPath></defs></svg>