<svg xmlns="http://www.w3.org/2000/svg" xmlns:xlink="http://www.w3.org/1999/xlink" version="1.1" class="marks" width="1232" height="655" viewBox="0 0 1232 655"><rect width="1232" height="655" fill="white"/><g fill="none" stroke-miterlimit="10" transform="translate(45,51)"><g class="mark-group role-frame root" role="graphics-object" aria-roledescription="group mark container"><g transform="translate(0,0)"><path class="background" aria-hidden="true" d="M0,0h0v0h0Z"/><g><g class="mark-group role-scope concat_0_group" role="graphics-object" aria-roledescription="group mark container"><g transform="translate(0,0)"><path class="background" aria-hidden="true" d="M0.5,0.5h980v104h-980Z" stroke="#ddd"/><g><g class="mark-text role-mark concat_0_marks" role="graphics-object" aria-roledescription="text mark container"><text aria-label="order: 1; line: Top method by cumulative evidence: FEL (132.00)" role="graphics-symbol" aria-roledescription="text mark" text-anchor="start" transform="translate(490,24)" font-family="sans-serif" font-size="14px" fill="black">Top method by cumulative evidence: FEL (132.00)</text><text aria-label="order: 2; line: Top partition by cumulative evidence: 1 (149.30)" role="graphics-symbol" aria-roledescription="text mark" text-anchor="start" transform="translate(490,50)" font-family="sans-serif" font-size="14px" fill="black">Top partition by cumulative evidence: 1 (149.30)</text><text aria-label="order: 3; line: Cumulative evidence pools raw counts, RELAX k values, and transformed p-values into one comparative score." role="graphics-symbol" aria-roledescription="text mark" text-anchor="start" transform="translate(490,76)" font-family="sans-serif" font-size="14px" fill="black">Cumulative evidence pools raw counts, RELAX k values, and transformed p-values into one comparative score.</text><text aria-label="order: 4; line: Use this dashboard to find where multiple tests point to the same partition-level story." role="graphics-symbol" aria-roledescription="text mark" text-anchor="start" transform="translate(490,102)" font-family="sans-serif" font-size="14px" fill="black">Use this dashboard to find where multiple tests point to the same partition-level story.</text></g></g><path class="foreground" aria-hidden="true" d="" display="none"/></g></g><g class="mark-group role-scope concat_1_group" role="graphics-object" aria-roledescription="group mark container"><g transform="translate(0,149)"><path class="background" aria-hidden="true" d="M0,0h0v0h0Z"/><g><g class="mark-group role-scope concat_1_concat_0_group" role="graphics-object" aria-roledescription="group mark container"><g transform="translate(0,0)"><path class="background" aria-hidden="true" d="M0.5,0.5h470v360h-470Z" stroke="#ddd"/><g><g class="mark-group role-axis" aria-hidden="true"><g transform="translate(0.5,0.5)"><path class="background" aria-hidden="true" d="M0,0h0v0h0Z" pointer-events="none"/><g><g class="mark-rule role-axis-grid" pointer-events="none"><line transform="translate(0,360)" x2="470" y2="0" stroke="#ddd" stroke-width="1" opacity="1"/><line transform="translate(0,315)" x2="470" y2="0" stroke="#ddd" stroke-width="1" opacity="1"/><line transform="translate(0,270)" x2="470" y2="0" stroke="#ddd" stroke-width="1" opacity="1"/><line transform="translate(0,225)" x2="470" y2="0" stroke="#ddd" stroke-width="1" opacity="1"/><line transform="translate(0,180)" x2="470" y2="0" stroke="#ddd" stroke-width="1" opacity="1"/><line transform="translate(0,135)" x2="470" y2="0" stroke="#ddd" stroke-width="1" opacity="1"/><line transform="translate(0,90)" x2="470" y2="0" stroke="#ddd" stroke-width="1" opacity="1"/><line transform="translate(0,45)" x2="470" y2="0" stroke="#ddd" stroke-width="1" opacity="1"/><line transform="translate(0,0)" x2="470" y2="0" stroke="#ddd" stroke-width="1" opacity="1"/></g></g><path class="foreground" aria-hidden="true" d="" pointer-events="none" display="none"/></g></g><g class="mark-group role-axis" role="graphics-symbol" aria-roledescription="axis" aria-label="X-axis titled 'Method' for a discrete scale with 6 values: ABSREL, BUSTEDS-MH, CFEL, FEL, MEME, RELAX"><g transform="translate(0.5,360.5)"><path class="background" aria-hidden="true" d="M0,0h0v0h0Z" pointer-events="none"/><g><g class="mark-rule role-axis-tick" pointer-events="none"><line transform="translate(39,0)" x2="0" y2="5" stroke="#888" stroke-width="1" opacity="1"/><line transform="translate(117,0)" x2="0" y2="5" stroke="#888" stroke-width="1" opacity="1"/><line transform="translate(195,0)" x2="0" y2="5" stroke="#888" stroke-width="1" opacity="1"/><line transform="translate(274,0)" x2="0" y2="5" stroke="#888" stroke-width="1" opacity="1"/><line transform="translate(352,0)" x2="0" y2="5" stroke="#888" stroke-width="1" opacity="1"/><line transform="translate(430,0)" x2="0" y2="5" stroke="#888" stroke-width="1" opacity="1"/></g><g class="mark-text role-axis-label" pointer-events="none"><text text-anchor="end" transform="translate(38.66666666666666,7) rotate(270) translate(0,3)" font-family="sans-serif" font-size="10px" fill="#000" opacity="1">ABSREL</text><text text-anchor="end" transform="translate(116.99999999999999,7) rotate(270) translate(0,3)" font-family="sans-serif" font-size="10px" fill="#000" opacity="1">BUSTEDS-MH</text><text text-anchor="end" transform="translate(195.33333333333331,7) rotate(270) translate(0,3)" font-family="sans-serif" font-size="10px" fill="#000" opacity="1">CFEL</text><text text-anchor="end" transform="translate(273.66666666666663,7) rotate(270) translate(0,3)" font-family="sans-serif" font-size="10px" fill="#000" opacity="1">FEL</text><text text-anchor="end" transform="translate(352,7) rotate(270) translate(0,3)" font-family="sans-serif" font-size="10px" fill="#000" opacity="1">MEME</text><text text-anchor="end" transform="translate(430.33333333333326,7) rotate(270) translate(0,3)" font-family="sans-serif" font-size="10px" fill="#000" opacity="1">RELAX</text></g><g class="mark-rule role-axis-domain" pointer-events="none"><line transform="translate(0,0)" x2="470" y2="0" stroke="#888" stroke-width="1" opacity="1"/></g><g class="mark-text role-axis-title" pointer-events="none"><text text-anchor="middle" transform="translate(235,86.11328125)" font-family="sans-serif" font-size="11px" font-weight="bold" fill="#000" opacity="1">Method</text></g></g><path class="foreground" aria-hidden="true" d="" pointer-events="none" display="none"/></g></g><g class="mark-group role-axis" role="graphics-symbol" aria-roledescription="axis" aria-label="Y-axis titled 'Cumulative evidence' for a linear scale with values from 0 to 160"><g transform="translate(0.5,0.5)"><path class="background" aria-hidden="true" d="M0,0h0v0h0Z" pointer-events="none"/><g><g class="mark-rule role-axis-tick" pointer-events="none"><line transform="translate(0,360)" x2="-5" y2="0" stroke="#888" stroke-width="1" opacity="1"/><line transform="translate(0,315)" x2="-5" y2="0" stroke="#888" stroke-width="1" opacity="1"/><line transform="translate(0,270)" x2="-5" y2="0" stroke="#888" stroke-width="1" opacity="1"/><line transform="translate(0,225)" x2="-5" y2="0" stroke="#888" stroke-width="1" opacity="1"/><line transform="translate(0,180)" x2="-5" y2="0" stroke="#888" stroke-width="1" opacity="1"/><line transform="translate(0,135)" x2="-5" y2="0" stroke="#888" stroke-width="1" opacity="1"/><line transform="translate(0,90)" x2="-5" y2="0" stroke="#888" stroke-width="1" opacity="1"/><line transform="translate(0,45)" x2="-5" y2="0" stroke="#888" stroke-width="1" opacity="1"/><line transform="translate(0,0)" x2="-5" y2="0" stroke="#888" stroke-width="1" opacity="1"/></g><g class="mark-text role-axis-label" pointer-events="none"><text text-anchor="end" transform="translate(-7,363)" font-family="sans-serif" font-size="10px" fill="#000" opacity="1">0</text><text text-anchor="end" transform="translate(-7,318)" font-family="sans-serif" font-size="10px" fill="#000" opacity="1">20</text><text text-anchor="end" transform="translate(-7,273)" font-family="sans-serif" font-size="10px" fill="#000" opacity="1">40</text><text text-anchor="end" transform="translate(-7,228)" font-family="sans-serif" font-size="10px" fill="#000" opacity="1">60</text><text text-anchor="end" transform="translate(-7,183)" font-family="sans-serif" font-size="10px" fill="#000" opacity="1">80</text><text text-anchor="end" transform="translate(-7,138)" font-family="sans-serif" font-size="10px" fill="#000" opacity="1">100</text><text text-anchor="end" transform="translate(-7,93)" font-family="sans-serif" font-size="10px" fill="#000" opacity="1">120</text><text text-anchor="end" transform="translate(-7,48)" font-family="sans-serif" font-size="10px" fill="#000" opacity="1">140</text><text text-anchor="end" transform="translate(-7,3)" font-family="sans-serif" font-size="10px" fill="#000" opacity="1">160</text></g><g class="mark-rule role-axis-domain" pointer-events="none"><line transform="translate(0,360)" x2="0" y2="-360" stroke="#888" stroke-width="1" opacity="1"/></g><g class="mark-text role-axis-title" pointer-events="none"><text text-anchor="middle" transform="translate(-27.6845703125,180) rotate(-90) translate(0,-2)" font-family="sans-serif" font-size="11px" font-weight="bold" fill="#000" opacity="1">Cumulative evidence</text></g></g><path class="foreground" aria-hidden="true" d="" pointer-events="none" display="none"/></g></g><g class="mark-group role-scope" role="graphics-object" aria-roledescription="group mark container"><g transform="translate(3.916666666666657,328.5)"><path class="background" aria-hidden="true" d="M8,0L62.5,0C66.915320195952,0,70.5,3.584679804048,70.5,8L70.5,31.5C70.5,31.5,70.5,31.5,70.5,31.5L0,31.5C0,31.5,0,31.5,0,31.5L0,8C0,3.584679804048,3.584679804048,0,8,0Z"/><g clip-path="url(#clip1)"><g class="mark-group role-scope" role="graphics-object" aria-roledescription="group mark container"><g transform="translate(0,-328.5)"><path class="background" aria-hidden="true" d="M0,0h70.5v0h-70.5Z"/><g><g class="mark-rect role-mark concat_1_concat_0_marks" role="graphics-object" aria-roledescription="rect mark container"><path aria-label="Method: ABSREL; Cumulative evidence: 14; method: ABSREL; score: 14" role="graphics-symbol" aria-roledescription="bar" d="M0,328.5h70.5v31.5h-70.5Z" fill="#9b2226"/></g></g><path class="foreground" aria-hidden="true" d="" display="none"/></g></g></g><path class="foreground" aria-hidden="true" d="" display="none"/></g><g transform="translate(82.24999999999999,359.322682509756)"><path class="background" aria-hidden="true" d="M0.33865874512198957,0L70.16134125487801,0C70.34825210448712,0,70.5,0.1517478955128794,70.5,0.33865874512198957L70.5,0.6773174902439791C70.5,0.6773174902439791,70.5,0.6773174902439791,70.5,0.6773174902439791L0,0.6773174902439791C0,0.6773174902439791,0,0.6773174902439791,0,0.6773174902439791L0,0.33865874512198957C0,0.1517478955128794,0.1517478955128794,0,0.33865874512198957,0Z"/><g clip-path="url(#clip2)"><g class="mark-group role-scope" role="graphics-object" aria-roledescription="group mark container"><g transform="translate(0,-359.322682509756)"><path class="background" aria-hidden="true" d="M0,0h70.5v0h-70.5Z"/><g><g class="mark-rect role-mark concat_1_concat_0_marks" role="graphics-object" aria-roledescription="rect mark container"><path aria-label="Method: BUSTEDS-MH; Cumulative evidence: 0.301029995664; method: BUSTEDS-MH; score: 0.301029995664" role="graphics-symbol" aria-roledescription="bar" d="M0,359.322682509756h70.5v0.6773174902439791h-70.5Z" fill="#9b2226"/></g></g><path class="foreground" aria-hidden="true" d="" display="none"/></g></g></g><path class="foreground" aria-hidden="true" d="" display="none"/></g><g transform="translate(160.58333333333331,360)"><path class="background" aria-hidden="true" d="M0,0h70.5v0h-70.5Z"/><g clip-path="url(#clip3)"><g class="mark-group role-scope" role="graphics-object" aria-roledescription="group mark container"><g transform="translate(0,-360)"><path class="background" aria-hidden="true" d="M0,0h70.5v0h-70.5Z"/><g><g class="mark-rect role-mark concat_1_concat_0_marks" role="graphics-object" aria-roledescription="rect mark container"><path aria-label="Method: CFEL; Cumulative evidence: 0; method: CFEL; score: 0" role="graphics-symbol" aria-roledescription="bar" d="M0,360h70.5v0h-70.5Z" fill="#9b2226"/></g></g><path class="foreground" aria-hidden="true" d="" display="none"/></g></g></g><path class="foreground" aria-hidden="true" d="" display="none"/></g><g transform="translate(238.91666666666666,63.000000000000014)"><path class="background" aria-hidden="true" d="M8,0L62.5,0C66.915320195952,0,70.5,3.584679804048,70.5,8L70.5,297C70.5,297,70.5,297,70.5,297L0,297C0,297,0,297,0,297L0,8C0,3.584679804048,3.584679804048,0,8,0Z"/><g clip-path="url(#clip4)"><g class="mark-group role-scope" role="graphics-object" aria-roledescription="group mark container"><g transform="translate(0,-63.000000000000014)"><path class="background" aria-hidden="true" d="M0,0h70.5v0h-70.5Z"/><g><g class="mark-rect role-mark concat_1_concat_0_marks" role="graphics-object" aria-roledescription="rect mark container"><path aria-label="Method: FEL; Cumulative evidence: 132; method: FEL; score: 132" role="graphics-symbol" aria-roledescription="bar" d="M0,63.000000000000014h70.5v297h-70.5Z" fill="#9b2226"/></g></g><path class="foreground" aria-hidden="true" d="" display="none"/></g></g></g><path class="foreground" aria-hidden="true" d="" display="none"/></g><g transform="translate(317.25,353.25)"><path class="background" aria-hidden="true" d="M3.375,0L67.125,0C68.98771320766726,0,70.5,1.51228679233275,70.5,3.375L70.5,6.75C70.5,6.75,70.5,6.75,70.5,6.75L0,6.75C0,6.75,0,6.75,0,6.75L0,3.375C0,1.51228679233275,1.51228679233275,0,3.375,0Z"/><g clip-path="url(#clip5)"><g class="mark-group role-scope" role="graphics-object" aria-roledescription="group mark container"><g transform="translate(0,-353.25)"><path class="background" aria-hidden="true" d="M0,0h70.5v0h-70.5Z"/><g><g class="mark-rect role-mark concat_1_concat_0_marks" role="graphics-object" aria-roledescription="rect mark container"><path aria-label="Method: MEME; Cumulative evidence: 3; method: MEME; score: 3" role="graphics-symbol" aria-roledescription="bar" d="M0,353.25h70.5v6.75h-70.5Z" fill="#9b2226"/></g></g><path class="foreground" aria-hidden="true" d="" display="none"/></g></g></g><path class="foreground" aria-hidden="true" d="" display="none"/></g><g transform="translate(395.58333333333326,360)"><path class="background" aria-hidden="true" d="M0,0h70.5v0h-70.5Z"/><g clip-path="url(#clip6)"><g class="mark-group role-scope" role="graphics-object" aria-roledescription="group mark container"><g transform="translate(0,-360)"><path class="background" aria-hidden="true" d="M0,0h70.5v0h-70.5Z"/><g><g class="mark-rect role-mark concat_1_concat_0_marks" role="graphics-object" aria-roledescription="rect mark container"><path aria-label="Method: RELAX; Cumulative evidence: 0; method: RELAX; score: 0" role="graphics-symbol" aria-roledescription="bar" d="M0,360h70.5v0h-70.5Z" fill="#9b2226"/></g></g><path class="foreground" aria-hidden="true" d="" display="none"/></g></g></g><path class="foreground" aria-hidden="true" d="" display="none"/></g></g><g class="mark-group role-title"><g transform="translate(235,-22)"><path class="background" aria-hidden="true" d="M0,0h0v0h0Z" pointer-events="none"/><g><g class="mark-text role-title-text" role="graphics-symbol" aria-roledescription="title" aria-label="Title text 'Method burden'" pointer-events="none"><text text-anchor="middle" transform="translate(0,10)" font-family="sans-serif" font-size="13px" font-weight="bold" fill="#000" opacity="1">Method burden</text></g></g><path class="foreground" aria-hidden="true" d="" pointer-events="none" display="none"/></g></g></g><path class="foreground" aria-hidden="true" d="" display="none"/></g></g><g class="mark-group role-scope concat_1_concat_1_group" role="graphics-object" aria-roledescription="group mark container"><g transform="translate(539,0)"><path class="background" aria-hidden="true" d="M0.5,0.5h470v360h-470Z" stroke="#ddd"/><g><g class="mark-group role-axis" aria-hidden="true"><g transform="translate(0.5,0.5)"><path class="background" aria-hidden="true" d="M0,0h0v0h0Z" pointer-events="none"/><g><g class="mark-rule role-axis-grid" pointer-events="none"><line transform="translate(0,360)" x2="470" y2="0" stroke="#ddd" stroke-width="1" opacity="1"/><line transform="translate(0,315)" x2="470" y2="0" stroke="#ddd" stroke-width="1" opacity="1"/><line transform="translate(0,270)" x2="470" y2="0" stroke="#ddd" stroke-width="1" opacity="1"/><line transform="translate(0,225)" x2="470" y2="0" stroke="#ddd" stroke-width="1" opacity="1"/><line transform="translate(0,180)" x2="470" y2="0" stroke="#ddd" stroke-width="1" opacity="1"/><line transform="translate(0,135)" x2="470" y2="0" stroke="#ddd" stroke-width="1" opacity="1"/><line transform="translate(0,90)" x2="470" y2="0" stroke="#ddd" stroke-width="1" opacity="1"/><line transform="translate(0,45)" x2="470" y2="0" stroke="#ddd" stroke-width="1" opacity="1"/><line transform="translate(0,0)" x2="470" y2="0" stroke="#ddd" stroke-width="1" opacity="1"/></g></g><path class="foreground" aria-hidden="true" d="" pointer-events="none" display="none"/></g></g><g class="mark-group role-axis" role="graphics-symbol" aria-roledescription="axis" aria-label="X-axis titled 'Partition' for a discrete scale with 1 value: 1"><g transform="translate(0.5,360.5)"><path class="background" aria-hidden="true" d="M0,0h0v0h0Z" pointer-events="none"/><g><g class="mark-rule role-axis-tick" pointer-events="none"><line transform="translate(235,0)" x2="0" y2="5" stroke="#888" stroke-width="1" opacity="1"/></g><g class="mark-text role-axis-label" pointer-events="none"><text text-anchor="end" transform="translate(234.5,7) rotate(270) translate(0,3)" font-family="sans-serif" font-size="10px" fill="#000" opacity="1">1</text></g><g class="mark-rule role-axis-domain" pointer-events="none"><line transform="translate(0,0)" x2="470" y2="0" stroke="#888" stroke-width="1" opacity="1"/></g><g class="mark-text role-axis-title" pointer-events="none"><text text-anchor="middle" transform="translate(235,25.5615234375)" font-family="sans-serif" font-size="11px" font-weight="bold" fill="#000" opacity="1">Partition</text></g></g><path class="foreground" aria-hidden="true" d="" pointer-events="none" display="none"/></g></g><g class="mark-group role-axis" role="graphics-symbol" aria-roledescription="axis" aria-label="Y-axis titled 'Cumulative evidence' for a linear scale with values from 0 to 160"><g transform="translate(0.5,0.5)"><path class="background" aria-hidden="true" d="M0,0h0v0h0Z" pointer-events="none"/><g><g class="mark-rule role-axis-tick" pointer-events="none"><line transform="translate(0,360)" x2="-5" y2="0" stroke="#888" stroke-width="1" opacity="1"/><line transform="translate(0,315)" x2="-5" y2="0" stroke="#888" stroke-width="1" opacity="1"/><line transform="translate(0,270)" x2="-5" y2="0" stroke="#888" stroke-width="1" opacity="1"/><line transform="translate(0,225)" x2="-5" y2="0" stroke="#888" stroke-width="1" opacity="1"/><line transform="translate(0,180)" x2="-5" y2="0" stroke="#888" stroke-width="1" opacity="1"/><line transform="translate(0,135)" x2="-5" y2="0" stroke="#888" stroke-width="1" opacity="1"/><line transform="translate(0,90)" x2="-5" y2="0" stroke="#888" stroke-width="1" opacity="1"/><line transform="translate(0,45)" x2="-5" y2="0" stroke="#888" stroke-width="1" opacity="1"/><line transform="translate(0,0)" x2="-5" y2="0" stroke="#888" stroke-width="1" opacity="1"/></g><g class="mark-text role-axis-label" pointer-events="none"><text text-anchor="end" transform="translate(-7,363)" font-family="sans-serif" font-size="10px" fill="#000" opacity="1">0</text><text text-anchor="end" transform="translate(-7,318)" font-family="sans-serif" font-size="10px" fill="#000" opacity="1">20</text><text text-anchor="end" transform="translate(-7,273)" font-family="sans-serif" font-size="10px" fill="#000" opacity="1">40</text><text text-anchor="end" transform="translate(-7,228)" font-family="sans-serif" font-size="10px" fill="#000" opacity="1">60</text><text text-anchor="end" transform="translate(-7,183)" font-family="sans-serif" font-size="10px" fill="#000" opacity="1">80</text><text text-anchor="end" transform="translate(-7,138)" font-family="sans-serif" font-size="10px" fill="#000" opacity="1">100</text><text text-anchor="end" transform="translate(-7,93)" font-family="sans-serif" font-size="10px" fill="#000" opacity="1">120</text><text text-anchor="end" transform="translate(-7,48)" font-family="sans-serif" font-size="10px" fill="#000" opacity="1">140</text><text text-anchor="end" transform="translate(-7,3)" font-family="sans-serif" font-size="10px" fill="#000" opacity="1">160</text></g><g class="mark-rule role-axis-domain" pointer-events="none"><line transform="translate(0,360)" x2="0" y2="-360" stroke="#888" stroke-width="1" opacity="1"/></g><g class="mark-text role-axis-title" pointer-events="none"><text text-anchor="middle" transform="translate(-27.6845703125,180) rotate(-90) translate(0,-2)" font-family="sans-serif" font-size="11px" font-weight="bold" fill="#000" opacity="1">Cumulative evidence</text></g></g><path class="foreground" aria-hidden="true" d="" pointer-events="none" display="none"/></g></g><g class="mark-group role-scope" role="graphics-object" aria-roledescription="group mark container"><g transform="translate(23.5,24.072682509756056)"><path class="background" aria-hidden="true" d="M8,0L415,0C419.415320195952,0,423,3.584679804048,423,8L423,335.9273174902439C423,335.9273174902439,423,335.9273174902439,423,335.9273174902439L0,335.9273174902439C0,335.9273174902439,0,335.9273174902439,0,335.9273174902439L0,8C0,3.584679804048,3.584679804048,0,8,0Z"/><g clip-path="url(#clip7)"><g class="mark-group role-scope" role="graphics-object" aria-roledescription="group mark container"><g transform="translate(0,-24.072682509756056)"><path class="background" aria-hidden="true" d="M0,0h423v0h-423Z"/><g><g class="mark-rect role-mark concat_1_concat_1_marks" role="graphics-object" aria-roledescription="rect mark container"><path aria-label="Partition: 1; Cumulative evidence: 149.301029996; partition: 1; score: 149.301029996" role="graphics-symbol" aria-roledescription="bar" d="M0,24.072682509756056h423v335.9273174902439h-423Z" fill="#005f73"/></g></g><path class="foreground" aria-hidden="true" d="" display="none"/></g></g></g><path class="foreground" aria-hidden="true" d="" display="none"/></g></g><g class="mark-group role-title"><g transform="translate(235,-22)"><path class="background" aria-hidden="true" d="M0,0h0v0h0Z" pointer-events="none"/><g><g class="mark-text role-title-text" role="graphics-symbol" aria-roledescription="title" aria-label="Title text 'Partition burden'" pointer-events="none"><text text-anchor="middle" transform="translate(0,10)" font-family="sans-serif" font-size="13px" font-weight="bold" fill="#000" opacity="1">Partition burden</text></g></g><path class="foreground" aria-hidden="true" d="" pointer-events="none" display="none"/></g></g></g><path class="foreground" aria-hidden="true" d="" display="none"/></g></g></g><path class="foreground" aria-hidden="true" d="" display="none"/></g></g><g class="mark-group role-title"><g transform="translate(-39.6845703125,-46)"><path class="background" aria-hidden="true" d="M0,0h0v0h0Z" pointer-events="none"/><g><g class="mark-text role-title-text" role="graphics-symbol" aria-roledescription="title" aria-label="Title text 'Selection dashboard: BDNF-64'" pointer-events="none"><text text-anchor="start" transform="translate(0,10)" font-family="sans-serif" font-size="13px" font-weight="bold" fill="#000" opacity="1">Selection dashboard: BDNF-64</text></g><g class="mark-text role-title-subtitle" role="graphics-symbol" aria-roledescription="subtitle" aria-label="Subtitle text 'Left: which tests contribute the strongest aggregate signal. Right: which partitions accumulate the strongest cross-method evidence.'" pointer-events="none"><text text-anchor="start" transform="translate(0,25)" font-family="sans-serif" font-size="12px" fill="#000" opacity="1"><tspan>Left: which tests contribute the strongest aggregate signal.</tspan><tspan x="0" dy="14">Right: which partitions accumulate the strongest cross-method evidence.</tspan></text></g></g><path class="foreground" aria-hidden="true" d="" pointer-events="none" display="none"/></g></g></g><path class="foreground" aria-hidden="true" d="" display="none"/></g></g></g><defs><clipPath id="clip1"><path d="M8,0L62.5,0C66.915320195952,0,70.5,3.584679804048,70.5,8L70.5,31.5C70.5,31.5,70.5,31.5,70.5,31.5L0,31.5C0,31.5,0,31.5,0,31.5L0,8C0,3.584679804048,3.584679804048,0,8,0Z"/></clipPath><clipPath id="clip2"><path d="M0.33865874512198957,0L70.16134125487801,0C70.34825210448712,0,70.5,0.1517478955128794,70.5,0.33865874512198957L70.5,0.6773174902439791C70.5,0.6773174902439791,70.5,0.6773174902439791,70.5,0.6773174902439791L0,0.6773174902439791C0,0.6773174902439791,0,0.6773174902439791,0,0.6773174902439791L0,0.33865874512198957C0,0.1517478955128794,0.1517478955128794,0,0.33865874512198957,0Z"/></clipPath><clipPath id="clip3"><path d="M0,0h70.5v0h-70.5Z"/></clipPath><clipPath id="clip4"><path d="M8,0L62.5,0C66.915320195952,0,70.5,3.584679804048,70.5,8L70.5,297C70.5,297,70.5,297,70.5,297L0,297C0,297,0,297,0,297L0,8C0,3.584679804048,3.584679804048,0,8,0Z"/></clipPath><clipPath id="clip5"><path d="M3.375,0L67.125,0C68.98771320766726,0,70.5,1.51228679233275,70.5,3.375L70.5,6.75C70.5,6.75,70.5,6.75,70.5,6.75L0,6.75C0,6.75,0,6.75,0,6.75L0,3.375C0,1.51228679233275,1.51228679233275,0,3.375,0Z"/></clipPath><clipPath id="clip6"><path d="M0,0h70.5v0h-70.5Z"/></clipPath><clipPath id="clip7"><path d="M8,0L415,0C419.415320195952,0,423,3.584679804048,423,8L423,335.9273174902439C423,335.9273174902439,423,335.9273174902439,423,335.9273174902439L0,335.9273174902439C0,335.9273174902439,0,335.9273174902439,0,335.9273174902439L0,8C0,3.584679804048,3.584679804048,0,8,0Z"/></clipPath></defs></svg>