<svg xmlns="http://www.w3.org/2000/svg" xmlns:xlink="http://www.w3.org/1999/xlink" version="1.1" class="marks" width="946" height="514" viewBox="0 0 946 514"><rect width="946" height="514" fill="white"/><g fill="none" stroke-miterlimit="10" transform="translate(41,27)"><g class="mark-group role-frame root" role="graphics-object" aria-roledescription="group mark container"><g transform="translate(0,0)"><path class="background" aria-hidden="true" d="M0.5,0.5h900v450h-900Z" stroke="#ddd"/><g><g class="mark-group role-axis" aria-hidden="true"><g transform="translate(0.5,450.5)"><path class="background" aria-hidden="true" d="M0,0h0v0h0Z" pointer-events="none"/><g><g class="mark-rule role-axis-grid" pointer-events="none"><line transform="translate(0,-450)" x2="0" y2="450" stroke="#ddd" stroke-width="1" opacity="1"/><line transform="translate(51,-450)" x2="0" y2="450" stroke="#ddd" stroke-width="1" opacity="1"/><line transform="translate(103,-450)" x2="0" y2="450" stroke="#ddd" stroke-width="1" opacity="1"/><line transform="translate(154,-450)" x2="0" y2="450" stroke="#ddd" stroke-width="1" opacity="1"/><line transform="translate(206,-450)" x2="0" y2="450" stroke="#ddd" stroke-width="1" opacity="1"/><line transform="translate(257,-450)" x2="0" y2="450" stroke="#ddd" stroke-width="1" opacity="1"/><line transform="translate(309,-450)" x2="0" y2="450" stroke="#ddd" stroke-width="1" opacity="1"/><line transform="translate(360,-450)" x2="0" y2="450" stroke="#ddd" stroke-width="1" opacity="1"/><line transform="translate(411,-450)" x2="0" y2="450" stroke="#ddd" stroke-width="1" opacity="1"/><line transform="translate(463,-450)" x2="0" y2="450" stroke="#ddd" stroke-width="1" opacity="1"/><line transform="translate(514,-450)" x2="0" y2="450" stroke="#ddd" stroke-width="1" opacity="1"/><line transform="translate(566,-450)" x2="0" y2="450" stroke="#ddd" stroke-width="1" opacity="1"/><line transform="translate(617,-450)" x2="0" y2="450" stroke="#ddd" stroke-width="1" opacity="1"/><line transform="translate(669,-450)" x2="0" y2="450" stroke="#ddd" stroke-width="1" opacity="1"/><line transform="translate(720,-450)" x2="0" y2="450" stroke="#ddd" stroke-width="1" opacity="1"/><line transform="translate(771,-450)" x2="0" y2="450" stroke="#ddd" stroke-width="1" opacity="1"/><line transform="translate(823,-450)" x2="0" y2="450" stroke="#ddd" stroke-width="1" opacity="1"/><line transform="translate(874,-450)" x2="0" y2="450" stroke="#ddd" stroke-width="1" opacity="1"/></g></g><path class="foreground" aria-hidden="true" d="" pointer-events="none" display="none"/></g></g><g class="mark-group role-axis" aria-hidden="true"><g transform="translate(0.5,0.5)"><path class="background" aria-hidden="true" d="M0,0h0v0h0Z" pointer-events="none"/><g><g class="mark-rule role-axis-grid" pointer-events="none"><line transform="translate(0,450)" x2="900" y2="0" stroke="#ddd" stroke-width="1" opacity="1"/><line transform="translate(0,308)" x2="900" y2="0" stroke="#ddd" stroke-width="1" opacity="1"/><line transform="translate(0,249)" x2="900" y2="0" stroke="#ddd" stroke-width="1" opacity="1"/><line transform="translate(0,204)" x2="900" y2="0" stroke="#ddd" stroke-width="1" opacity="1"/><line transform="translate(0,165)" x2="900" y2="0" stroke="#ddd" stroke-width="1" opacity="1"/><line transform="translate(0,132)" x2="900" y2="0" stroke="#ddd" stroke-width="1" opacity="1"/><line transform="translate(0,101)" x2="900" y2="0" stroke="#ddd" stroke-width="1" opacity="1"/><line transform="translate(0,74)" x2="900" y2="0" stroke="#ddd" stroke-width="1" opacity="1"/><line transform="translate(0,48)" x2="900" y2="0" stroke="#ddd" stroke-width="1" opacity="1"/><line transform="translate(0,23)" x2="900" y2="0" stroke="#ddd" stroke-width="1" opacity="1"/><line transform="translate(0,0)" x2="900" y2="0" stroke="#ddd" stroke-width="1" opacity="1"/></g></g><path class="foreground" aria-hidden="true" d="" pointer-events="none" display="none"/></g></g><g class="mark-group role-axis" role="graphics-symbol" aria-roledescription="axis" aria-label="X-axis titled 'Codon site' for a linear scale with values from 0 to 35"><g transform="translate(0.5,450.5)"><path class="background" aria-hidden="true" d="M0,0h0v0h0Z" pointer-events="none"/><g><g class="mark-rule role-axis-tick" pointer-events="none"><line transform="translate(0,0)" x2="0" y2="5" stroke="#888" stroke-width="1" opacity="1"/><line transform="translate(51,0)" x2="0" y2="5" stroke="#888" stroke-width="1" opacity="1"/><line transform="translate(103,0)" x2="0" y2="5" stroke="#888" stroke-width="1" opacity="1"/><line transform="translate(154,0)" x2="0" y2="5" stroke="#888" stroke-width="1" opacity="1"/><line transform="translate(206,0)" x2="0" y2="5" stroke="#888" stroke-width="1" opacity="1"/><line transform="translate(257,0)" x2="0" y2="5" stroke="#888" stroke-width="1" opacity="1"/><line transform="translate(309,0)" x2="0" y2="5" stroke="#888" stroke-width="1" opacity="1"/><line transform="translate(360,0)" x2="0" y2="5" stroke="#888" stroke-width="1" opacity="1"/><line transform="translate(411,0)" x2="0" y2="5" stroke="#888" stroke-width="1" opacity="1"/><line transform="translate(463,0)" x2="0" y2="5" stroke="#888" stroke-width="1" opacity="1"/><line transform="translate(514,0)" x2="0" y2="5" stroke="#888" stroke-width="1" opacity="1"/><line transform="translate(566,0)" x2="0" y2="5" stroke="#888" stroke-width="1" opacity="1"/><line transform="translate(617,0)" x2="0" y2="5" stroke="#888" stroke-width="1" opacity="1"/><line transform="translate(669,0)" x2="0" y2="5" stroke="#888" stroke-width="1" opacity="1"/><line transform="translate(720,0)" x2="0" y2="5" stroke="#888" stroke-width="1" opacity="1"/><line transform="translate(771,0)" x2="0" y2="5" stroke="#888" stroke-width="1" opacity="1"/><line transform="translate(823,0)" x2="0" y2="5" stroke="#888" stroke-width="1" opacity="1"/><line transform="translate(874,0)" x2="0" y2="5" stroke="#888" stroke-width="1" opacity="1"/></g><g class="mark-text role-axis-label" pointer-events="none"><text text-anchor="start" transform="translate(0,15)" font-family="sans-serif" font-size="10px" fill="#000" opacity="1">0</text><text text-anchor="middle" transform="translate(51.42857142857142,15)" font-family="sans-serif" font-size="10px" fill="#000" opacity="1">2</text><text text-anchor="middle" transform="translate(102.85714285714285,15)" font-family="sans-serif" font-size="10px" fill="#000" opacity="1">4</text><text text-anchor="middle" transform="translate(154.28571428571428,15)" font-family="sans-serif" font-size="10px" fill="#000" opacity="1">6</text><text text-anchor="middle" transform="translate(205.7142857142857,15)" font-family="sans-serif" font-size="10px" fill="#000" opacity="1">8</text><text text-anchor="middle" transform="translate(257.1428571428571,15)" font-family="sans-serif" font-size="10px" fill="#000" opacity="1">10</text><text text-anchor="middle" transform="translate(308.57142857142856,15)" font-family="sans-serif" font-size="10px" fill="#000" opacity="1">12</text><text text-anchor="middle" transform="translate(360,15)" font-family="sans-serif" font-size="10px" fill="#000" opacity="1">14</text><text text-anchor="middle" transform="translate(411.4285714285714,15)" font-family="sans-serif" font-size="10px" fill="#000" opacity="1">16</text><text text-anchor="middle" transform="translate(462.85714285714283,15)" font-family="sans-serif" font-size="10px" fill="#000" opacity="1">18</text><text text-anchor="middle" transform="translate(514.2857142857142,15)" font-family="sans-serif" font-size="10px" fill="#000" opacity="1">20</text><text text-anchor="middle" transform="translate(565.7142857142857,15)" font-family="sans-serif" font-size="10px" fill="#000" opacity="1">22</text><text text-anchor="middle" transform="translate(617.1428571428571,15)" font-family="sans-serif" font-size="10px" fill="#000" opacity="1">24</text><text text-anchor="middle" transform="translate(668.5714285714286,15)" font-family="sans-serif" font-size="10px" fill="#000" opacity="1">26</text><text text-anchor="middle" transform="translate(720,15)" font-family="sans-serif" font-size="10px" fill="#000" opacity="1">28</text><text text-anchor="middle" transform="translate(771.4285714285713,15)" font-family="sans-serif" font-size="10px" fill="#000" opacity="1">30</text><text text-anchor="middle" transform="translate(822.8571428571428,15)" font-family="sans-serif" font-size="10px" fill="#000" opacity="1">32</text><text text-anchor="middle" transform="translate(874.2857142857142,15)" font-family="sans-serif" font-size="10px" fill="#000" opacity="1">34</text></g><g class="mark-rule role-axis-domain" pointer-events="none"><line transform="translate(0,0)" x2="900" y2="0" stroke="#888" stroke-width="1" opacity="1"/></g><g class="mark-text role-axis-title" pointer-events="none"><text text-anchor="middle" transform="translate(450,30)" font-family="sans-serif" font-size="11px" font-weight="bold" fill="#000" opacity="1">Codon site</text></g></g><path class="foreground" aria-hidden="true" d="" pointer-events="none" display="none"/></g></g><g class="mark-group role-axis" role="graphics-symbol" aria-roledescription="axis" aria-label="Y-axis titled 'dN/dS estimate' for a sqrt scale with values from 0 to 5"><g transform="translate(0.5,0.5)"><path class="background" aria-hidden="true" d="M0,0h0v0h0Z" pointer-events="none"/><g><g class="mark-rule role-axis-tick" pointer-events="none"><line transform="translate(0,450)" x2="-5" y2="0" stroke="#888" stroke-width="1" opacity="1"/><line transform="translate(0,308)" x2="-5" y2="0" stroke="#888" stroke-width="1" opacity="1"/><line transform="translate(0,249)" x2="-5" y2="0" stroke="#888" stroke-width="1" opacity="1"/><line transform="translate(0,204)" x2="-5" y2="0" stroke="#888" stroke-width="1" opacity="1"/><line transform="translate(0,165)" x2="-5" y2="0" stroke="#888" stroke-width="1" opacity="1"/><line transform="translate(0,132)" x2="-5" y2="0" stroke="#888" stroke-width="1" opacity="1"/><line transform="translate(0,101)" x2="-5" y2="0" stroke="#888" stroke-width="1" opacity="1"/><line transform="translate(0,74)" x2="-5" y2="0" stroke="#888" stroke-width="1" opacity="1"/><line transform="translate(0,48)" x2="-5" y2="0" stroke="#888" stroke-width="1" opacity="1"/><line transform="translate(0,23)" x2="-5" y2="0" stroke="#888" stroke-width="1" opacity="1"/><line transform="translate(0,0)" x2="-5" y2="0" stroke="#888" stroke-width="1" opacity="1"/></g><g class="mark-text role-axis-label" pointer-events="none"><text text-anchor="end" transform="translate(-7,453)" font-family="sans-serif" font-size="10px" fill="#000" opacity="1">0.0</text><text text-anchor="end" transform="translate(-7,310.6975052924229)" font-family="sans-serif" font-size="10px" fill="#000" opacity="1">0.5</text><text text-anchor="end" transform="translate(-7,251.75388202501895)" font-family="sans-serif" font-size="10px" fill="#000" opacity="1">1.0</text><text text-anchor="end" transform="translate(-7,206.52484912267528)" font-family="sans-serif" font-size="10px" fill="#000" opacity="1">1.5</text><text text-anchor="end" transform="translate(-7,168.39501058484586)" font-family="sans-serif" font-size="10px" fill="#000" opacity="1">2.0</text><text text-anchor="end" transform="translate(-7,134.8019484660536)" font-family="sans-serif" font-size="10px" fill="#000" opacity="1">2.5</text><text text-anchor="end" transform="translate(-7,104.43149884133251)" font-family="sans-serif" font-size="10px" fill="#000" opacity="1">3.0</text><text text-anchor="end" transform="translate(-7,76.50298805966605)" font-family="sans-serif" font-size="10px" fill="#000" opacity="1">3.5</text><text text-anchor="end" transform="translate(-7,50.50776405003786)" font-family="sans-serif" font-size="10px" fill="#000" opacity="1">4.0</text><text text-anchor="end" transform="translate(-7,26.092515877268855)" font-family="sans-serif" font-size="10px" fill="#000" opacity="1">4.5</text><text text-anchor="end" transform="translate(-7,3)" font-family="sans-serif" font-size="10px" fill="#000" opacity="1">5.0</text></g><g class="mark-rule role-axis-domain" pointer-events="none"><line transform="translate(0,450)" x2="0" y2="-450" stroke="#888" stroke-width="1" opacity="1"/></g><g class="mark-text role-axis-title" pointer-events="none"><text text-anchor="middle" transform="translate(-24.9013671875,225) rotate(-90) translate(0,-2)" font-family="sans-serif" font-size="11px" font-weight="bold" fill="#000" opacity="1">dN/dS estimate</text></g></g><path class="foreground" aria-hidden="true" d="" pointer-events="none" display="none"/></g></g><g class="mark-area role-mark layer_0_marks" role="graphics-object" aria-roledescription="area mark container"><path aria-label="CodonSite: 1; dN/dS LB: 0; dN/dS UB: 0" role="graphics-symbol" aria-roledescription="area mark" d="M25.714,450L51.429,450L77.143,450L102.857,450L128.571,450L154.286,450L180,450L205.714,450L231.429,450L257.143,450L282.857,450L308.571,450L334.286,450L360,450L385.714,450L411.429,450L437.143,450L462.857,450L488.571,450L514.286,450L540,450L565.714,450L591.429,450L617.143,450L642.857,450L668.571,450L694.286,450L720,450L745.714,450L771.429,450L797.143,450L822.857,406.871L848.571,430.43L874.286,0L874.286,0L848.571,271.732L822.857,5.256L797.143,450L771.429,218.446L745.714,450L720,175.828L694.286,203.496L668.571,187.411L642.857,198.849L617.143,450L591.429,450L565.714,0L540,294.286L514.286,450L488.571,70.345L462.857,450L437.143,450L411.429,450L385.714,450L360,113.679L334.286,0L308.571,450L282.857,450L257.143,450L231.429,450L205.714,0L180,450L154.286,72.971L128.571,450L102.857,198.931L77.143,450L51.429,0L25.714,450Z" fill="#4c78a8" opacity="0.25"/></g><g class="mark-symbol role-mark layer_1_marks" clip-path="url(#clip1)" role="graphics-object" aria-roledescription="symbol mark container"><path aria-label="Codon site: 1; dN/dS estimate: 0; CodonSite: 1; alpha: 0; beta: 0; dN/dS MLE: 0; p_value: 1; adjusted_p_value: 1" role="graphics-symbol" aria-roledescription="circle" transform="translate(25.71428571428571,450)" d="M4.183,0A4.183,4.183,0,1,1,-4.183,0A4.183,4.183,0,1,1,4.183,0" fill="lightgray" stroke-width="2" opacity="0.9"/><path aria-label="Codon site: 2; dN/dS estimate: 0.419596843021; CodonSite: 2; alpha: 0.00000710400571213; beta: 0.00000298081836961; dN/dS MLE: 0.419596843021; p_value: 1; adjusted_p_value: 1" role="graphics-symbol" aria-roledescription="circle" transform="translate(51.42857142857142,319.64022038093407)" d="M4.183,0A4.183,4.183,0,1,1,-4.183,0A4.183,4.183,0,1,1,4.183,0" fill="lightgray" stroke-width="2" opacity="0.9"/><path aria-label="Codon site: 3; dN/dS estimate: 0; CodonSite: 3; alpha: 0; beta: 0; dN/dS MLE: 0; p_value: 1; adjusted_p_value: 1" role="graphics-symbol" aria-roledescription="circle" transform="translate(77.14285714285714,450)" d="M4.183,0A4.183,4.183,0,1,1,-4.183,0A4.183,4.183,0,1,1,4.183,0" fill="lightgray" stroke-width="2" opacity="0.9"/><path aria-label="Codon site: 4; dN/dS estimate: 8.96016240993e-7; CodonSite: 4; alpha: 2.3864628098; beta: 0.0000021383094361; dN/dS MLE: 8.96016240993e-7; p_value: 0.205636575721; adjusted_p_value: 0.776849286058" role="graphics-symbol" aria-roledescription="circle" transform="translate(102.85714285714285,449.8095041791529)" d="M4.183,0A4.183,4.183,0,1,1,-4.183,0A4.183,4.183,0,1,1,4.183,0" fill="lightgray" stroke-width="2" opacity="0.9"/><path aria-label="Codon site: 5; dN/dS estimate: 0; CodonSite: 5; alpha: 0; beta: 0; dN/dS MLE: 0; p_value: 1; adjusted_p_value: 1" role="graphics-symbol" aria-roledescription="circle" transform="translate(128.57142857142856,450)" d="M4.183,0A4.183,4.183,0,1,1,-4.183,0A4.183,4.183,0,1,1,4.183,0" fill="lightgray" stroke-width="2" opacity="0.9"/><path aria-label="Codon site: 6; dN/dS estimate: 0.00000212727705067; CodonSite: 6; alpha: 1.18382241929; beta: 0.00000251831826463; dN/dS MLE: 0.00000212727705067; p_value: 0.325976737755; adjusted_p_value: 0.923600756972" role="graphics-symbol" aria-roledescription="circle" transform="translate(154.28571428571428,449.7064787562168)" d="M4.183,0A4.183,4.183,0,1,1,-4.183,0A4.183,4.183,0,1,1,4.183,0" fill="lightgray" stroke-width="2" opacity="0.9"/><path aria-label="Codon site: 7; dN/dS estimate: 0; CodonSite: 7; alpha: 0; beta: 0; dN/dS MLE: 0; p_value: 1; adjusted_p_value: 1" role="graphics-symbol" aria-roledescription="circle" transform="translate(180,450)" d="M4.183,0A4.183,4.183,0,1,1,-4.183,0A4.183,4.183,0,1,1,4.183,0" fill="lightgray" stroke-width="2" opacity="0.9"/><path aria-label="Codon site: 8; dN/dS estimate: 10000; CodonSite: 8; alpha: 3.51728739846e-12; beta: 1.01732594103e-7; dN/dS MLE: 10000; p_value: 1; adjusted_p_value: 1" role="graphics-symbol" aria-roledescription="circle" transform="translate(205.7142857142857,0)" d="M4.183,0A4.183,4.183,0,1,1,-4.183,0A4.183,4.183,0,1,1,4.183,0" fill="lightgray" stroke-width="2" opacity="0.9"/><path aria-label="Codon site: 9; dN/dS estimate: 0; CodonSite: 9; alpha: 0; beta: 0; dN/dS MLE: 0; p_value: 1; adjusted_p_value: 1" role="graphics-symbol" aria-roledescription="circle" transform="translate(231.42857142857142,450)" d="M4.183,0A4.183,4.183,0,1,1,-4.183,0A4.183,4.183,0,1,1,4.183,0" fill="lightgray" stroke-width="2" opacity="0.9"/><path aria-label="Codon site: 10; dN/dS estimate: 0; CodonSite: 10; alpha: 0; beta: 0; dN/dS MLE: 0; p_value: 1; adjusted_p_value: 1" role="graphics-symbol" aria-roledescription="circle" transform="translate(257.1428571428571,450)" d="M4.183,0A4.183,4.183,0,1,1,-4.183,0A4.183,4.183,0,1,1,4.183,0" fill="lightgray" stroke-width="2" opacity="0.9"/><path aria-label="Codon site: 11; dN/dS estimate: 0; CodonSite: 11; alpha: 0; beta: 0; dN/dS MLE: 0; p_value: 1; adjusted_p_value: 1" role="graphics-symbol" aria-roledescription="circle" transform="translate(282.85714285714283,450)" d="M4.183,0A4.183,4.183,0,1,1,-4.183,0A4.183,4.183,0,1,1,4.183,0" fill="lightgray" stroke-width="2" opacity="0.9"/><path aria-label="Codon site: 12; dN/dS estimate: 0; CodonSite: 12; alpha: 0; beta: 0; dN/dS MLE: 0; p_value: 1; adjusted_p_value: 1" role="graphics-symbol" aria-roledescription="circle" transform="translate(308.57142857142856,450)" d="M4.183,0A4.183,4.183,0,1,1,-4.183,0A4.183,4.183,0,1,1,4.183,0" fill="lightgray" stroke-width="2" opacity="0.9"/><path aria-label="Codon site: 13; dN/dS estimate: 2.1844714203; CodonSite: 13; alpha: 0.00000182919826237; beta: 0.00000399583132619; dN/dS MLE: 2.1844714203; p_value: 1; adjusted_p_value: 1" role="graphics-symbol" aria-roledescription="circle" transform="translate(334.2857142857143,152.55909406740867)" d="M4.183,0A4.183,4.183,0,1,1,-4.183,0A4.183,4.183,0,1,1,4.183,0" fill="lightgray" stroke-width="2" opacity="0.9"/><path aria-label="Codon site: 14; dN/dS estimate: 0.00000266441790595; CodonSite: 14; alpha: 1.84495401401; beta: 0.00000491572851058; dN/dS MLE: 0.00000266441790595; p_value: 0.271814211579; adjusted_p_value: 0.923600756972" role="graphics-symbol" aria-roledescription="circle" transform="translate(360,449.67150506063115)" d="M4.183,0A4.183,4.183,0,1,1,-4.183,0A4.183,4.183,0,1,1,4.183,0" fill="lightgray" stroke-width="2" opacity="0.9"/><path aria-label="Codon site: 15; dN/dS estimate: 0; CodonSite: 15; alpha: 0; beta: 0; dN/dS MLE: 0; p_value: 1; adjusted_p_value: 1" role="graphics-symbol" aria-roledescription="circle" transform="translate(385.71428571428567,450)" d="M4.183,0A4.183,4.183,0,1,1,-4.183,0A4.183,4.183,0,1,1,4.183,0" fill="lightgray" stroke-width="2" opacity="0.9"/><path aria-label="Codon site: 16; dN/dS estimate: 0; CodonSite: 16; alpha: 0; beta: 0; dN/dS MLE: 0; p_value: 1; adjusted_p_value: 1" role="graphics-symbol" aria-roledescription="circle" transform="translate(411.4285714285714,450)" d="M4.183,0A4.183,4.183,0,1,1,-4.183,0A4.183,4.183,0,1,1,4.183,0" fill="lightgray" stroke-width="2" opacity="0.9"/><path aria-label="Codon site: 17; dN/dS estimate: 0; CodonSite: 17; alpha: 0; beta: 0; dN/dS MLE: 0; p_value: 1; adjusted_p_value: 1" role="graphics-symbol" aria-roledescription="circle" transform="translate(437.1428571428571,450)" d="M4.183,0A4.183,4.183,0,1,1,-4.183,0A4.183,4.183,0,1,1,4.183,0" fill="lightgray" stroke-width="2" opacity="0.9"/><path aria-label="Codon site: 18; dN/dS estimate: 0; CodonSite: 18; alpha: 0; beta: 0; dN/dS MLE: 0; p_value: 1; adjusted_p_value: 1" role="graphics-symbol" aria-roledescription="circle" transform="translate(462.85714285714283,450)" d="M4.183,0A4.183,4.183,0,1,1,-4.183,0A4.183,4.183,0,1,1,4.183,0" fill="lightgray" stroke-width="2" opacity="0.9"/><path aria-label="Codon site: 19; dN/dS estimate: 0.00000268837689508; CodonSite: 19; alpha: 1.36113485876; beta: 0.00000365924350539; dN/dS MLE: 0.00000268837689508; p_value: 0.324568389389; adjusted_p_value: 0.923600756972" role="graphics-symbol" aria-roledescription="circle" transform="translate(488.57142857142856,449.67003141929735)" d="M4.183,0A4.183,4.183,0,1,1,-4.183,0A4.183,4.183,0,1,1,4.183,0" fill="lightgray" stroke-width="2" opacity="0.9"/><path aria-label="Codon site: 20; dN/dS estimate: 0; CodonSite: 20; alpha: 0; beta: 0; dN/dS MLE: 0; p_value: 1; adjusted_p_value: 1" role="graphics-symbol" aria-roledescription="circle" transform="translate(514.2857142857142,450)" d="M4.183,0A4.183,4.183,0,1,1,-4.183,0A4.183,4.183,0,1,1,4.183,0" fill="lightgray" stroke-width="2" opacity="0.9"/><path aria-label="Codon site: 21; dN/dS estimate: 5.38146493801e-8; CodonSite: 21; alpha: 6.10560611422; beta: 3.2857105229e-7; dN/dS MLE: 5.38146493801e-8; p_value: 0.0524951882069; adjusted_p_value: 0.776849286058" role="graphics-symbol" aria-roledescription="circle" transform="translate(540,449.9533149563576)" d="M4.183,0A4.183,4.183,0,1,1,-4.183,0A4.183,4.183,0,1,1,4.183,0" fill="lightgray" stroke-width="2" opacity="0.9"/><path aria-label="Codon site: 22; dN/dS estimate: 73.0625142429; CodonSite: 22; alpha: 8.52137409507e-8; beta: 0.0000062259301619; dN/dS MLE: 73.0625142429; p_value: 1; adjusted_p_value: 1" role="graphics-symbol" aria-roledescription="circle" transform="translate(565.7142857142857,0)" d="M4.183,0A4.183,4.183,0,1,1,-4.183,0A4.183,4.183,0,1,1,4.183,0" fill="lightgray" stroke-width="2" opacity="0.9"/><path aria-label="Codon site: 23; dN/dS estimate: 0; CodonSite: 23; alpha: 0; beta: 0; dN/dS MLE: 0; p_value: 1; adjusted_p_value: 1" role="graphics-symbol" aria-roledescription="circle" transform="translate(591.4285714285714,450)" d="M4.183,0A4.183,4.183,0,1,1,-4.183,0A4.183,4.183,0,1,1,4.183,0" fill="lightgray" stroke-width="2" opacity="0.9"/><path aria-label="Codon site: 24; dN/dS estimate: 0; CodonSite: 24; alpha: 0; beta: 0; dN/dS MLE: 0; p_value: 1; adjusted_p_value: 1" role="graphics-symbol" aria-roledescription="circle" transform="translate(617.1428571428571,450)" d="M4.183,0A4.183,4.183,0,1,1,-4.183,0A4.183,4.183,0,1,1,4.183,0" fill="lightgray" stroke-width="2" opacity="0.9"/><path aria-label="Codon site: 25; dN/dS estimate: 2.15178251621e-7; CodonSite: 25; alpha: 1.97995461081; beta: 4.26043171444e-7; dN/dS MLE: 2.15178251621e-7; p_value: 0.202786675008; adjusted_p_value: 0.776849286058" role="graphics-symbol" aria-roledescription="circle" transform="translate(642.8571428571429,449.9066473396702)" d="M4.183,0A4.183,4.183,0,1,1,-4.183,0A4.183,4.183,0,1,1,4.183,0" fill="lightgray" stroke-width="2" opacity="0.9"/><path aria-label="Codon site: 26; dN/dS estimate: 7.50844801851e-9; CodonSite: 26; alpha: 1.95949370093; beta: 1.4712756596e-8; dN/dS MLE: 7.50844801851e-9; p_value: 0.177858411528; adjusted_p_value: 0.776849286058" role="graphics-symbol" aria-roledescription="circle" transform="translate(668.5714285714286,449.9825617619941)" d="M4.183,0A4.183,4.183,0,1,1,-4.183,0A4.183,4.183,0,1,1,4.183,0" fill="lightgray" stroke-width="2" opacity="0.9"/><path aria-label="Codon site: 27; dN/dS estimate: 9.66183178008e-7; CodonSite: 27; alpha: 2.22357005228; beta: 0.00000214837597963; dN/dS MLE: 9.66183178008e-7; p_value: 0.157717139366; adjusted_p_value: 0.776849286058" role="graphics-symbol" aria-roledescription="circle" transform="translate(694.2857142857143,449.80218589860857)" d="M4.183,0A4.183,4.183,0,1,1,-4.183,0A4.183,4.183,0,1,1,4.183,0" fill="lightgray" stroke-width="2" opacity="0.9"/><path aria-label="Codon site: 28; dN/dS estimate: 3.62434066079e-7; CodonSite: 28; alpha: 2.4676711518; beta: 8.94368089294e-7; dN/dS MLE: 3.62434066079e-7; p_value: 0.196532601688; adjusted_p_value: 0.776849286058" role="graphics-symbol" aria-roledescription="circle" transform="translate(720,449.8788448116001)" d="M4.183,0A4.183,4.183,0,1,1,-4.183,0A4.183,4.183,0,1,1,4.183,0" fill="lightgray" stroke-width="2" opacity="0.9"/><path aria-label="Codon site: 29; dN/dS estimate: 0; CodonSite: 29; alpha: 0; beta: 0; dN/dS MLE: 0; p_value: 1; adjusted_p_value: 1" role="graphics-symbol" aria-roledescription="circle" transform="translate(745.7142857142858,450)" d="M4.183,0A4.183,4.183,0,1,1,-4.183,0A4.183,4.183,0,1,1,4.183,0" fill="lightgray" stroke-width="2" opacity="0.9"/><path aria-label="Codon site: 30; dN/dS estimate: 1.73201018103e-7; CodonSite: 30; alpha: 2.33410286031; beta: 4.04268991764e-7; dN/dS MLE: 1.73201018103e-7; p_value: 0.138080052651; adjusted_p_value: 0.776849286058" role="graphics-symbol" aria-roledescription="circle" transform="translate(771.4285714285713,449.91624654494774)" d="M4.183,0A4.183,4.183,0,1,1,-4.183,0A4.183,4.183,0,1,1,4.183,0" fill="lightgray" stroke-width="2" opacity="0.9"/><path aria-label="Codon site: 31; dN/dS estimate: 0; CodonSite: 31; alpha: 0; beta: 0; dN/dS MLE: 0; p_value: 1; adjusted_p_value: 1" role="graphics-symbol" aria-roledescription="circle" transform="translate(797.1428571428571,450)" d="M4.183,0A4.183,4.183,0,1,1,-4.183,0A4.183,4.183,0,1,1,4.183,0" fill="lightgray" stroke-width="2" opacity="0.9"/><path aria-label="Codon site: 32; dN/dS estimate: 1.01836822338; CodonSite: 32; alpha: 1.90357588867; beta: 1.93854119581; dN/dS MLE: 1.01836822338; p_value: 0.990932976666; adjusted_p_value: 1" role="graphics-symbol" aria-roledescription="circle" transform="translate(822.8571428571428,246.9140254794296)" d="M4.183,0A4.183,4.183,0,1,1,-4.183,0A4.183,4.183,0,1,1,4.183,0" fill="lightgray" stroke-width="2" opacity="0.9"/><path aria-label="Codon site: 33; dN/dS estimate: 0.171564297174; CodonSite: 33; alpha: 8.97579500606; beta: 1.5399259618; dN/dS MLE: 0.171564297174; p_value: 0.103017299397; adjusted_p_value: 0.776849286058" role="graphics-symbol" aria-roledescription="circle" transform="translate(848.5714285714286,366.6432124205728)" d="M4.183,0A4.183,4.183,0,1,1,-4.183,0A4.183,4.183,0,1,1,4.183,0" fill="lightgray" stroke-width="2" opacity="0.9"/><path aria-label="Codon site: 34; dN/dS estimate: 10000; CodonSite: 34; alpha: 0.00000232424660567; beta: 4.0292442813; dN/dS MLE: 10000; p_value: 0.0504560831095; adjusted_p_value: 0.776849286058" role="graphics-symbol" aria-roledescription="circle" transform="translate(874.2857142857142,0)" d="M4.183,0A4.183,4.183,0,1,1,-4.183,0A4.183,4.183,0,1,1,4.183,0" fill="lightgray" stroke-width="2" opacity="0.9"/></g><g class="mark-group role-title"><g transform="translate(450,-22)"><path class="background" aria-hidden="true" d="M0,0h0v0h0Z" pointer-events="none"/><g><g class="mark-text role-title-text" role="graphics-symbol" aria-roledescription="title" aria-label="Title text 'FEL: BDNF-64 part 3'" pointer-events="none"><text text-anchor="middle" transform="translate(0,10)" font-family="sans-serif" font-size="13px" font-weight="bold" fill="#000" opacity="1">FEL: BDNF-64 part 3</text></g></g><path class="foreground" aria-hidden="true" d="" pointer-events="none" display="none"/></g></g></g><path class="foreground" aria-hidden="true" d="" display="none"/></g></g></g><defs><clipPath id="clip1"><rect x="0" y="0" width="900" height="450"/></clipPath></defs></svg>