<svg xmlns="http://www.w3.org/2000/svg" xmlns:xlink="http://www.w3.org/1999/xlink" version="1.1" class="marks" width="1057" height="515" viewBox="0 0 1057 515"><rect width="1057" height="515" fill="white"/><g fill="none" stroke-miterlimit="10" transform="translate(41,28)"><g class="mark-group role-frame root" role="graphics-object" aria-roledescription="group mark container"><g transform="translate(0,0)"><path class="background" aria-hidden="true" d="M0.5,0.5h900v450h-900Z" stroke="#ddd"/><g><g class="mark-group role-axis" aria-hidden="true"><g transform="translate(0.5,450.5)"><path class="background" aria-hidden="true" d="M0,0h0v0h0Z" pointer-events="none"/><g><g class="mark-rule role-axis-grid" pointer-events="none"><line transform="translate(0,-450)" x2="0" y2="450" stroke="#ddd" stroke-width="1" opacity="1"/><line transform="translate(51,-450)" x2="0" y2="450" stroke="#ddd" stroke-width="1" opacity="1"/><line transform="translate(103,-450)" x2="0" y2="450" stroke="#ddd" stroke-width="1" opacity="1"/><line transform="translate(154,-450)" x2="0" y2="450" stroke="#ddd" stroke-width="1" opacity="1"/><line transform="translate(206,-450)" x2="0" y2="450" stroke="#ddd" stroke-width="1" opacity="1"/><line transform="translate(257,-450)" x2="0" y2="450" stroke="#ddd" stroke-width="1" opacity="1"/><line transform="translate(309,-450)" x2="0" y2="450" stroke="#ddd" stroke-width="1" opacity="1"/><line transform="translate(360,-450)" x2="0" y2="450" stroke="#ddd" stroke-width="1" opacity="1"/><line transform="translate(411,-450)" x2="0" y2="450" stroke="#ddd" stroke-width="1" opacity="1"/><line transform="translate(463,-450)" x2="0" y2="450" stroke="#ddd" stroke-width="1" opacity="1"/><line transform="translate(514,-450)" x2="0" y2="450" stroke="#ddd" stroke-width="1" opacity="1"/><line transform="translate(566,-450)" x2="0" y2="450" stroke="#ddd" stroke-width="1" opacity="1"/><line transform="translate(617,-450)" x2="0" y2="450" stroke="#ddd" stroke-width="1" opacity="1"/><line transform="translate(669,-450)" x2="0" y2="450" stroke="#ddd" stroke-width="1" opacity="1"/><line transform="translate(720,-450)" x2="0" y2="450" stroke="#ddd" stroke-width="1" opacity="1"/><line transform="translate(771,-450)" x2="0" y2="450" stroke="#ddd" stroke-width="1" opacity="1"/><line transform="translate(823,-450)" x2="0" y2="450" stroke="#ddd" stroke-width="1" opacity="1"/><line transform="translate(874,-450)" x2="0" y2="450" stroke="#ddd" stroke-width="1" opacity="1"/></g></g><path class="foreground" aria-hidden="true" d="" pointer-events="none" display="none"/></g></g><g class="mark-group role-axis" aria-hidden="true"><g transform="translate(0.5,0.5)"><path class="background" aria-hidden="true" d="M0,0h0v0h0Z" pointer-events="none"/><g><g class="mark-rule role-axis-grid" pointer-events="none"><line transform="translate(0,450)" x2="900" y2="0" stroke="#ddd" stroke-width="1" opacity="1"/><line transform="translate(0,405)" x2="900" y2="0" stroke="#ddd" stroke-width="1" opacity="1"/><line transform="translate(0,360)" x2="900" y2="0" stroke="#ddd" stroke-width="1" opacity="1"/><line transform="translate(0,315)" x2="900" y2="0" stroke="#ddd" stroke-width="1" opacity="1"/><line transform="translate(0,270)" x2="900" y2="0" stroke="#ddd" stroke-width="1" opacity="1"/><line transform="translate(0,225)" x2="900" y2="0" stroke="#ddd" stroke-width="1" opacity="1"/><line transform="translate(0,180)" x2="900" y2="0" stroke="#ddd" stroke-width="1" opacity="1"/><line transform="translate(0,135)" x2="900" y2="0" stroke="#ddd" stroke-width="1" opacity="1"/><line transform="translate(0,90)" x2="900" y2="0" stroke="#ddd" stroke-width="1" opacity="1"/><line transform="translate(0,45)" x2="900" y2="0" stroke="#ddd" stroke-width="1" opacity="1"/><line transform="translate(0,0)" x2="900" y2="0" stroke="#ddd" stroke-width="1" opacity="1"/></g></g><path class="foreground" aria-hidden="true" d="" pointer-events="none" display="none"/></g></g><g class="mark-group role-axis" role="graphics-symbol" aria-roledescription="axis" aria-label="X-axis titled 'Codon site' for a linear scale with values from 0 to 35"><g transform="translate(0.5,450.5)"><path class="background" aria-hidden="true" d="M0,0h0v0h0Z" pointer-events="none"/><g><g class="mark-rule role-axis-tick" pointer-events="none"><line transform="translate(0,0)" x2="0" y2="5" stroke="#888" stroke-width="1" opacity="1"/><line transform="translate(51,0)" x2="0" y2="5" stroke="#888" stroke-width="1" opacity="1"/><line transform="translate(103,0)" x2="0" y2="5" stroke="#888" stroke-width="1" opacity="1"/><line transform="translate(154,0)" x2="0" y2="5" stroke="#888" stroke-width="1" opacity="1"/><line transform="translate(206,0)" x2="0" y2="5" stroke="#888" stroke-width="1" opacity="1"/><line transform="translate(257,0)" x2="0" y2="5" stroke="#888" stroke-width="1" opacity="1"/><line transform="translate(309,0)" x2="0" y2="5" stroke="#888" stroke-width="1" opacity="1"/><line transform="translate(360,0)" x2="0" y2="5" stroke="#888" stroke-width="1" opacity="1"/><line transform="translate(411,0)" x2="0" y2="5" stroke="#888" stroke-width="1" opacity="1"/><line transform="translate(463,0)" x2="0" y2="5" stroke="#888" stroke-width="1" opacity="1"/><line transform="translate(514,0)" x2="0" y2="5" stroke="#888" stroke-width="1" opacity="1"/><line transform="translate(566,0)" x2="0" y2="5" stroke="#888" stroke-width="1" opacity="1"/><line transform="translate(617,0)" x2="0" y2="5" stroke="#888" stroke-width="1" opacity="1"/><line transform="translate(669,0)" x2="0" y2="5" stroke="#888" stroke-width="1" opacity="1"/><line transform="translate(720,0)" x2="0" y2="5" stroke="#888" stroke-width="1" opacity="1"/><line transform="translate(771,0)" x2="0" y2="5" stroke="#888" stroke-width="1" opacity="1"/><line transform="translate(823,0)" x2="0" y2="5" stroke="#888" stroke-width="1" opacity="1"/><line transform="translate(874,0)" x2="0" y2="5" stroke="#888" stroke-width="1" opacity="1"/></g><g class="mark-text role-axis-label" pointer-events="none"><text text-anchor="start" transform="translate(0,15)" font-family="sans-serif" font-size="10px" fill="#000" opacity="1">0</text><text text-anchor="middle" transform="translate(51.42857142857142,15)" font-family="sans-serif" font-size="10px" fill="#000" opacity="1">2</text><text text-anchor="middle" transform="translate(102.85714285714285,15)" font-family="sans-serif" font-size="10px" fill="#000" opacity="1">4</text><text text-anchor="middle" transform="translate(154.28571428571428,15)" font-family="sans-serif" font-size="10px" fill="#000" opacity="1">6</text><text text-anchor="middle" transform="translate(205.7142857142857,15)" font-family="sans-serif" font-size="10px" fill="#000" opacity="1">8</text><text text-anchor="middle" transform="translate(257.1428571428571,15)" font-family="sans-serif" font-size="10px" fill="#000" opacity="1">10</text><text text-anchor="middle" transform="translate(308.57142857142856,15)" font-family="sans-serif" font-size="10px" fill="#000" opacity="1">12</text><text text-anchor="middle" transform="translate(360,15)" font-family="sans-serif" font-size="10px" fill="#000" opacity="1">14</text><text text-anchor="middle" transform="translate(411.4285714285714,15)" font-family="sans-serif" font-size="10px" fill="#000" opacity="1">16</text><text text-anchor="middle" transform="translate(462.85714285714283,15)" font-family="sans-serif" font-size="10px" fill="#000" opacity="1">18</text><text text-anchor="middle" transform="translate(514.2857142857142,15)" font-family="sans-serif" font-size="10px" fill="#000" opacity="1">20</text><text text-anchor="middle" transform="translate(565.7142857142857,15)" font-family="sans-serif" font-size="10px" fill="#000" opacity="1">22</text><text text-anchor="middle" transform="translate(617.1428571428571,15)" font-family="sans-serif" font-size="10px" fill="#000" opacity="1">24</text><text text-anchor="middle" transform="translate(668.5714285714286,15)" font-family="sans-serif" font-size="10px" fill="#000" opacity="1">26</text><text text-anchor="middle" transform="translate(720,15)" font-family="sans-serif" font-size="10px" fill="#000" opacity="1">28</text><text text-anchor="middle" transform="translate(771.4285714285713,15)" font-family="sans-serif" font-size="10px" fill="#000" opacity="1">30</text><text text-anchor="middle" transform="translate(822.8571428571428,15)" font-family="sans-serif" font-size="10px" fill="#000" opacity="1">32</text><text text-anchor="middle" transform="translate(874.2857142857142,15)" font-family="sans-serif" font-size="10px" fill="#000" opacity="1">34</text></g><g class="mark-rule role-axis-domain" pointer-events="none"><line transform="translate(0,0)" x2="900" y2="0" stroke="#888" stroke-width="1" opacity="1"/></g><g class="mark-text role-axis-title" pointer-events="none"><text text-anchor="middle" transform="translate(450,30)" font-family="sans-serif" font-size="11px" font-weight="bold" fill="#000" opacity="1">Codon site</text></g></g><path class="foreground" aria-hidden="true" d="" pointer-events="none" display="none"/></g></g><g class="mark-group role-axis" role="graphics-symbol" aria-roledescription="axis" aria-label="Y-axis titled 'Adjusted p-value' for a linear scale with values from 0.0 to 1.0"><g transform="translate(0.5,0.5)"><path class="background" aria-hidden="true" d="M0,0h0v0h0Z" pointer-events="none"/><g><g class="mark-rule role-axis-tick" pointer-events="none"><line transform="translate(0,450)" x2="-5" y2="0" stroke="#888" stroke-width="1" opacity="1"/><line transform="translate(0,405)" x2="-5" y2="0" stroke="#888" stroke-width="1" opacity="1"/><line transform="translate(0,360)" x2="-5" y2="0" stroke="#888" stroke-width="1" opacity="1"/><line transform="translate(0,315)" x2="-5" y2="0" stroke="#888" stroke-width="1" opacity="1"/><line transform="translate(0,270)" x2="-5" y2="0" stroke="#888" stroke-width="1" opacity="1"/><line transform="translate(0,225)" x2="-5" y2="0" stroke="#888" stroke-width="1" opacity="1"/><line transform="translate(0,180)" x2="-5" y2="0" stroke="#888" stroke-width="1" opacity="1"/><line transform="translate(0,135)" x2="-5" y2="0" stroke="#888" stroke-width="1" opacity="1"/><line transform="translate(0,90)" x2="-5" y2="0" stroke="#888" stroke-width="1" opacity="1"/><line transform="translate(0,45)" x2="-5" y2="0" stroke="#888" stroke-width="1" opacity="1"/><line transform="translate(0,0)" x2="-5" y2="0" stroke="#888" stroke-width="1" opacity="1"/></g><g class="mark-text role-axis-label" pointer-events="none"><text text-anchor="end" transform="translate(-7,453)" font-family="sans-serif" font-size="10px" fill="#000" opacity="1">0.0</text><text text-anchor="end" transform="translate(-7,408)" font-family="sans-serif" font-size="10px" fill="#000" opacity="1">0.1</text><text text-anchor="end" transform="translate(-7,363)" font-family="sans-serif" font-size="10px" fill="#000" opacity="1">0.2</text><text text-anchor="end" transform="translate(-7,318)" font-family="sans-serif" font-size="10px" fill="#000" opacity="1">0.3</text><text text-anchor="end" transform="translate(-7,273)" font-family="sans-serif" font-size="10px" fill="#000" opacity="1">0.4</text><text text-anchor="end" transform="translate(-7,228)" font-family="sans-serif" font-size="10px" fill="#000" opacity="1">0.5</text><text text-anchor="end" transform="translate(-7,183)" font-family="sans-serif" font-size="10px" fill="#000" opacity="1">0.6</text><text text-anchor="end" transform="translate(-7,138.00000000000003)" font-family="sans-serif" font-size="10px" fill="#000" opacity="1">0.7</text><text text-anchor="end" transform="translate(-7,92.99999999999999)" font-family="sans-serif" font-size="10px" fill="#000" opacity="1">0.8</text><text text-anchor="end" transform="translate(-7,47.99999999999999)" font-family="sans-serif" font-size="10px" fill="#000" opacity="1">0.9</text><text text-anchor="end" transform="translate(-7,3)" font-family="sans-serif" font-size="10px" fill="#000" opacity="1">1.0</text></g><g class="mark-rule role-axis-domain" pointer-events="none"><line transform="translate(0,450)" x2="0" y2="-450" stroke="#888" stroke-width="1" opacity="1"/></g><g class="mark-text role-axis-title" pointer-events="none"><text text-anchor="middle" transform="translate(-24.9013671875,225) rotate(-90) translate(0,-2)" font-family="sans-serif" font-size="11px" font-weight="bold" fill="#000" opacity="1">Adjusted p-value</text></g></g><path class="foreground" aria-hidden="true" d="" pointer-events="none" display="none"/></g></g><g class="mark-symbol role-mark marks" role="graphics-object" aria-roledescription="symbol mark container"><path aria-label="Codon site: 1; Adjusted p-value: 1; adjusted_p_value: 1; p-value: 1; adjusted p-value: 1" role="graphics-symbol" aria-roledescription="point" transform="translate(25.71428571428571,0)" d="M3.708,0A3.708,3.708,0,1,1,-3.708,0A3.708,3.708,0,1,1,3.708,0" stroke="rgb(246, 87, 63)" stroke-width="2" opacity="0.7"/><path aria-label="Codon site: 2; Adjusted p-value: 1; adjusted_p_value: 1; p-value: 0.666666666667; adjusted p-value: 1" role="graphics-symbol" aria-roledescription="point" transform="translate(51.42857142857142,0)" d="M3.708,0A3.708,3.708,0,1,1,-3.708,0A3.708,3.708,0,1,1,3.708,0" stroke="rgb(246, 87, 63)" stroke-width="2" opacity="0.7"/><path aria-label="Codon site: 3; Adjusted p-value: 1; adjusted_p_value: 1; p-value: 1; adjusted p-value: 1" role="graphics-symbol" aria-roledescription="point" transform="translate(77.14285714285714,0)" d="M3.708,0A3.708,3.708,0,1,1,-3.708,0A3.708,3.708,0,1,1,3.708,0" stroke="rgb(246, 87, 63)" stroke-width="2" opacity="0.7"/><path aria-label="Codon site: 4; Adjusted p-value: 1; adjusted_p_value: 1; p-value: 0.666666666667; adjusted p-value: 1" role="graphics-symbol" aria-roledescription="point" transform="translate(102.85714285714285,0)" d="M3.708,0A3.708,3.708,0,1,1,-3.708,0A3.708,3.708,0,1,1,3.708,0" stroke="rgb(246, 87, 63)" stroke-width="2" opacity="0.7"/><path aria-label="Codon site: 5; Adjusted p-value: 1; adjusted_p_value: 1; p-value: 1; adjusted p-value: 1" role="graphics-symbol" aria-roledescription="point" transform="translate(128.57142857142856,0)" d="M3.708,0A3.708,3.708,0,1,1,-3.708,0A3.708,3.708,0,1,1,3.708,0" stroke="rgb(246, 87, 63)" stroke-width="2" opacity="0.7"/><path aria-label="Codon site: 6; Adjusted p-value: 1; adjusted_p_value: 1; p-value: 0.666666666667; adjusted p-value: 1" role="graphics-symbol" aria-roledescription="point" transform="translate(154.28571428571428,0)" d="M3.708,0A3.708,3.708,0,1,1,-3.708,0A3.708,3.708,0,1,1,3.708,0" stroke="rgb(246, 87, 63)" stroke-width="2" opacity="0.7"/><path aria-label="Codon site: 7; Adjusted p-value: 1; adjusted_p_value: 1; p-value: 1; adjusted p-value: 1" role="graphics-symbol" aria-roledescription="point" transform="translate(180,0)" d="M3.708,0A3.708,3.708,0,1,1,-3.708,0A3.708,3.708,0,1,1,3.708,0" stroke="rgb(246, 87, 63)" stroke-width="2" opacity="0.7"/><path aria-label="Codon site: 8; Adjusted p-value: 1; adjusted_p_value: 1; p-value: 0.666666666667; adjusted p-value: 1" role="graphics-symbol" aria-roledescription="point" transform="translate(205.7142857142857,0)" d="M3.708,0A3.708,3.708,0,1,1,-3.708,0A3.708,3.708,0,1,1,3.708,0" stroke="rgb(246, 87, 63)" stroke-width="2" opacity="0.7"/><path aria-label="Codon site: 9; Adjusted p-value: 1; adjusted_p_value: 1; p-value: 1; adjusted p-value: 1" role="graphics-symbol" aria-roledescription="point" transform="translate(231.42857142857142,0)" d="M3.708,0A3.708,3.708,0,1,1,-3.708,0A3.708,3.708,0,1,1,3.708,0" stroke="rgb(246, 87, 63)" stroke-width="2" opacity="0.7"/><path aria-label="Codon site: 10; Adjusted p-value: 1; adjusted_p_value: 1; p-value: 1; adjusted p-value: 1" role="graphics-symbol" aria-roledescription="point" transform="translate(257.1428571428571,0)" d="M3.708,0A3.708,3.708,0,1,1,-3.708,0A3.708,3.708,0,1,1,3.708,0" stroke="rgb(246, 87, 63)" stroke-width="2" opacity="0.7"/><path aria-label="Codon site: 11; Adjusted p-value: 1; adjusted_p_value: 1; p-value: 1; adjusted p-value: 1" role="graphics-symbol" aria-roledescription="point" transform="translate(282.85714285714283,0)" d="M3.708,0A3.708,3.708,0,1,1,-3.708,0A3.708,3.708,0,1,1,3.708,0" stroke="rgb(246, 87, 63)" stroke-width="2" opacity="0.7"/><path aria-label="Codon site: 12; Adjusted p-value: 1; adjusted_p_value: 1; p-value: 1; adjusted p-value: 1" role="graphics-symbol" aria-roledescription="point" transform="translate(308.57142857142856,0)" d="M3.708,0A3.708,3.708,0,1,1,-3.708,0A3.708,3.708,0,1,1,3.708,0" stroke="rgb(246, 87, 63)" stroke-width="2" opacity="0.7"/><path aria-label="Codon site: 13; Adjusted p-value: 1; adjusted_p_value: 1; p-value: 0.666666666667; adjusted p-value: 1" role="graphics-symbol" aria-roledescription="point" transform="translate(334.2857142857143,0)" d="M3.708,0A3.708,3.708,0,1,1,-3.708,0A3.708,3.708,0,1,1,3.708,0" stroke="rgb(246, 87, 63)" stroke-width="2" opacity="0.7"/><path aria-label="Codon site: 14; Adjusted p-value: 1; adjusted_p_value: 1; p-value: 0.666666666667; adjusted p-value: 1" role="graphics-symbol" aria-roledescription="point" transform="translate(360,0)" d="M3.708,0A3.708,3.708,0,1,1,-3.708,0A3.708,3.708,0,1,1,3.708,0" stroke="rgb(246, 87, 63)" stroke-width="2" opacity="0.7"/><path aria-label="Codon site: 15; Adjusted p-value: 1; adjusted_p_value: 1; p-value: 1; adjusted p-value: 1" role="graphics-symbol" aria-roledescription="point" transform="translate(385.71428571428567,0)" d="M3.708,0A3.708,3.708,0,1,1,-3.708,0A3.708,3.708,0,1,1,3.708,0" stroke="rgb(246, 87, 63)" stroke-width="2" opacity="0.7"/><path aria-label="Codon site: 16; Adjusted p-value: 1; adjusted_p_value: 1; p-value: 1; adjusted p-value: 1" role="graphics-symbol" aria-roledescription="point" transform="translate(411.4285714285714,0)" d="M3.708,0A3.708,3.708,0,1,1,-3.708,0A3.708,3.708,0,1,1,3.708,0" stroke="rgb(246, 87, 63)" stroke-width="2" opacity="0.7"/><path aria-label="Codon site: 17; Adjusted p-value: 1; adjusted_p_value: 1; p-value: 1; adjusted p-value: 1" role="graphics-symbol" aria-roledescription="point" transform="translate(437.1428571428571,0)" d="M3.708,0A3.708,3.708,0,1,1,-3.708,0A3.708,3.708,0,1,1,3.708,0" stroke="rgb(246, 87, 63)" stroke-width="2" opacity="0.7"/><path aria-label="Codon site: 18; Adjusted p-value: 1; adjusted_p_value: 1; p-value: 1; adjusted p-value: 1" role="graphics-symbol" aria-roledescription="point" transform="translate(462.85714285714283,0)" d="M3.708,0A3.708,3.708,0,1,1,-3.708,0A3.708,3.708,0,1,1,3.708,0" stroke="rgb(246, 87, 63)" stroke-width="2" opacity="0.7"/><path aria-label="Codon site: 19; Adjusted p-value: 1; adjusted_p_value: 1; p-value: 0.666666666667; adjusted p-value: 1" role="graphics-symbol" aria-roledescription="point" transform="translate(488.57142857142856,0)" d="M3.708,0A3.708,3.708,0,1,1,-3.708,0A3.708,3.708,0,1,1,3.708,0" stroke="rgb(246, 87, 63)" stroke-width="2" opacity="0.7"/><path aria-label="Codon site: 20; Adjusted p-value: 1; adjusted_p_value: 1; p-value: 1; adjusted p-value: 1" role="graphics-symbol" aria-roledescription="point" transform="translate(514.2857142857142,0)" d="M3.708,0A3.708,3.708,0,1,1,-3.708,0A3.708,3.708,0,1,1,3.708,0" stroke="rgb(246, 87, 63)" stroke-width="2" opacity="0.7"/><path aria-label="Codon site: 21; Adjusted p-value: 1; adjusted_p_value: 1; p-value: 0.666666666667; adjusted p-value: 1" role="graphics-symbol" aria-roledescription="point" transform="translate(540,0)" d="M3.708,0A3.708,3.708,0,1,1,-3.708,0A3.708,3.708,0,1,1,3.708,0" stroke="rgb(246, 87, 63)" stroke-width="2" opacity="0.7"/><path aria-label="Codon site: 22; Adjusted p-value: 1; adjusted_p_value: 1; p-value: 0.666666666667; adjusted p-value: 1" role="graphics-symbol" aria-roledescription="point" transform="translate(565.7142857142857,0)" d="M3.708,0A3.708,3.708,0,1,1,-3.708,0A3.708,3.708,0,1,1,3.708,0" stroke="rgb(246, 87, 63)" stroke-width="2" opacity="0.7"/><path aria-label="Codon site: 23; Adjusted p-value: 1; adjusted_p_value: 1; p-value: 1; adjusted p-value: 1" role="graphics-symbol" aria-roledescription="point" transform="translate(591.4285714285714,0)" d="M3.708,0A3.708,3.708,0,1,1,-3.708,0A3.708,3.708,0,1,1,3.708,0" stroke="rgb(246, 87, 63)" stroke-width="2" opacity="0.7"/><path aria-label="Codon site: 24; Adjusted p-value: 1; adjusted_p_value: 1; p-value: 1; adjusted p-value: 1" role="graphics-symbol" aria-roledescription="point" transform="translate(617.1428571428571,0)" d="M3.708,0A3.708,3.708,0,1,1,-3.708,0A3.708,3.708,0,1,1,3.708,0" stroke="rgb(246, 87, 63)" stroke-width="2" opacity="0.7"/><path aria-label="Codon site: 25; Adjusted p-value: 1; adjusted_p_value: 1; p-value: 0.666666666667; adjusted p-value: 1" role="graphics-symbol" aria-roledescription="point" transform="translate(642.8571428571429,0)" d="M3.708,0A3.708,3.708,0,1,1,-3.708,0A3.708,3.708,0,1,1,3.708,0" stroke="rgb(246, 87, 63)" stroke-width="2" opacity="0.7"/><path aria-label="Codon site: 26; Adjusted p-value: 1; adjusted_p_value: 1; p-value: 0.666666666667; adjusted p-value: 1" role="graphics-symbol" aria-roledescription="point" transform="translate(668.5714285714286,0)" d="M3.708,0A3.708,3.708,0,1,1,-3.708,0A3.708,3.708,0,1,1,3.708,0" stroke="rgb(246, 87, 63)" stroke-width="2" opacity="0.7"/><path aria-label="Codon site: 27; Adjusted p-value: 1; adjusted_p_value: 1; p-value: 0.666666666667; adjusted p-value: 1" role="graphics-symbol" aria-roledescription="point" transform="translate(694.2857142857143,0)" d="M3.708,0A3.708,3.708,0,1,1,-3.708,0A3.708,3.708,0,1,1,3.708,0" stroke="rgb(246, 87, 63)" stroke-width="2" opacity="0.7"/><path aria-label="Codon site: 28; Adjusted p-value: 1; adjusted_p_value: 1; p-value: 0.666666666667; adjusted p-value: 1" role="graphics-symbol" aria-roledescription="point" transform="translate(720,0)" d="M3.708,0A3.708,3.708,0,1,1,-3.708,0A3.708,3.708,0,1,1,3.708,0" stroke="rgb(246, 87, 63)" stroke-width="2" opacity="0.7"/><path aria-label="Codon site: 29; Adjusted p-value: 1; adjusted_p_value: 1; p-value: 1; adjusted p-value: 1" role="graphics-symbol" aria-roledescription="point" transform="translate(745.7142857142858,0)" d="M3.708,0A3.708,3.708,0,1,1,-3.708,0A3.708,3.708,0,1,1,3.708,0" stroke="rgb(246, 87, 63)" stroke-width="2" opacity="0.7"/><path aria-label="Codon site: 30; Adjusted p-value: 1; adjusted_p_value: 1; p-value: 0.666666666667; adjusted p-value: 1" role="graphics-symbol" aria-roledescription="point" transform="translate(771.4285714285713,0)" d="M3.708,0A3.708,3.708,0,1,1,-3.708,0A3.708,3.708,0,1,1,3.708,0" stroke="rgb(246, 87, 63)" stroke-width="2" opacity="0.7"/><path aria-label="Codon site: 31; Adjusted p-value: 1; adjusted_p_value: 1; p-value: 1; adjusted p-value: 1" role="graphics-symbol" aria-roledescription="point" transform="translate(797.1428571428571,0)" d="M3.708,0A3.708,3.708,0,1,1,-3.708,0A3.708,3.708,0,1,1,3.708,0" stroke="rgb(246, 87, 63)" stroke-width="2" opacity="0.7"/><path aria-label="Codon site: 32; Adjusted p-value: 1; adjusted_p_value: 1; p-value: 0.658209474939; adjusted p-value: 1" role="graphics-symbol" aria-roledescription="point" transform="translate(822.8571428571428,0)" d="M3.708,0A3.708,3.708,0,1,1,-3.708,0A3.708,3.708,0,1,1,3.708,0" stroke="rgb(246, 87, 63)" stroke-width="2" opacity="0.7"/><path aria-label="Codon site: 33; Adjusted p-value: 1; adjusted_p_value: 1; p-value: 0.666666666667; adjusted p-value: 1" role="graphics-symbol" aria-roledescription="point" transform="translate(848.5714285714286,0)" d="M3.708,0A3.708,3.708,0,1,1,-3.708,0A3.708,3.708,0,1,1,3.708,0" stroke="rgb(246, 87, 63)" stroke-width="2" opacity="0.7"/><path aria-label="Codon site: 34; Adjusted p-value: 1; adjusted_p_value: 1; p-value: 0.0652464706493; adjusted p-value: 1" role="graphics-symbol" aria-roledescription="point" transform="translate(874.2857142857142,0)" d="M3.708,0A3.708,3.708,0,1,1,-3.708,0A3.708,3.708,0,1,1,3.708,0" stroke="rgb(246, 87, 63)" stroke-width="2" opacity="0.7"/><path aria-label="Codon site: 35; Adjusted p-value: 1; adjusted_p_value: 1; p-value: 0.666666666667; adjusted p-value: 1" role="graphics-symbol" aria-roledescription="point" transform="translate(900,0)" d="M3.708,0A3.708,3.708,0,1,1,-3.708,0A3.708,3.708,0,1,1,3.708,0" stroke="rgb(246, 87, 63)" stroke-width="2" opacity="0.7"/></g><g class="mark-group role-legend" role="graphics-symbol" aria-roledescription="legend" aria-label="Gradient legend titled 'adjusted_p_value' for stroke color with values from 1 to 1"><g transform="translate(918,0)"><path class="background" aria-hidden="true" d="M0,0h93v216h-93Z" pointer-events="none"/><g><g class="mark-group role-legend-entry"><g transform="translate(0,16)"><path class="background" aria-hidden="true" d="M0,0h0v0h0Z" pointer-events="none"/><g><g class="mark-rect role-legend-gradient" pointer-events="none"><path d="M0,0h16v200h-16Z" fill="url(#gradient_0)" stroke="#ddd" stroke-width="0" opacity="0.7"/></g><g class="mark-text role-legend-label" pointer-events="none"><text text-anchor="start" transform="translate(18,103)" font-family="sans-serif" font-size="10px" fill="#000" opacity="1">1</text></g></g><path class="foreground" aria-hidden="true" d="" pointer-events="none" display="none"/></g></g><g class="mark-text role-legend-title" pointer-events="none"><text text-anchor="start" transform="translate(0,9)" font-family="sans-serif" font-size="11px" font-weight="bold" fill="#000" opacity="1">adjusted_p_value</text></g></g><path class="foreground" aria-hidden="true" d="" pointer-events="none" display="none"/></g></g><g class="mark-group role-title"><g transform="translate(450,-22.70809924354783)"><path class="background" aria-hidden="true" d="M0,0h0v0h0Z" pointer-events="none"/><g><g class="mark-text role-title-text" role="graphics-symbol" aria-roledescription="title" aria-label="Title text 'MEME: BDNF-64 part 3'" pointer-events="none"><text text-anchor="middle" transform="translate(0,10)" font-family="sans-serif" font-size="13px" font-weight="bold" fill="#000" opacity="1">MEME: BDNF-64 part 3</text></g></g><path class="foreground" aria-hidden="true" d="" pointer-events="none" display="none"/></g></g></g><path class="foreground" aria-hidden="true" d="" display="none"/></g></g></g><defs><linearGradient id="gradient_0" x1="0" x2="0" y1="1" y2="0"><stop offset="0" stop-color="rgb(151, 11, 19)"/><stop offset="0.05" stop-color="rgb(165, 15, 22)"/><stop offset="0.1" stop-color="rgb(178, 18, 24)"/><stop offset="0.15" stop-color="rgb(189, 23, 27)"/><stop offset="0.2" stop-color="rgb(200, 27, 29)"/><stop offset="0.25" stop-color="rgb(210, 35, 33)"/><stop offset="0.3" stop-color="rgb(220, 42, 37)"/><stop offset="0.35" stop-color="rgb(228, 53, 42)"/><stop offset="0.4" stop-color="rgb(236, 63, 47)"/><stop offset="0.45" stop-color="rgb(241, 75, 55)"/><stop offset="0.5" stop-color="rgb(246, 87, 63)"/><stop offset="0.55" stop-color="rgb(248, 100, 72)"/><stop offset="0.6" stop-color="rgb(250, 112, 81)"/><stop offset="0.65" stop-color="rgb(251, 124, 92)"/><stop offset="0.7" stop-color="rgb(252, 135, 103)"/><stop offset="0.75" stop-color="rgb(252, 147, 116)"/><stop offset="0.8" stop-color="rgb(252, 158, 128)"/><stop offset="0.85" stop-color="rgb(252, 169, 141)"/><stop offset="0.9" stop-color="rgb(252, 180, 154)"/><stop offset="0.95" stop-color="rgb(253, 191, 167)"/><stop offset="1" stop-color="rgb(253, 201, 180)"/></linearGradient></defs></svg>