<svg xmlns="http://www.w3.org/2000/svg" xmlns:xlink="http://www.w3.org/1999/xlink" version="1.1" class="marks" width="1057" height="515" viewBox="0 0 1057 515"><rect width="1057" height="515" fill="white"/><g fill="none" stroke-miterlimit="10" transform="translate(41,28)"><g class="mark-group role-frame root" role="graphics-object" aria-roledescription="group mark container"><g transform="translate(0,0)"><path class="background" aria-hidden="true" d="M0.5,0.5h900v450h-900Z" stroke="#ddd"/><g><g class="mark-group role-axis" aria-hidden="true"><g transform="translate(0.5,450.5)"><path class="background" aria-hidden="true" d="M0,0h0v0h0Z" pointer-events="none"/><g><g class="mark-rule role-axis-grid" pointer-events="none"><line transform="translate(0,-450)" x2="0" y2="450" stroke="#ddd" stroke-width="1" opacity="1"/><line transform="translate(28,-450)" x2="0" y2="450" stroke="#ddd" stroke-width="1" opacity="1"/><line transform="translate(56,-450)" x2="0" y2="450" stroke="#ddd" stroke-width="1" opacity="1"/><line transform="translate(84,-450)" x2="0" y2="450" stroke="#ddd" stroke-width="1" opacity="1"/><line transform="translate(113,-450)" x2="0" y2="450" stroke="#ddd" stroke-width="1" opacity="1"/><line transform="translate(141,-450)" x2="0" y2="450" stroke="#ddd" stroke-width="1" opacity="1"/><line transform="translate(169,-450)" x2="0" y2="450" stroke="#ddd" stroke-width="1" opacity="1"/><line transform="translate(197,-450)" x2="0" y2="450" stroke="#ddd" stroke-width="1" opacity="1"/><line transform="translate(225,-450)" x2="0" y2="450" stroke="#ddd" stroke-width="1" opacity="1"/><line transform="translate(253,-450)" x2="0" y2="450" stroke="#ddd" stroke-width="1" opacity="1"/><line transform="translate(281,-450)" x2="0" y2="450" stroke="#ddd" stroke-width="1" opacity="1"/><line transform="translate(309,-450)" x2="0" y2="450" stroke="#ddd" stroke-width="1" opacity="1"/><line transform="translate(338,-450)" x2="0" y2="450" stroke="#ddd" stroke-width="1" opacity="1"/><line transform="translate(366,-450)" x2="0" y2="450" stroke="#ddd" stroke-width="1" opacity="1"/><line transform="translate(394,-450)" x2="0" y2="450" stroke="#ddd" stroke-width="1" opacity="1"/><line transform="translate(422,-450)" x2="0" y2="450" stroke="#ddd" stroke-width="1" opacity="1"/><line transform="translate(450,-450)" x2="0" y2="450" stroke="#ddd" stroke-width="1" opacity="1"/><line transform="translate(478,-450)" x2="0" y2="450" stroke="#ddd" stroke-width="1" opacity="1"/><line transform="translate(506,-450)" x2="0" y2="450" stroke="#ddd" stroke-width="1" opacity="1"/><line transform="translate(534,-450)" x2="0" y2="450" stroke="#ddd" stroke-width="1" opacity="1"/><line transform="translate(563,-450)" x2="0" y2="450" stroke="#ddd" stroke-width="1" opacity="1"/><line transform="translate(591,-450)" x2="0" y2="450" stroke="#ddd" stroke-width="1" opacity="1"/><line transform="translate(619,-450)" x2="0" y2="450" stroke="#ddd" stroke-width="1" opacity="1"/><line transform="translate(647,-450)" x2="0" y2="450" stroke="#ddd" stroke-width="1" opacity="1"/><line transform="translate(675,-450)" x2="0" y2="450" stroke="#ddd" stroke-width="1" opacity="1"/><line transform="translate(703,-450)" x2="0" y2="450" stroke="#ddd" stroke-width="1" opacity="1"/><line transform="translate(731,-450)" x2="0" y2="450" stroke="#ddd" stroke-width="1" opacity="1"/><line transform="translate(759,-450)" x2="0" y2="450" stroke="#ddd" stroke-width="1" opacity="1"/><line transform="translate(788,-450)" x2="0" y2="450" stroke="#ddd" stroke-width="1" opacity="1"/><line transform="translate(816,-450)" x2="0" y2="450" stroke="#ddd" stroke-width="1" opacity="1"/><line transform="translate(844,-450)" x2="0" y2="450" stroke="#ddd" stroke-width="1" opacity="1"/><line transform="translate(872,-450)" x2="0" y2="450" stroke="#ddd" stroke-width="1" opacity="1"/><line transform="translate(900,-450)" x2="0" y2="450" stroke="#ddd" stroke-width="1" opacity="1"/></g></g><path class="foreground" aria-hidden="true" d="" pointer-events="none" display="none"/></g></g><g class="mark-group role-axis" aria-hidden="true"><g transform="translate(0.5,0.5)"><path class="background" aria-hidden="true" d="M0,0h0v0h0Z" pointer-events="none"/><g><g class="mark-rule role-axis-grid" pointer-events="none"><line transform="translate(0,450)" x2="900" y2="0" stroke="#ddd" stroke-width="1" opacity="1"/><line transform="translate(0,405)" x2="900" y2="0" stroke="#ddd" stroke-width="1" opacity="1"/><line transform="translate(0,360)" x2="900" y2="0" stroke="#ddd" stroke-width="1" opacity="1"/><line transform="translate(0,315)" x2="900" y2="0" stroke="#ddd" stroke-width="1" opacity="1"/><line transform="translate(0,270)" x2="900" y2="0" stroke="#ddd" stroke-width="1" opacity="1"/><line transform="translate(0,225)" x2="900" y2="0" stroke="#ddd" stroke-width="1" opacity="1"/><line transform="translate(0,180)" x2="900" y2="0" stroke="#ddd" stroke-width="1" opacity="1"/><line transform="translate(0,135)" x2="900" y2="0" stroke="#ddd" stroke-width="1" opacity="1"/><line transform="translate(0,90)" x2="900" y2="0" stroke="#ddd" stroke-width="1" opacity="1"/><line transform="translate(0,45)" x2="900" y2="0" stroke="#ddd" stroke-width="1" opacity="1"/><line transform="translate(0,0)" x2="900" y2="0" stroke="#ddd" stroke-width="1" opacity="1"/></g></g><path class="foreground" aria-hidden="true" d="" pointer-events="none" display="none"/></g></g><g class="mark-group role-axis" role="graphics-symbol" aria-roledescription="axis" aria-label="X-axis titled 'Codon site' for a linear scale with values from 0 to 16"><g transform="translate(0.5,450.5)"><path class="background" aria-hidden="true" d="M0,0h0v0h0Z" pointer-events="none"/><g><g class="mark-rule role-axis-tick" pointer-events="none"><line transform="translate(0,0)" x2="0" y2="5" stroke="#888" stroke-width="1" opacity="1"/><line transform="translate(28,0)" x2="0" y2="5" stroke="#888" stroke-width="1" opacity="1"/><line transform="translate(56,0)" x2="0" y2="5" stroke="#888" stroke-width="1" opacity="1"/><line transform="translate(84,0)" x2="0" y2="5" stroke="#888" stroke-width="1" opacity="1"/><line transform="translate(113,0)" x2="0" y2="5" stroke="#888" stroke-width="1" opacity="1"/><line transform="translate(141,0)" x2="0" y2="5" stroke="#888" stroke-width="1" opacity="1"/><line transform="translate(169,0)" x2="0" y2="5" stroke="#888" stroke-width="1" opacity="1"/><line transform="translate(197,0)" x2="0" y2="5" stroke="#888" stroke-width="1" opacity="1"/><line transform="translate(225,0)" x2="0" y2="5" stroke="#888" stroke-width="1" opacity="1"/><line transform="translate(253,0)" x2="0" y2="5" stroke="#888" stroke-width="1" opacity="1"/><line transform="translate(281,0)" x2="0" y2="5" stroke="#888" stroke-width="1" opacity="1"/><line transform="translate(309,0)" x2="0" y2="5" stroke="#888" stroke-width="1" opacity="1"/><line transform="translate(338,0)" x2="0" y2="5" stroke="#888" stroke-width="1" opacity="1"/><line transform="translate(366,0)" x2="0" y2="5" stroke="#888" stroke-width="1" opacity="1"/><line transform="translate(394,0)" x2="0" y2="5" stroke="#888" stroke-width="1" opacity="1"/><line transform="translate(422,0)" x2="0" y2="5" stroke="#888" stroke-width="1" opacity="1"/><line transform="translate(450,0)" x2="0" y2="5" stroke="#888" stroke-width="1" opacity="1"/><line transform="translate(478,0)" x2="0" y2="5" stroke="#888" stroke-width="1" opacity="1"/><line transform="translate(506,0)" x2="0" y2="5" stroke="#888" stroke-width="1" opacity="1"/><line transform="translate(534,0)" x2="0" y2="5" stroke="#888" stroke-width="1" opacity="1"/><line transform="translate(563,0)" x2="0" y2="5" stroke="#888" stroke-width="1" opacity="1"/><line transform="translate(591,0)" x2="0" y2="5" stroke="#888" stroke-width="1" opacity="1"/><line transform="translate(619,0)" x2="0" y2="5" stroke="#888" stroke-width="1" opacity="1"/><line transform="translate(647,0)" x2="0" y2="5" stroke="#888" stroke-width="1" opacity="1"/><line transform="translate(675,0)" x2="0" y2="5" stroke="#888" stroke-width="1" opacity="1"/><line transform="translate(703,0)" x2="0" y2="5" stroke="#888" stroke-width="1" opacity="1"/><line transform="translate(731,0)" x2="0" y2="5" stroke="#888" stroke-width="1" opacity="1"/><line transform="translate(759,0)" x2="0" y2="5" stroke="#888" stroke-width="1" opacity="1"/><line transform="translate(788,0)" x2="0" y2="5" stroke="#888" stroke-width="1" opacity="1"/><line transform="translate(816,0)" x2="0" y2="5" stroke="#888" stroke-width="1" opacity="1"/><line transform="translate(844,0)" x2="0" y2="5" stroke="#888" stroke-width="1" opacity="1"/><line transform="translate(872,0)" x2="0" y2="5" stroke="#888" stroke-width="1" opacity="1"/><line transform="translate(900,0)" x2="0" y2="5" stroke="#888" stroke-width="1" opacity="1"/></g><g class="mark-text role-axis-label" pointer-events="none"><text text-anchor="start" transform="translate(0,15)" font-family="sans-serif" font-size="10px" fill="#000" opacity="1">0.0</text><text text-anchor="middle" transform="translate(28.125,15)" font-family="sans-serif" font-size="10px" fill="#000" opacity="0">0.5</text><text text-anchor="middle" transform="translate(56.25,15)" font-family="sans-serif" font-size="10px" fill="#000" opacity="1">1.0</text><text text-anchor="middle" transform="translate(84.375,15)" font-family="sans-serif" font-size="10px" fill="#000" opacity="0">1.5</text><text text-anchor="middle" transform="translate(112.5,15)" font-family="sans-serif" font-size="10px" fill="#000" opacity="1">2.0</text><text text-anchor="middle" transform="translate(140.625,15)" font-family="sans-serif" font-size="10px" fill="#000" opacity="0">2.5</text><text text-anchor="middle" transform="translate(168.75,15)" font-family="sans-serif" font-size="10px" fill="#000" opacity="1">3.0</text><text text-anchor="middle" transform="translate(196.875,15)" font-family="sans-serif" font-size="10px" fill="#000" opacity="0">3.5</text><text text-anchor="middle" transform="translate(225,15)" font-family="sans-serif" font-size="10px" fill="#000" opacity="1">4.0</text><text text-anchor="middle" transform="translate(253.125,15)" font-family="sans-serif" font-size="10px" fill="#000" opacity="0">4.5</text><text text-anchor="middle" transform="translate(281.25,15)" font-family="sans-serif" font-size="10px" fill="#000" opacity="1">5.0</text><text text-anchor="middle" transform="translate(309.375,15)" font-family="sans-serif" font-size="10px" fill="#000" opacity="0">5.5</text><text text-anchor="middle" transform="translate(337.5,15)" font-family="sans-serif" font-size="10px" fill="#000" opacity="1">6.0</text><text text-anchor="middle" transform="translate(365.625,15)" font-family="sans-serif" font-size="10px" fill="#000" opacity="0">6.5</text><text text-anchor="middle" transform="translate(393.75,15)" font-family="sans-serif" font-size="10px" fill="#000" opacity="1">7.0</text><text text-anchor="middle" transform="translate(421.875,15)" font-family="sans-serif" font-size="10px" fill="#000" opacity="0">7.5</text><text text-anchor="middle" transform="translate(450,15)" font-family="sans-serif" font-size="10px" fill="#000" opacity="1">8.0</text><text text-anchor="middle" transform="translate(478.125,15)" font-family="sans-serif" font-size="10px" fill="#000" opacity="0">8.5</text><text text-anchor="middle" transform="translate(506.25,15)" font-family="sans-serif" font-size="10px" fill="#000" opacity="1">9.0</text><text text-anchor="middle" transform="translate(534.375,15)" font-family="sans-serif" font-size="10px" fill="#000" opacity="0">9.5</text><text text-anchor="middle" transform="translate(562.5,15)" font-family="sans-serif" font-size="10px" fill="#000" opacity="1">10.0</text><text text-anchor="middle" transform="translate(590.625,15)" font-family="sans-serif" font-size="10px" fill="#000" opacity="0">10.5</text><text text-anchor="middle" transform="translate(618.75,15)" font-family="sans-serif" font-size="10px" fill="#000" opacity="1">11.0</text><text text-anchor="middle" transform="translate(646.875,15)" font-family="sans-serif" font-size="10px" fill="#000" opacity="0">11.5</text><text text-anchor="middle" transform="translate(675,15)" font-family="sans-serif" font-size="10px" fill="#000" opacity="1">12.0</text><text text-anchor="middle" transform="translate(703.125,15)" font-family="sans-serif" font-size="10px" fill="#000" opacity="0">12.5</text><text text-anchor="middle" transform="translate(731.25,15)" font-family="sans-serif" font-size="10px" fill="#000" opacity="1">13.0</text><text text-anchor="middle" transform="translate(759.375,15)" font-family="sans-serif" font-size="10px" fill="#000" opacity="0">13.5</text><text text-anchor="middle" transform="translate(787.5,15)" font-family="sans-serif" font-size="10px" fill="#000" opacity="1">14.0</text><text text-anchor="middle" transform="translate(815.625,15)" font-family="sans-serif" font-size="10px" fill="#000" opacity="0">14.5</text><text text-anchor="middle" transform="translate(843.75,15)" font-family="sans-serif" font-size="10px" fill="#000" opacity="1">15.0</text><text text-anchor="middle" transform="translate(871.875,15)" font-family="sans-serif" font-size="10px" fill="#000" opacity="0">15.5</text><text text-anchor="end" transform="translate(900,15)" font-family="sans-serif" font-size="10px" fill="#000" opacity="1">16.0</text></g><g class="mark-rule role-axis-domain" pointer-events="none"><line transform="translate(0,0)" x2="900" y2="0" stroke="#888" stroke-width="1" opacity="1"/></g><g class="mark-text role-axis-title" pointer-events="none"><text text-anchor="middle" transform="translate(450,30)" font-family="sans-serif" font-size="11px" font-weight="bold" fill="#000" opacity="1">Codon site</text></g></g><path class="foreground" aria-hidden="true" d="" pointer-events="none" display="none"/></g></g><g class="mark-group role-axis" role="graphics-symbol" aria-roledescription="axis" aria-label="Y-axis titled 'Adjusted p-value' for a linear scale with values from 0.0 to 1.0"><g transform="translate(0.5,0.5)"><path class="background" aria-hidden="true" d="M0,0h0v0h0Z" pointer-events="none"/><g><g class="mark-rule role-axis-tick" pointer-events="none"><line transform="translate(0,450)" x2="-5" y2="0" stroke="#888" stroke-width="1" opacity="1"/><line transform="translate(0,405)" x2="-5" y2="0" stroke="#888" stroke-width="1" opacity="1"/><line transform="translate(0,360)" x2="-5" y2="0" stroke="#888" stroke-width="1" opacity="1"/><line transform="translate(0,315)" x2="-5" y2="0" stroke="#888" stroke-width="1" opacity="1"/><line transform="translate(0,270)" x2="-5" y2="0" stroke="#888" stroke-width="1" opacity="1"/><line transform="translate(0,225)" x2="-5" y2="0" stroke="#888" stroke-width="1" opacity="1"/><line transform="translate(0,180)" x2="-5" y2="0" stroke="#888" stroke-width="1" opacity="1"/><line transform="translate(0,135)" x2="-5" y2="0" stroke="#888" stroke-width="1" opacity="1"/><line transform="translate(0,90)" x2="-5" y2="0" stroke="#888" stroke-width="1" opacity="1"/><line transform="translate(0,45)" x2="-5" y2="0" stroke="#888" stroke-width="1" opacity="1"/><line transform="translate(0,0)" x2="-5" y2="0" stroke="#888" stroke-width="1" opacity="1"/></g><g class="mark-text role-axis-label" pointer-events="none"><text text-anchor="end" transform="translate(-7,453)" font-family="sans-serif" font-size="10px" fill="#000" opacity="1">0.0</text><text text-anchor="end" transform="translate(-7,408)" font-family="sans-serif" font-size="10px" fill="#000" opacity="1">0.1</text><text text-anchor="end" transform="translate(-7,363)" font-family="sans-serif" font-size="10px" fill="#000" opacity="1">0.2</text><text text-anchor="end" transform="translate(-7,318)" font-family="sans-serif" font-size="10px" fill="#000" opacity="1">0.3</text><text text-anchor="end" transform="translate(-7,273)" font-family="sans-serif" font-size="10px" fill="#000" opacity="1">0.4</text><text text-anchor="end" transform="translate(-7,228)" font-family="sans-serif" font-size="10px" fill="#000" opacity="1">0.5</text><text text-anchor="end" transform="translate(-7,183)" font-family="sans-serif" font-size="10px" fill="#000" opacity="1">0.6</text><text text-anchor="end" transform="translate(-7,138.00000000000003)" font-family="sans-serif" font-size="10px" fill="#000" opacity="1">0.7</text><text text-anchor="end" transform="translate(-7,92.99999999999999)" font-family="sans-serif" font-size="10px" fill="#000" opacity="1">0.8</text><text text-anchor="end" transform="translate(-7,47.99999999999999)" font-family="sans-serif" font-size="10px" fill="#000" opacity="1">0.9</text><text text-anchor="end" transform="translate(-7,3)" font-family="sans-serif" font-size="10px" fill="#000" opacity="1">1.0</text></g><g class="mark-rule role-axis-domain" pointer-events="none"><line transform="translate(0,450)" x2="0" y2="-450" stroke="#888" stroke-width="1" opacity="1"/></g><g class="mark-text role-axis-title" pointer-events="none"><text text-anchor="middle" transform="translate(-24.9013671875,225) rotate(-90) translate(0,-2)" font-family="sans-serif" font-size="11px" font-weight="bold" fill="#000" opacity="1">Adjusted p-value</text></g></g><path class="foreground" aria-hidden="true" d="" pointer-events="none" display="none"/></g></g><g class="mark-symbol role-mark marks" role="graphics-object" aria-roledescription="symbol mark container"><path aria-label="Codon site: 1; Adjusted p-value: 1; adjusted_p_value: 1; p-value: 1; adjusted p-value: 1" role="graphics-symbol" aria-roledescription="point" transform="translate(56.25,0)" d="M3.708,0A3.708,3.708,0,1,1,-3.708,0A3.708,3.708,0,1,1,3.708,0" stroke="rgb(253, 201, 180)" stroke-width="2" opacity="0.7"/><path aria-label="Codon site: 2; Adjusted p-value: 0.714285714286; adjusted_p_value: 0.714285714286; p-value: 0.665207804504; adjusted p-value: 0.714285714286" role="graphics-symbol" aria-roledescription="point" transform="translate(112.5,128.5714285714286)" d="M3.708,0A3.708,3.708,0,1,1,-3.708,0A3.708,3.708,0,1,1,3.708,0" stroke="rgb(251, 119, 88)" stroke-width="2" opacity="0.7"/><path aria-label="Codon site: 3; Adjusted p-value: 0.226050594703; adjusted_p_value: 0.226050594703; p-value: 0.0290957972014; adjusted p-value: 0.226050594703" role="graphics-symbol" aria-roledescription="point" transform="translate(168.75,348.2772323837993)" d="M3.708,0A3.708,3.708,0,1,1,-3.708,0A3.708,3.708,0,1,1,3.708,0" stroke="rgb(151, 11, 19)" stroke-width="2" opacity="0.7"/><path aria-label="Codon site: 4; Adjusted p-value: 0.714285714286; adjusted_p_value: 0.714285714286; p-value: 0.666666666667; adjusted p-value: 0.714285714286" role="graphics-symbol" aria-roledescription="point" transform="translate(225,128.5714285714286)" d="M3.708,0A3.708,3.708,0,1,1,-3.708,0A3.708,3.708,0,1,1,3.708,0" stroke="rgb(251, 119, 88)" stroke-width="2" opacity="0.7"/><path aria-label="Codon site: 5; Adjusted p-value: 0.714285714286; adjusted_p_value: 0.714285714286; p-value: 0.432346527573; adjusted p-value: 0.714285714286" role="graphics-symbol" aria-roledescription="point" transform="translate(281.25,128.5714285714286)" d="M3.708,0A3.708,3.708,0,1,1,-3.708,0A3.708,3.708,0,1,1,3.708,0" stroke="rgb(251, 119, 88)" stroke-width="2" opacity="0.7"/><path aria-label="Codon site: 6; Adjusted p-value: 0.714285714286; adjusted_p_value: 0.714285714286; p-value: 0.666666666667; adjusted p-value: 0.714285714286" role="graphics-symbol" aria-roledescription="point" transform="translate(337.5,128.5714285714286)" d="M3.708,0A3.708,3.708,0,1,1,-3.708,0A3.708,3.708,0,1,1,3.708,0" stroke="rgb(251, 119, 88)" stroke-width="2" opacity="0.7"/><path aria-label="Codon site: 7; Adjusted p-value: 0.714285714286; adjusted_p_value: 0.714285714286; p-value: 0.469293687952; adjusted p-value: 0.714285714286" role="graphics-symbol" aria-roledescription="point" transform="translate(393.75,128.5714285714286)" d="M3.708,0A3.708,3.708,0,1,1,-3.708,0A3.708,3.708,0,1,1,3.708,0" stroke="rgb(251, 119, 88)" stroke-width="2" opacity="0.7"/><path aria-label="Codon site: 8; Adjusted p-value: 0.714285714286; adjusted_p_value: 0.714285714286; p-value: 0.350089520868; adjusted p-value: 0.714285714286" role="graphics-symbol" aria-roledescription="point" transform="translate(450,128.5714285714286)" d="M3.708,0A3.708,3.708,0,1,1,-3.708,0A3.708,3.708,0,1,1,3.708,0" stroke="rgb(251, 119, 88)" stroke-width="2" opacity="0.7"/><path aria-label="Codon site: 9; Adjusted p-value: 0.714285714286; adjusted_p_value: 0.714285714286; p-value: 0.666666666667; adjusted p-value: 0.714285714286" role="graphics-symbol" aria-roledescription="point" transform="translate(506.25,128.5714285714286)" d="M3.708,0A3.708,3.708,0,1,1,-3.708,0A3.708,3.708,0,1,1,3.708,0" stroke="rgb(251, 119, 88)" stroke-width="2" opacity="0.7"/><path aria-label="Codon site: 10; Adjusted p-value: 0.532914706955; adjusted_p_value: 0.532914706955; p-value: 0.177638235652; adjusted p-value: 0.532914706955" role="graphics-symbol" aria-roledescription="point" transform="translate(562.5,210.18838187040137)" d="M3.708,0A3.708,3.708,0,1,1,-3.708,0A3.708,3.708,0,1,1,3.708,0" stroke="rgb(235, 62, 47)" stroke-width="2" opacity="0.7"/><path aria-label="Codon site: 11; Adjusted p-value: 0.714285714286; adjusted_p_value: 0.714285714286; p-value: 0.666666666667; adjusted p-value: 0.714285714286" role="graphics-symbol" aria-roledescription="point" transform="translate(618.75,128.5714285714286)" d="M3.708,0A3.708,3.708,0,1,1,-3.708,0A3.708,3.708,0,1,1,3.708,0" stroke="rgb(251, 119, 88)" stroke-width="2" opacity="0.7"/><path aria-label="Codon site: 12; Adjusted p-value: 0.449739821987; adjusted_p_value: 0.449739821987; p-value: 0.0899479643974; adjusted p-value: 0.449739821987" role="graphics-symbol" aria-roledescription="point" transform="translate(675,247.61708010578243)" d="M3.708,0A3.708,3.708,0,1,1,-3.708,0A3.708,3.708,0,1,1,3.708,0" stroke="rgb(218, 40, 36)" stroke-width="2" opacity="0.7"/><path aria-label="Codon site: 13; Adjusted p-value: 0.532914706955; adjusted_p_value: 0.532914706955; p-value: 0.153632896408; adjusted p-value: 0.532914706955" role="graphics-symbol" aria-roledescription="point" transform="translate(731.25,210.18838187040137)" d="M3.708,0A3.708,3.708,0,1,1,-3.708,0A3.708,3.708,0,1,1,3.708,0" stroke="rgb(235, 62, 47)" stroke-width="2" opacity="0.7"/><path aria-label="Codon site: 14; Adjusted p-value: 0.226050594703; adjusted_p_value: 0.226050594703; p-value: 0.0301400792937; adjusted p-value: 0.226050594703" role="graphics-symbol" aria-roledescription="point" transform="translate(787.5,348.2772323837993)" d="M3.708,0A3.708,3.708,0,1,1,-3.708,0A3.708,3.708,0,1,1,3.708,0" stroke="rgb(151, 11, 19)" stroke-width="2" opacity="0.7"/><path aria-label="Codon site: 15; Adjusted p-value: 0.714285714286; adjusted_p_value: 0.714285714286; p-value: 0.666666666667; adjusted p-value: 0.714285714286" role="graphics-symbol" aria-roledescription="point" transform="translate(843.75,128.5714285714286)" d="M3.708,0A3.708,3.708,0,1,1,-3.708,0A3.708,3.708,0,1,1,3.708,0" stroke="rgb(251, 119, 88)" stroke-width="2" opacity="0.7"/></g><g class="mark-group role-legend" role="graphics-symbol" aria-roledescription="legend" aria-label="Gradient legend titled 'adjusted_p_value' for stroke color with values from 0.2 to 1.0"><g transform="translate(918,0)"><path class="background" aria-hidden="true" d="M0,0h93v216h-93Z" pointer-events="none"/><g><g class="mark-group role-legend-entry"><g transform="translate(0,16)"><path class="background" aria-hidden="true" d="M0,0h0v0h0Z" pointer-events="none"/><g><g class="mark-rect role-legend-gradient" pointer-events="none"><path d="M0,0h16v200h-16Z" fill="url(#gradient_0)" stroke="#ddd" stroke-width="0" opacity="0.7"/></g><g class="mark-text role-legend-label" pointer-events="none"><text text-anchor="start" transform="translate(18,158.04889490017638)" font-family="sans-serif" font-size="10px" fill="#000" opacity="1">0.4</text><text text-anchor="start" transform="translate(18,106.36592993345093)" font-family="sans-serif" font-size="10px" fill="#000" opacity="1">0.6</text><text text-anchor="start" transform="translate(18,54.68296496672544)" font-family="sans-serif" font-size="10px" fill="#000" opacity="1">0.8</text><text text-anchor="start" transform="translate(18,8)" font-family="sans-serif" font-size="10px" fill="#000" opacity="1">1.0</text></g></g><path class="foreground" aria-hidden="true" d="" pointer-events="none" display="none"/></g></g><g class="mark-text role-legend-title" pointer-events="none"><text text-anchor="start" transform="translate(0,9)" font-family="sans-serif" font-size="11px" font-weight="bold" fill="#000" opacity="1">adjusted_p_value</text></g></g><path class="foreground" aria-hidden="true" d="" pointer-events="none" display="none"/></g></g><g class="mark-group role-title"><g transform="translate(450,-22.70809924354783)"><path class="background" aria-hidden="true" d="M0,0h0v0h0Z" pointer-events="none"/><g><g class="mark-text role-title-text" role="graphics-symbol" aria-roledescription="title" aria-label="Title text 'MEME: BDNF-64 part 2'" pointer-events="none"><text text-anchor="middle" transform="translate(0,10)" font-family="sans-serif" font-size="13px" font-weight="bold" fill="#000" opacity="1">MEME: BDNF-64 part 2</text></g></g><path class="foreground" aria-hidden="true" d="" pointer-events="none" display="none"/></g></g></g><path class="foreground" aria-hidden="true" d="" display="none"/></g></g></g><defs><linearGradient id="gradient_0" x1="0" x2="0" y1="1" y2="0"><stop offset="0" stop-color="rgb(151, 11, 19)"/><stop offset="0.030944406873897542" stop-color="rgb(159, 13, 21)"/><stop offset="0.09554811308230436" stop-color="rgb(177, 18, 24)"/><stop offset="0.16015181929071118" stop-color="rgb(191, 23, 27)"/><stop offset="0.22475552549911806" stop-color="rgb(205, 31, 31)"/><stop offset="0.28935923170752487" stop-color="rgb(218, 40, 36)"/><stop offset="0.3539629379159317" stop-color="rgb(229, 53, 42)"/><stop offset="0.4185666441243386" stop-color="rgb(238, 67, 50)"/><stop offset="0.48317035033274536" stop-color="rgb(244, 83, 60)"/><stop offset="0.5477740565411522" stop-color="rgb(248, 99, 72)"/><stop offset="0.612377762749559" stop-color="rgb(250, 115, 84)"/><stop offset="0.6769814689579658" stop-color="rgb(252, 130, 98)"/><stop offset="0.7415851751663728" stop-color="rgb(252, 145, 113)"/><stop offset="0.8061888813747795" stop-color="rgb(252, 159, 130)"/><stop offset="0.8707925875831863" stop-color="rgb(252, 174, 146)"/><stop offset="0.9353962937915932" stop-color="rgb(252, 187, 163)"/><stop offset="1" stop-color="rgb(253, 201, 180)"/></linearGradient></defs></svg>