<svg xmlns="http://www.w3.org/2000/svg" xmlns:xlink="http://www.w3.org/1999/xlink" version="1.1" class="marks" width="947" height="514" viewBox="0 0 947 514"><rect width="947" height="514" fill="white"/><g fill="none" stroke-miterlimit="10" transform="translate(41,27)"><g class="mark-group role-frame root" role="graphics-object" aria-roledescription="group mark container"><g transform="translate(0,0)"><path class="background" aria-hidden="true" d="M0.5,0.5h900v450h-900Z" stroke="#ddd"/><g><g class="mark-group role-axis" aria-hidden="true"><g transform="translate(0.5,450.5)"><path class="background" aria-hidden="true" d="M0,0h0v0h0Z" pointer-events="none"/><g><g class="mark-rule role-axis-grid" pointer-events="none"><line transform="translate(0,-450)" x2="0" y2="450" stroke="#ddd" stroke-width="1" opacity="1"/><line transform="translate(35,-450)" x2="0" y2="450" stroke="#ddd" stroke-width="1" opacity="1"/><line transform="translate(69,-450)" x2="0" y2="450" stroke="#ddd" stroke-width="1" opacity="1"/><line transform="translate(104,-450)" x2="0" y2="450" stroke="#ddd" stroke-width="1" opacity="1"/><line transform="translate(138,-450)" x2="0" y2="450" stroke="#ddd" stroke-width="1" opacity="1"/><line transform="translate(173,-450)" x2="0" y2="450" stroke="#ddd" stroke-width="1" opacity="1"/><line transform="translate(208,-450)" x2="0" y2="450" stroke="#ddd" stroke-width="1" opacity="1"/><line transform="translate(242,-450)" x2="0" y2="450" stroke="#ddd" stroke-width="1" opacity="1"/><line transform="translate(277,-450)" x2="0" y2="450" stroke="#ddd" stroke-width="1" opacity="1"/><line transform="translate(312,-450)" x2="0" y2="450" stroke="#ddd" stroke-width="1" opacity="1"/><line transform="translate(346,-450)" x2="0" y2="450" stroke="#ddd" stroke-width="1" opacity="1"/><line transform="translate(381,-450)" x2="0" y2="450" stroke="#ddd" stroke-width="1" opacity="1"/><line transform="translate(415,-450)" x2="0" y2="450" stroke="#ddd" stroke-width="1" opacity="1"/><line transform="translate(450,-450)" x2="0" y2="450" stroke="#ddd" stroke-width="1" opacity="1"/><line transform="translate(485,-450)" x2="0" y2="450" stroke="#ddd" stroke-width="1" opacity="1"/><line transform="translate(519,-450)" x2="0" y2="450" stroke="#ddd" stroke-width="1" opacity="1"/><line transform="translate(554,-450)" x2="0" y2="450" stroke="#ddd" stroke-width="1" opacity="1"/><line transform="translate(588,-450)" x2="0" y2="450" stroke="#ddd" stroke-width="1" opacity="1"/><line transform="translate(623,-450)" x2="0" y2="450" stroke="#ddd" stroke-width="1" opacity="1"/><line transform="translate(658,-450)" x2="0" y2="450" stroke="#ddd" stroke-width="1" opacity="1"/><line transform="translate(692,-450)" x2="0" y2="450" stroke="#ddd" stroke-width="1" opacity="1"/><line transform="translate(727,-450)" x2="0" y2="450" stroke="#ddd" stroke-width="1" opacity="1"/><line transform="translate(762,-450)" x2="0" y2="450" stroke="#ddd" stroke-width="1" opacity="1"/><line transform="translate(796,-450)" x2="0" y2="450" stroke="#ddd" stroke-width="1" opacity="1"/><line transform="translate(831,-450)" x2="0" y2="450" stroke="#ddd" stroke-width="1" opacity="1"/><line transform="translate(865,-450)" x2="0" y2="450" stroke="#ddd" stroke-width="1" opacity="1"/><line transform="translate(900,-450)" x2="0" y2="450" stroke="#ddd" stroke-width="1" opacity="1"/></g></g><path class="foreground" aria-hidden="true" d="" pointer-events="none" display="none"/></g></g><g class="mark-group role-axis" aria-hidden="true"><g transform="translate(0.5,0.5)"><path class="background" aria-hidden="true" d="M0,0h0v0h0Z" pointer-events="none"/><g><g class="mark-rule role-axis-grid" pointer-events="none"><line transform="translate(0,450)" x2="900" y2="0" stroke="#ddd" stroke-width="1" opacity="1"/><line transform="translate(0,308)" x2="900" y2="0" stroke="#ddd" stroke-width="1" opacity="1"/><line transform="translate(0,249)" x2="900" y2="0" stroke="#ddd" stroke-width="1" opacity="1"/><line transform="translate(0,204)" x2="900" y2="0" stroke="#ddd" stroke-width="1" opacity="1"/><line transform="translate(0,165)" x2="900" y2="0" stroke="#ddd" stroke-width="1" opacity="1"/><line transform="translate(0,132)" x2="900" y2="0" stroke="#ddd" stroke-width="1" opacity="1"/><line transform="translate(0,101)" x2="900" y2="0" stroke="#ddd" stroke-width="1" opacity="1"/><line transform="translate(0,74)" x2="900" y2="0" stroke="#ddd" stroke-width="1" opacity="1"/><line transform="translate(0,48)" x2="900" y2="0" stroke="#ddd" stroke-width="1" opacity="1"/><line transform="translate(0,23)" x2="900" y2="0" stroke="#ddd" stroke-width="1" opacity="1"/><line transform="translate(0,0)" x2="900" y2="0" stroke="#ddd" stroke-width="1" opacity="1"/></g></g><path class="foreground" aria-hidden="true" d="" pointer-events="none" display="none"/></g></g><g class="mark-group role-axis" role="graphics-symbol" aria-roledescription="axis" aria-label="X-axis titled 'Codon site' for a linear scale with values from 0 to 26"><g transform="translate(0.5,450.5)"><path class="background" aria-hidden="true" d="M0,0h0v0h0Z" pointer-events="none"/><g><g class="mark-rule role-axis-tick" pointer-events="none"><line transform="translate(0,0)" x2="0" y2="5" stroke="#888" stroke-width="1" opacity="1"/><line transform="translate(35,0)" x2="0" y2="5" stroke="#888" stroke-width="1" opacity="1"/><line transform="translate(69,0)" x2="0" y2="5" stroke="#888" stroke-width="1" opacity="1"/><line transform="translate(104,0)" x2="0" y2="5" stroke="#888" stroke-width="1" opacity="1"/><line transform="translate(138,0)" x2="0" y2="5" stroke="#888" stroke-width="1" opacity="1"/><line transform="translate(173,0)" x2="0" y2="5" stroke="#888" stroke-width="1" opacity="1"/><line transform="translate(208,0)" x2="0" y2="5" stroke="#888" stroke-width="1" opacity="1"/><line transform="translate(242,0)" x2="0" y2="5" stroke="#888" stroke-width="1" opacity="1"/><line transform="translate(277,0)" x2="0" y2="5" stroke="#888" stroke-width="1" opacity="1"/><line transform="translate(312,0)" x2="0" y2="5" stroke="#888" stroke-width="1" opacity="1"/><line transform="translate(346,0)" x2="0" y2="5" stroke="#888" stroke-width="1" opacity="1"/><line transform="translate(381,0)" x2="0" y2="5" stroke="#888" stroke-width="1" opacity="1"/><line transform="translate(415,0)" x2="0" y2="5" stroke="#888" stroke-width="1" opacity="1"/><line transform="translate(450,0)" x2="0" y2="5" stroke="#888" stroke-width="1" opacity="1"/><line transform="translate(485,0)" x2="0" y2="5" stroke="#888" stroke-width="1" opacity="1"/><line transform="translate(519,0)" x2="0" y2="5" stroke="#888" stroke-width="1" opacity="1"/><line transform="translate(554,0)" x2="0" y2="5" stroke="#888" stroke-width="1" opacity="1"/><line transform="translate(588,0)" x2="0" y2="5" stroke="#888" stroke-width="1" opacity="1"/><line transform="translate(623,0)" x2="0" y2="5" stroke="#888" stroke-width="1" opacity="1"/><line transform="translate(658,0)" x2="0" y2="5" stroke="#888" stroke-width="1" opacity="1"/><line transform="translate(692,0)" x2="0" y2="5" stroke="#888" stroke-width="1" opacity="1"/><line transform="translate(727,0)" x2="0" y2="5" stroke="#888" stroke-width="1" opacity="1"/><line transform="translate(762,0)" x2="0" y2="5" stroke="#888" stroke-width="1" opacity="1"/><line transform="translate(796,0)" x2="0" y2="5" stroke="#888" stroke-width="1" opacity="1"/><line transform="translate(831,0)" x2="0" y2="5" stroke="#888" stroke-width="1" opacity="1"/><line transform="translate(865,0)" x2="0" y2="5" stroke="#888" stroke-width="1" opacity="1"/><line transform="translate(900,0)" x2="0" y2="5" stroke="#888" stroke-width="1" opacity="1"/></g><g class="mark-text role-axis-label" pointer-events="none"><text text-anchor="start" transform="translate(0,15)" font-family="sans-serif" font-size="10px" fill="#000" opacity="1">0</text><text text-anchor="middle" transform="translate(34.61538461538462,15)" font-family="sans-serif" font-size="10px" fill="#000" opacity="1">1</text><text text-anchor="middle" transform="translate(69.23076923076924,15)" font-family="sans-serif" font-size="10px" fill="#000" opacity="1">2</text><text text-anchor="middle" transform="translate(103.84615384615385,15)" font-family="sans-serif" font-size="10px" fill="#000" opacity="1">3</text><text text-anchor="middle" transform="translate(138.46153846153848,15)" font-family="sans-serif" font-size="10px" fill="#000" opacity="1">4</text><text text-anchor="middle" transform="translate(173.0769230769231,15)" font-family="sans-serif" font-size="10px" fill="#000" opacity="1">5</text><text text-anchor="middle" transform="translate(207.6923076923077,15)" font-family="sans-serif" font-size="10px" fill="#000" opacity="1">6</text><text text-anchor="middle" transform="translate(242.3076923076923,15)" font-family="sans-serif" font-size="10px" fill="#000" opacity="1">7</text><text text-anchor="middle" transform="translate(276.92307692307696,15)" font-family="sans-serif" font-size="10px" fill="#000" opacity="1">8</text><text text-anchor="middle" transform="translate(311.53846153846155,15)" font-family="sans-serif" font-size="10px" fill="#000" opacity="1">9</text><text text-anchor="middle" transform="translate(346.1538461538462,15)" font-family="sans-serif" font-size="10px" fill="#000" opacity="1">10</text><text text-anchor="middle" transform="translate(380.7692307692308,15)" font-family="sans-serif" font-size="10px" fill="#000" opacity="1">11</text><text text-anchor="middle" transform="translate(415.3846153846154,15)" font-family="sans-serif" font-size="10px" fill="#000" opacity="1">12</text><text text-anchor="middle" transform="translate(450,15)" font-family="sans-serif" font-size="10px" fill="#000" opacity="1">13</text><text text-anchor="middle" transform="translate(484.6153846153846,15)" font-family="sans-serif" font-size="10px" fill="#000" opacity="1">14</text><text text-anchor="middle" transform="translate(519.2307692307692,15)" font-family="sans-serif" font-size="10px" fill="#000" opacity="1">15</text><text text-anchor="middle" transform="translate(553.8461538461539,15)" font-family="sans-serif" font-size="10px" fill="#000" opacity="1">16</text><text text-anchor="middle" transform="translate(588.4615384615385,15)" font-family="sans-serif" font-size="10px" fill="#000" opacity="1">17</text><text text-anchor="middle" transform="translate(623.0769230769231,15)" font-family="sans-serif" font-size="10px" fill="#000" opacity="1">18</text><text text-anchor="middle" transform="translate(657.6923076923076,15)" font-family="sans-serif" font-size="10px" fill="#000" opacity="1">19</text><text text-anchor="middle" transform="translate(692.3076923076924,15)" font-family="sans-serif" font-size="10px" fill="#000" opacity="1">20</text><text text-anchor="middle" transform="translate(726.9230769230769,15)" font-family="sans-serif" font-size="10px" fill="#000" opacity="1">21</text><text text-anchor="middle" transform="translate(761.5384615384615,15)" font-family="sans-serif" font-size="10px" fill="#000" opacity="1">22</text><text text-anchor="middle" transform="translate(796.1538461538461,15)" font-family="sans-serif" font-size="10px" fill="#000" opacity="1">23</text><text text-anchor="middle" transform="translate(830.7692307692308,15)" font-family="sans-serif" font-size="10px" fill="#000" opacity="1">24</text><text text-anchor="middle" transform="translate(865.3846153846154,15)" font-family="sans-serif" font-size="10px" fill="#000" opacity="1">25</text><text text-anchor="end" transform="translate(900,15)" font-family="sans-serif" font-size="10px" fill="#000" opacity="1">26</text></g><g class="mark-rule role-axis-domain" pointer-events="none"><line transform="translate(0,0)" x2="900" y2="0" stroke="#888" stroke-width="1" opacity="1"/></g><g class="mark-text role-axis-title" pointer-events="none"><text text-anchor="middle" transform="translate(450,30)" font-family="sans-serif" font-size="11px" font-weight="bold" fill="#000" opacity="1">Codon site</text></g></g><path class="foreground" aria-hidden="true" d="" pointer-events="none" display="none"/></g></g><g class="mark-group role-axis" role="graphics-symbol" aria-roledescription="axis" aria-label="Y-axis titled 'dN/dS estimate' for a sqrt scale with values from 0 to 5"><g transform="translate(0.5,0.5)"><path class="background" aria-hidden="true" d="M0,0h0v0h0Z" pointer-events="none"/><g><g class="mark-rule role-axis-tick" pointer-events="none"><line transform="translate(0,450)" x2="-5" y2="0" stroke="#888" stroke-width="1" opacity="1"/><line transform="translate(0,308)" x2="-5" y2="0" stroke="#888" stroke-width="1" opacity="1"/><line transform="translate(0,249)" x2="-5" y2="0" stroke="#888" stroke-width="1" opacity="1"/><line transform="translate(0,204)" x2="-5" y2="0" stroke="#888" stroke-width="1" opacity="1"/><line transform="translate(0,165)" x2="-5" y2="0" stroke="#888" stroke-width="1" opacity="1"/><line transform="translate(0,132)" x2="-5" y2="0" stroke="#888" stroke-width="1" opacity="1"/><line transform="translate(0,101)" x2="-5" y2="0" stroke="#888" stroke-width="1" opacity="1"/><line transform="translate(0,74)" x2="-5" y2="0" stroke="#888" stroke-width="1" opacity="1"/><line transform="translate(0,48)" x2="-5" y2="0" stroke="#888" stroke-width="1" opacity="1"/><line transform="translate(0,23)" x2="-5" y2="0" stroke="#888" stroke-width="1" opacity="1"/><line transform="translate(0,0)" x2="-5" y2="0" stroke="#888" stroke-width="1" opacity="1"/></g><g class="mark-text role-axis-label" pointer-events="none"><text text-anchor="end" transform="translate(-7,453)" font-family="sans-serif" font-size="10px" fill="#000" opacity="1">0.0</text><text text-anchor="end" transform="translate(-7,310.6975052924229)" font-family="sans-serif" font-size="10px" fill="#000" opacity="1">0.5</text><text text-anchor="end" transform="translate(-7,251.75388202501895)" font-family="sans-serif" font-size="10px" fill="#000" opacity="1">1.0</text><text text-anchor="end" transform="translate(-7,206.52484912267528)" font-family="sans-serif" font-size="10px" fill="#000" opacity="1">1.5</text><text text-anchor="end" transform="translate(-7,168.39501058484586)" font-family="sans-serif" font-size="10px" fill="#000" opacity="1">2.0</text><text text-anchor="end" transform="translate(-7,134.8019484660536)" font-family="sans-serif" font-size="10px" fill="#000" opacity="1">2.5</text><text text-anchor="end" transform="translate(-7,104.43149884133251)" font-family="sans-serif" font-size="10px" fill="#000" opacity="1">3.0</text><text text-anchor="end" transform="translate(-7,76.50298805966605)" font-family="sans-serif" font-size="10px" fill="#000" opacity="1">3.5</text><text text-anchor="end" transform="translate(-7,50.50776405003786)" font-family="sans-serif" font-size="10px" fill="#000" opacity="1">4.0</text><text text-anchor="end" transform="translate(-7,26.092515877268855)" font-family="sans-serif" font-size="10px" fill="#000" opacity="1">4.5</text><text text-anchor="end" transform="translate(-7,3)" font-family="sans-serif" font-size="10px" fill="#000" opacity="1">5.0</text></g><g class="mark-rule role-axis-domain" pointer-events="none"><line transform="translate(0,450)" x2="0" y2="-450" stroke="#888" stroke-width="1" opacity="1"/></g><g class="mark-text role-axis-title" pointer-events="none"><text text-anchor="middle" transform="translate(-24.9013671875,225) rotate(-90) translate(0,-2)" font-family="sans-serif" font-size="11px" font-weight="bold" fill="#000" opacity="1">dN/dS estimate</text></g></g><path class="foreground" aria-hidden="true" d="" pointer-events="none" display="none"/></g></g><g class="mark-area role-mark layer_0_marks" role="graphics-object" aria-roledescription="area mark container"><path aria-label="CodonSite: 1; dN/dS LB: 0; dN/dS UB: 0" role="graphics-symbol" aria-roledescription="area mark" d="M34.615,450L69.231,450L103.846,450L138.462,450L173.077,450L207.692,450L242.308,450L276.923,450L311.538,0L346.154,0L380.769,0L415.385,0L450,450L484.615,450L519.231,450L553.846,450L588.462,450L623.077,0L657.692,450L692.308,0L726.923,73.129L761.538,450L796.154,450L830.769,0L865.385,450L865.385,0L830.769,0L796.154,0L761.538,0L726.923,0L692.308,0L657.692,0L623.077,0L588.462,0L553.846,0L519.231,0L484.615,97.557L450,0L415.385,0L380.769,0L346.154,0L311.538,0L276.923,0L242.308,0L207.692,0L173.077,450L138.462,450L103.846,450L69.231,450L34.615,450Z" fill="#4c78a8" opacity="0.25"/></g><g class="mark-symbol role-mark layer_1_marks" clip-path="url(#clip1)" role="graphics-object" aria-roledescription="symbol mark container"><path aria-label="Codon site: 1; dN/dS estimate: 0; CodonSite: 1; alpha: 0; beta: 0; dN/dS MLE: 0; p_value: 1; adjusted_p_value: 1" role="graphics-symbol" aria-roledescription="circle" transform="translate(34.61538461538462,450)" d="M4.183,0A4.183,4.183,0,1,1,-4.183,0A4.183,4.183,0,1,1,4.183,0" fill="lightgray" stroke-width="2" opacity="0.9"/><path aria-label="Codon site: 2; dN/dS estimate: 0; CodonSite: 2; alpha: 0; beta: 0; dN/dS MLE: 0; p_value: 1; adjusted_p_value: 1" role="graphics-symbol" aria-roledescription="circle" transform="translate(69.23076923076924,450)" d="M4.183,0A4.183,4.183,0,1,1,-4.183,0A4.183,4.183,0,1,1,4.183,0" fill="lightgray" stroke-width="2" opacity="0.9"/><path aria-label="Codon site: 3; dN/dS estimate: 0; CodonSite: 3; alpha: 0; beta: 0; dN/dS MLE: 0; p_value: 1; adjusted_p_value: 1" role="graphics-symbol" aria-roledescription="circle" transform="translate(103.84615384615385,450)" d="M4.183,0A4.183,4.183,0,1,1,-4.183,0A4.183,4.183,0,1,1,4.183,0" fill="lightgray" stroke-width="2" opacity="0.9"/><path aria-label="Codon site: 4; dN/dS estimate: 0; CodonSite: 4; alpha: 0; beta: 0; dN/dS MLE: 0; p_value: 1; adjusted_p_value: 1" role="graphics-symbol" aria-roledescription="circle" transform="translate(138.46153846153848,450)" d="M4.183,0A4.183,4.183,0,1,1,-4.183,0A4.183,4.183,0,1,1,4.183,0" fill="lightgray" stroke-width="2" opacity="0.9"/><path aria-label="Codon site: 5; dN/dS estimate: 0; CodonSite: 5; alpha: 0; beta: 0; dN/dS MLE: 0; p_value: 1; adjusted_p_value: 1" role="graphics-symbol" aria-roledescription="circle" transform="translate(173.0769230769231,450)" d="M4.183,0A4.183,4.183,0,1,1,-4.183,0A4.183,4.183,0,1,1,4.183,0" fill="lightgray" stroke-width="2" opacity="0.9"/><path aria-label="Codon site: 6; dN/dS estimate: 0.000188379709478; CodonSite: 6; alpha: 0.0582050401445; beta: 0.0000109646485526; dN/dS MLE: 0.000188379709478; p_value: 1; adjusted_p_value: 1" role="graphics-symbol" aria-roledescription="circle" transform="translate(207.6923076923077,447.23786708613534)" d="M4.183,0A4.183,4.183,0,1,1,-4.183,0A4.183,4.183,0,1,1,4.183,0" fill="lightgray" stroke-width="2" opacity="0.9"/><path aria-label="Codon site: 7; dN/dS estimate: 10000; CodonSite: 7; alpha: 2.16664104199e-7; beta: 93.7433441496; dN/dS MLE: 10000; p_value: 1; adjusted_p_value: 1" role="graphics-symbol" aria-roledescription="circle" transform="translate(242.3076923076923,0)" d="M4.183,0A4.183,4.183,0,1,1,-4.183,0A4.183,4.183,0,1,1,4.183,0" fill="lightgray" stroke-width="2" opacity="0.9"/><path aria-label="Codon site: 8; dN/dS estimate: 10000; CodonSite: 8; alpha: 9.94422077391e-10; beta: 28.0329680342; dN/dS MLE: 10000; p_value: 0.148880241605; adjusted_p_value: 0.53171514859" role="graphics-symbol" aria-roledescription="circle" transform="translate(276.92307692307696,0)" d="M4.183,0A4.183,4.183,0,1,1,-4.183,0A4.183,4.183,0,1,1,4.183,0" fill="lightgray" stroke-width="2" opacity="0.9"/><path aria-label="Codon site: 9; dN/dS estimate: 10000; CodonSite: 9; alpha: 0.00102553509591; beta: 366.036795455; dN/dS MLE: 10000; p_value: 0.612673217896; adjusted_p_value: 1" role="graphics-symbol" aria-roledescription="circle" transform="translate(311.53846153846155,0)" d="M4.183,0A4.183,4.183,0,1,1,-4.183,0A4.183,4.183,0,1,1,4.183,0" fill="lightgray" stroke-width="2" opacity="0.9"/><path aria-label="Codon site: 10; dN/dS estimate: 6194.28059197; CodonSite: 10; alpha: 0.0745154025575; beta: 461.569311865; dN/dS MLE: 6194.28059197; p_value: 0.650395852775; adjusted_p_value: 1" role="graphics-symbol" aria-roledescription="circle" transform="translate(346.1538461538462,0)" d="M4.183,0A4.183,4.183,0,1,1,-4.183,0A4.183,4.183,0,1,1,4.183,0" fill="lightgray" stroke-width="2" opacity="0.9"/><path aria-label="Codon site: 11; dN/dS estimate: 3659.08860303; CodonSite: 11; alpha: 0.264433011302; beta: 967.583817922; dN/dS MLE: 3659.08860303; p_value: 0.295548693065; adjusted_p_value: 0.671701575147" role="graphics-symbol" aria-roledescription="circle" transform="translate(380.7692307692308,0)" d="M4.183,0A4.183,4.183,0,1,1,-4.183,0A4.183,4.183,0,1,1,4.183,0" fill="lightgray" stroke-width="2" opacity="0.9"/><path aria-label="Codon site: 12; dN/dS estimate: 56.3360868873; CodonSite: 12; alpha: 1.73439230746; beta: 97.7088757297; dN/dS MLE: 56.3360868873; p_value: 0.627818602256; adjusted_p_value: 1" role="graphics-symbol" aria-roledescription="circle" transform="translate(415.3846153846154,0)" d="M4.183,0A4.183,4.183,0,1,1,-4.183,0A4.183,4.183,0,1,1,4.183,0" fill="lightgray" stroke-width="2" opacity="0.9"/><path aria-label="Codon site: 13; dN/dS estimate: 0.00109725018666; CodonSite: 13; alpha: 0.0739272914861; beta: 0.0000811167343827; dN/dS MLE: 0.00109725018666; p_value: 0.916379488775; adjusted_p_value: 1" role="graphics-symbol" aria-roledescription="circle" transform="translate(450,443.33376923892445)" d="M4.183,0A4.183,4.183,0,1,1,-4.183,0A4.183,4.183,0,1,1,4.183,0" fill="lightgray" stroke-width="2" opacity="0.9"/><path aria-label="Codon site: 14; dN/dS estimate: 0.0000122327369056; CodonSite: 14; alpha: 7.55544344494; beta: 0.0000924237518669; dN/dS MLE: 0.0000122327369056; p_value: 0.245420592806; adjusted_p_value: 0.633248952277" role="graphics-symbol" aria-roledescription="circle" transform="translate(484.6153846153846,449.2961350664542)" d="M4.183,0A4.183,4.183,0,1,1,-4.183,0A4.183,4.183,0,1,1,4.183,0" fill="lightgray" stroke-width="2" opacity="0.9"/><path aria-label="Codon site: 15; dN/dS estimate: 10000; CodonSite: 15; alpha: 4.53369083034e-8; beta: 19.5599982077; dN/dS MLE: 10000; p_value: 0.214121919049; adjusted_p_value: 0.633248952277" role="graphics-symbol" aria-roledescription="circle" transform="translate(519.2307692307692,0)" d="M4.183,0A4.183,4.183,0,1,1,-4.183,0A4.183,4.183,0,1,1,4.183,0" fill="lightgray" stroke-width="2" opacity="0.9"/><path aria-label="Codon site: 16; dN/dS estimate: 6.68963061385; CodonSite: 16; alpha: 1.17293209627; beta: 7.84648245916; dN/dS MLE: 6.68963061385; p_value: 0.455850935558; adjusted_p_value: 0.949689449078" role="graphics-symbol" aria-roledescription="circle" transform="translate(553.8461538461539,0)" d="M4.183,0A4.183,4.183,0,1,1,-4.183,0A4.183,4.183,0,1,1,4.183,0" fill="lightgray" stroke-width="2" opacity="0.9"/><path aria-label="Codon site: 17; dN/dS estimate: 68.2988575833; CodonSite: 17; alpha: 0.144188028687; beta: 9.84787763653; dN/dS MLE: 68.2988575833; p_value: 0.253299580911; adjusted_p_value: 0.633248952277" role="graphics-symbol" aria-roledescription="circle" transform="translate(588.4615384615385,0)" d="M4.183,0A4.183,4.183,0,1,1,-4.183,0A4.183,4.183,0,1,1,4.183,0" fill="lightgray" stroke-width="2" opacity="0.9"/><path aria-label="Codon site: 18; dN/dS estimate: 108.073788426; CodonSite: 18; alpha: 0.473132043838; beta: 51.1331724035; dN/dS MLE: 108.073788426; p_value: 0.00585367408637; adjusted_p_value: 0.0487806173864" role="graphics-symbol" aria-roledescription="circle" transform="translate(623.0769230769231,0)" d="M4.183,0A4.183,4.183,0,1,1,-4.183,0A4.183,4.183,0,1,1,4.183,0" fill="red" stroke-width="2" opacity="0.9"/><path aria-label="Codon site: 19; dN/dS estimate: 3.30948586127; CodonSite: 19; alpha: 3.35844064275; beta: 11.1147118231; dN/dS MLE: 3.30948586127; p_value: 0.52217650003; adjusted_p_value: 1" role="graphics-symbol" aria-roledescription="circle" transform="translate(657.6923076923076,83.89321587624048)" d="M4.183,0A4.183,4.183,0,1,1,-4.183,0A4.183,4.183,0,1,1,4.183,0" fill="lightgray" stroke-width="2" opacity="0.9"/><path aria-label="Codon site: 20; dN/dS estimate: 504.853072529; CodonSite: 20; alpha: 0.286079532013; beta: 144.428130724; dN/dS MLE: 504.853072529; p_value: 0.000389819274153; adjusted_p_value: 0.0083662997253" role="graphics-symbol" aria-roledescription="circle" transform="translate(692.3076923076924,0)" d="M4.183,0A4.183,4.183,0,1,1,-4.183,0A4.183,4.183,0,1,1,4.183,0" fill="red" stroke-width="2" opacity="0.9"/><path aria-label="Codon site: 21; dN/dS estimate: 21.7575397394; CodonSite: 21; alpha: 2.38475806369; beta: 51.8864683398; dN/dS MLE: 21.7575397394; p_value: 0.0158183654862; adjusted_p_value: 0.0988647842886" role="graphics-symbol" aria-roledescription="circle" transform="translate(726.9230769230769,0)" d="M4.183,0A4.183,4.183,0,1,1,-4.183,0A4.183,4.183,0,1,1,4.183,0" fill="red" stroke-width="2" opacity="0.9"/><path aria-label="Codon site: 22; dN/dS estimate: 10000; CodonSite: 22; alpha: 1.51671890061e-7; beta: 22.6465963854; dN/dS MLE: 10000; p_value: 0.0691485842523; adjusted_p_value: 0.288119101051" role="graphics-symbol" aria-roledescription="circle" transform="translate(761.5384615384615,0)" d="M4.183,0A4.183,4.183,0,1,1,-4.183,0A4.183,4.183,0,1,1,4.183,0" fill="lightgray" stroke-width="2" opacity="0.9"/><path aria-label="Codon site: 23; dN/dS estimate: 10000; CodonSite: 23; alpha: 0.00146434380929; beta: 47.746233225; dN/dS MLE: 10000; p_value: 0.0428458348795; adjusted_p_value: 0.214229174398" role="graphics-symbol" aria-roledescription="circle" transform="translate(796.1538461538461,0)" d="M4.183,0A4.183,4.183,0,1,1,-4.183,0A4.183,4.183,0,1,1,4.183,0" fill="lightgray" stroke-width="2" opacity="0.9"/><path aria-label="Codon site: 24; dN/dS estimate: 1139.93730013; CodonSite: 24; alpha: 0.125941314978; beta: 143.56520257; dN/dS MLE: 1139.93730013; p_value: 0.000669303978024; adjusted_p_value: 0.0083662997253" role="graphics-symbol" aria-roledescription="circle" transform="translate(830.7692307692308,0)" d="M4.183,0A4.183,4.183,0,1,1,-4.183,0A4.183,4.183,0,1,1,4.183,0" fill="red" stroke-width="2" opacity="0.9"/><path aria-label="Codon site: 25; dN/dS estimate: 0.000041067460304; CodonSite: 25; alpha: 2.54685397445; beta: 0.000104592824496; dN/dS MLE: 0.000041067460304; p_value: 0.784718614186; adjusted_p_value: 1" role="graphics-symbol" aria-roledescription="circle" transform="translate(865.3846153846154,448.71033642281685)" d="M4.183,0A4.183,4.183,0,1,1,-4.183,0A4.183,4.183,0,1,1,4.183,0" fill="lightgray" stroke-width="2" opacity="0.9"/></g><g class="mark-group role-title"><g transform="translate(450,-22)"><path class="background" aria-hidden="true" d="M0,0h0v0h0Z" pointer-events="none"/><g><g class="mark-text role-title-text" role="graphics-symbol" aria-roledescription="title" aria-label="Title text 'FEL: BDNF-64 part 2'" pointer-events="none"><text text-anchor="middle" transform="translate(0,10)" font-family="sans-serif" font-size="13px" font-weight="bold" fill="#000" opacity="1">FEL: BDNF-64 part 2</text></g></g><path class="foreground" aria-hidden="true" d="" pointer-events="none" display="none"/></g></g></g><path class="foreground" aria-hidden="true" d="" display="none"/></g></g></g><defs><clipPath id="clip1"><rect x="0" y="0" width="900" height="450"/></clipPath></defs></svg>