<svg xmlns="http://www.w3.org/2000/svg" xmlns:xlink="http://www.w3.org/1999/xlink" version="1.1" class="marks" width="947" height="514" viewBox="0 0 947 514"><rect width="947" height="514" fill="white"/><g fill="none" stroke-miterlimit="10" transform="translate(41,27)"><g class="mark-group role-frame root" role="graphics-object" aria-roledescription="group mark container"><g transform="translate(0,0)"><path class="background" aria-hidden="true" d="M0.5,0.5h900v450h-900Z" stroke="#ddd"/><g><g class="mark-group role-axis" aria-hidden="true"><g transform="translate(0.5,450.5)"><path class="background" aria-hidden="true" d="M0,0h0v0h0Z" pointer-events="none"/><g><g class="mark-rule role-axis-grid" pointer-events="none"><line transform="translate(0,-450)" x2="0" y2="450" stroke="#ddd" stroke-width="1" opacity="1"/><line transform="translate(30,-450)" x2="0" y2="450" stroke="#ddd" stroke-width="1" opacity="1"/><line transform="translate(60,-450)" x2="0" y2="450" stroke="#ddd" stroke-width="1" opacity="1"/><line transform="translate(90,-450)" x2="0" y2="450" stroke="#ddd" stroke-width="1" opacity="1"/><line transform="translate(120,-450)" x2="0" y2="450" stroke="#ddd" stroke-width="1" opacity="1"/><line transform="translate(150,-450)" x2="0" y2="450" stroke="#ddd" stroke-width="1" opacity="1"/><line transform="translate(180,-450)" x2="0" y2="450" stroke="#ddd" stroke-width="1" opacity="1"/><line transform="translate(210,-450)" x2="0" y2="450" stroke="#ddd" stroke-width="1" opacity="1"/><line transform="translate(240,-450)" x2="0" y2="450" stroke="#ddd" stroke-width="1" opacity="1"/><line transform="translate(270,-450)" x2="0" y2="450" stroke="#ddd" stroke-width="1" opacity="1"/><line transform="translate(300,-450)" x2="0" y2="450" stroke="#ddd" stroke-width="1" opacity="1"/><line transform="translate(330,-450)" x2="0" y2="450" stroke="#ddd" stroke-width="1" opacity="1"/><line transform="translate(360,-450)" x2="0" y2="450" stroke="#ddd" stroke-width="1" opacity="1"/><line transform="translate(390,-450)" x2="0" y2="450" stroke="#ddd" stroke-width="1" opacity="1"/><line transform="translate(420,-450)" x2="0" y2="450" stroke="#ddd" stroke-width="1" opacity="1"/><line transform="translate(450,-450)" x2="0" y2="450" stroke="#ddd" stroke-width="1" opacity="1"/><line transform="translate(480,-450)" x2="0" y2="450" stroke="#ddd" stroke-width="1" opacity="1"/><line transform="translate(510,-450)" x2="0" y2="450" stroke="#ddd" stroke-width="1" opacity="1"/><line transform="translate(540,-450)" x2="0" y2="450" stroke="#ddd" stroke-width="1" opacity="1"/><line transform="translate(570,-450)" x2="0" y2="450" stroke="#ddd" stroke-width="1" opacity="1"/><line transform="translate(600,-450)" x2="0" y2="450" stroke="#ddd" stroke-width="1" opacity="1"/><line transform="translate(630,-450)" x2="0" y2="450" stroke="#ddd" stroke-width="1" opacity="1"/><line transform="translate(660,-450)" x2="0" y2="450" stroke="#ddd" stroke-width="1" opacity="1"/><line transform="translate(690,-450)" x2="0" y2="450" stroke="#ddd" stroke-width="1" opacity="1"/><line transform="translate(720,-450)" x2="0" y2="450" stroke="#ddd" stroke-width="1" opacity="1"/><line transform="translate(750,-450)" x2="0" y2="450" stroke="#ddd" stroke-width="1" opacity="1"/><line transform="translate(780,-450)" x2="0" y2="450" stroke="#ddd" stroke-width="1" opacity="1"/><line transform="translate(810,-450)" x2="0" y2="450" stroke="#ddd" stroke-width="1" opacity="1"/><line transform="translate(840,-450)" x2="0" y2="450" stroke="#ddd" stroke-width="1" opacity="1"/><line transform="translate(870,-450)" x2="0" y2="450" stroke="#ddd" stroke-width="1" opacity="1"/><line transform="translate(900,-450)" x2="0" y2="450" stroke="#ddd" stroke-width="1" opacity="1"/></g></g><path class="foreground" aria-hidden="true" d="" pointer-events="none" display="none"/></g></g><g class="mark-group role-axis" aria-hidden="true"><g transform="translate(0.5,0.5)"><path class="background" aria-hidden="true" d="M0,0h0v0h0Z" pointer-events="none"/><g><g class="mark-rule role-axis-grid" pointer-events="none"><line transform="translate(0,450)" x2="900" y2="0" stroke="#ddd" stroke-width="1" opacity="1"/><line transform="translate(0,308)" x2="900" y2="0" stroke="#ddd" stroke-width="1" opacity="1"/><line transform="translate(0,249)" x2="900" y2="0" stroke="#ddd" stroke-width="1" opacity="1"/><line transform="translate(0,204)" x2="900" y2="0" stroke="#ddd" stroke-width="1" opacity="1"/><line transform="translate(0,165)" x2="900" y2="0" stroke="#ddd" stroke-width="1" opacity="1"/><line transform="translate(0,132)" x2="900" y2="0" stroke="#ddd" stroke-width="1" opacity="1"/><line transform="translate(0,101)" x2="900" y2="0" stroke="#ddd" stroke-width="1" opacity="1"/><line transform="translate(0,74)" x2="900" y2="0" stroke="#ddd" stroke-width="1" opacity="1"/><line transform="translate(0,48)" x2="900" y2="0" stroke="#ddd" stroke-width="1" opacity="1"/><line transform="translate(0,23)" x2="900" y2="0" stroke="#ddd" stroke-width="1" opacity="1"/><line transform="translate(0,0)" x2="900" y2="0" stroke="#ddd" stroke-width="1" opacity="1"/></g></g><path class="foreground" aria-hidden="true" d="" pointer-events="none" display="none"/></g></g><g class="mark-group role-axis" role="graphics-symbol" aria-roledescription="axis" aria-label="X-axis titled 'Codon site' for a linear scale with values from 0 to 30"><g transform="translate(0.5,450.5)"><path class="background" aria-hidden="true" d="M0,0h0v0h0Z" pointer-events="none"/><g><g class="mark-rule role-axis-tick" pointer-events="none"><line transform="translate(0,0)" x2="0" y2="5" stroke="#888" stroke-width="1" opacity="1"/><line transform="translate(30,0)" x2="0" y2="5" stroke="#888" stroke-width="1" opacity="1"/><line transform="translate(60,0)" x2="0" y2="5" stroke="#888" stroke-width="1" opacity="1"/><line transform="translate(90,0)" x2="0" y2="5" stroke="#888" stroke-width="1" opacity="1"/><line transform="translate(120,0)" x2="0" y2="5" stroke="#888" stroke-width="1" opacity="1"/><line transform="translate(150,0)" x2="0" y2="5" stroke="#888" stroke-width="1" opacity="1"/><line transform="translate(180,0)" x2="0" y2="5" stroke="#888" stroke-width="1" opacity="1"/><line transform="translate(210,0)" x2="0" y2="5" stroke="#888" stroke-width="1" opacity="1"/><line transform="translate(240,0)" x2="0" y2="5" stroke="#888" stroke-width="1" opacity="1"/><line transform="translate(270,0)" x2="0" y2="5" stroke="#888" stroke-width="1" opacity="1"/><line transform="translate(300,0)" x2="0" y2="5" stroke="#888" stroke-width="1" opacity="1"/><line transform="translate(330,0)" x2="0" y2="5" stroke="#888" stroke-width="1" opacity="1"/><line transform="translate(360,0)" x2="0" y2="5" stroke="#888" stroke-width="1" opacity="1"/><line transform="translate(390,0)" x2="0" y2="5" stroke="#888" stroke-width="1" opacity="1"/><line transform="translate(420,0)" x2="0" y2="5" stroke="#888" stroke-width="1" opacity="1"/><line transform="translate(450,0)" x2="0" y2="5" stroke="#888" stroke-width="1" opacity="1"/><line transform="translate(480,0)" x2="0" y2="5" stroke="#888" stroke-width="1" opacity="1"/><line transform="translate(510,0)" x2="0" y2="5" stroke="#888" stroke-width="1" opacity="1"/><line transform="translate(540,0)" x2="0" y2="5" stroke="#888" stroke-width="1" opacity="1"/><line transform="translate(570,0)" x2="0" y2="5" stroke="#888" stroke-width="1" opacity="1"/><line transform="translate(600,0)" x2="0" y2="5" stroke="#888" stroke-width="1" opacity="1"/><line transform="translate(630,0)" x2="0" y2="5" stroke="#888" stroke-width="1" opacity="1"/><line transform="translate(660,0)" x2="0" y2="5" stroke="#888" stroke-width="1" opacity="1"/><line transform="translate(690,0)" x2="0" y2="5" stroke="#888" stroke-width="1" opacity="1"/><line transform="translate(720,0)" x2="0" y2="5" stroke="#888" stroke-width="1" opacity="1"/><line transform="translate(750,0)" x2="0" y2="5" stroke="#888" stroke-width="1" opacity="1"/><line transform="translate(780,0)" x2="0" y2="5" stroke="#888" stroke-width="1" opacity="1"/><line transform="translate(810,0)" x2="0" y2="5" stroke="#888" stroke-width="1" opacity="1"/><line transform="translate(840,0)" x2="0" y2="5" stroke="#888" stroke-width="1" opacity="1"/><line transform="translate(870,0)" x2="0" y2="5" stroke="#888" stroke-width="1" opacity="1"/><line transform="translate(900,0)" x2="0" y2="5" stroke="#888" stroke-width="1" opacity="1"/></g><g class="mark-text role-axis-label" pointer-events="none"><text text-anchor="start" transform="translate(0,15)" font-family="sans-serif" font-size="10px" fill="#000" opacity="1">0</text><text text-anchor="middle" transform="translate(30,15)" font-family="sans-serif" font-size="10px" fill="#000" opacity="1">1</text><text text-anchor="middle" transform="translate(60,15)" font-family="sans-serif" font-size="10px" fill="#000" opacity="1">2</text><text text-anchor="middle" transform="translate(90,15)" font-family="sans-serif" font-size="10px" fill="#000" opacity="1">3</text><text text-anchor="middle" transform="translate(120,15)" font-family="sans-serif" font-size="10px" fill="#000" opacity="1">4</text><text text-anchor="middle" transform="translate(150,15)" font-family="sans-serif" font-size="10px" fill="#000" opacity="1">5</text><text text-anchor="middle" transform="translate(180,15)" font-family="sans-serif" font-size="10px" fill="#000" opacity="1">6</text><text text-anchor="middle" transform="translate(210,15)" font-family="sans-serif" font-size="10px" fill="#000" opacity="1">7</text><text text-anchor="middle" transform="translate(240,15)" font-family="sans-serif" font-size="10px" fill="#000" opacity="1">8</text><text text-anchor="middle" transform="translate(270,15)" font-family="sans-serif" font-size="10px" fill="#000" opacity="1">9</text><text text-anchor="middle" transform="translate(300,15)" font-family="sans-serif" font-size="10px" fill="#000" opacity="1">10</text><text text-anchor="middle" transform="translate(330,15)" font-family="sans-serif" font-size="10px" fill="#000" opacity="1">11</text><text text-anchor="middle" transform="translate(360,15)" font-family="sans-serif" font-size="10px" fill="#000" opacity="1">12</text><text text-anchor="middle" transform="translate(390,15)" font-family="sans-serif" font-size="10px" fill="#000" opacity="1">13</text><text text-anchor="middle" transform="translate(420,15)" font-family="sans-serif" font-size="10px" fill="#000" opacity="1">14</text><text text-anchor="middle" transform="translate(450,15)" font-family="sans-serif" font-size="10px" fill="#000" opacity="1">15</text><text text-anchor="middle" transform="translate(480,15)" font-family="sans-serif" font-size="10px" fill="#000" opacity="1">16</text><text text-anchor="middle" transform="translate(510,15)" font-family="sans-serif" font-size="10px" fill="#000" opacity="1">17</text><text text-anchor="middle" transform="translate(540,15)" font-family="sans-serif" font-size="10px" fill="#000" opacity="1">18</text><text text-anchor="middle" transform="translate(570,15)" font-family="sans-serif" font-size="10px" fill="#000" opacity="1">19</text><text text-anchor="middle" transform="translate(600,15)" font-family="sans-serif" font-size="10px" fill="#000" opacity="1">20</text><text text-anchor="middle" transform="translate(630,15)" font-family="sans-serif" font-size="10px" fill="#000" opacity="1">21</text><text text-anchor="middle" transform="translate(660,15)" font-family="sans-serif" font-size="10px" fill="#000" opacity="1">22</text><text text-anchor="middle" transform="translate(690,15)" font-family="sans-serif" font-size="10px" fill="#000" opacity="1">23</text><text text-anchor="middle" transform="translate(720,15)" font-family="sans-serif" font-size="10px" fill="#000" opacity="1">24</text><text text-anchor="middle" transform="translate(750,15)" font-family="sans-serif" font-size="10px" fill="#000" opacity="1">25</text><text text-anchor="middle" transform="translate(780,15)" font-family="sans-serif" font-size="10px" fill="#000" opacity="1">26</text><text text-anchor="middle" transform="translate(810,15)" font-family="sans-serif" font-size="10px" fill="#000" opacity="1">27</text><text text-anchor="middle" transform="translate(840,15)" font-family="sans-serif" font-size="10px" fill="#000" opacity="1">28</text><text text-anchor="middle" transform="translate(870,15)" font-family="sans-serif" font-size="10px" fill="#000" opacity="1">29</text><text text-anchor="end" transform="translate(900,15)" font-family="sans-serif" font-size="10px" fill="#000" opacity="1">30</text></g><g class="mark-rule role-axis-domain" pointer-events="none"><line transform="translate(0,0)" x2="900" y2="0" stroke="#888" stroke-width="1" opacity="1"/></g><g class="mark-text role-axis-title" pointer-events="none"><text text-anchor="middle" transform="translate(450,30)" font-family="sans-serif" font-size="11px" font-weight="bold" fill="#000" opacity="1">Codon site</text></g></g><path class="foreground" aria-hidden="true" d="" pointer-events="none" display="none"/></g></g><g class="mark-group role-axis" role="graphics-symbol" aria-roledescription="axis" aria-label="Y-axis titled 'dN/dS estimate' for a sqrt scale with values from 0 to 5"><g transform="translate(0.5,0.5)"><path class="background" aria-hidden="true" d="M0,0h0v0h0Z" pointer-events="none"/><g><g class="mark-rule role-axis-tick" pointer-events="none"><line transform="translate(0,450)" x2="-5" y2="0" stroke="#888" stroke-width="1" opacity="1"/><line transform="translate(0,308)" x2="-5" y2="0" stroke="#888" stroke-width="1" opacity="1"/><line transform="translate(0,249)" x2="-5" y2="0" stroke="#888" stroke-width="1" opacity="1"/><line transform="translate(0,204)" x2="-5" y2="0" stroke="#888" stroke-width="1" opacity="1"/><line transform="translate(0,165)" x2="-5" y2="0" stroke="#888" stroke-width="1" opacity="1"/><line transform="translate(0,132)" x2="-5" y2="0" stroke="#888" stroke-width="1" opacity="1"/><line transform="translate(0,101)" x2="-5" y2="0" stroke="#888" stroke-width="1" opacity="1"/><line transform="translate(0,74)" x2="-5" y2="0" stroke="#888" stroke-width="1" opacity="1"/><line transform="translate(0,48)" x2="-5" y2="0" stroke="#888" stroke-width="1" opacity="1"/><line transform="translate(0,23)" x2="-5" y2="0" stroke="#888" stroke-width="1" opacity="1"/><line transform="translate(0,0)" x2="-5" y2="0" stroke="#888" stroke-width="1" opacity="1"/></g><g class="mark-text role-axis-label" pointer-events="none"><text text-anchor="end" transform="translate(-7,453)" font-family="sans-serif" font-size="10px" fill="#000" opacity="1">0.0</text><text text-anchor="end" transform="translate(-7,310.6975052924229)" font-family="sans-serif" font-size="10px" fill="#000" opacity="1">0.5</text><text text-anchor="end" transform="translate(-7,251.75388202501895)" font-family="sans-serif" font-size="10px" fill="#000" opacity="1">1.0</text><text text-anchor="end" transform="translate(-7,206.52484912267528)" font-family="sans-serif" font-size="10px" fill="#000" opacity="1">1.5</text><text text-anchor="end" transform="translate(-7,168.39501058484586)" font-family="sans-serif" font-size="10px" fill="#000" opacity="1">2.0</text><text text-anchor="end" transform="translate(-7,134.8019484660536)" font-family="sans-serif" font-size="10px" fill="#000" opacity="1">2.5</text><text text-anchor="end" transform="translate(-7,104.43149884133251)" font-family="sans-serif" font-size="10px" fill="#000" opacity="1">3.0</text><text text-anchor="end" transform="translate(-7,76.50298805966605)" font-family="sans-serif" font-size="10px" fill="#000" opacity="1">3.5</text><text text-anchor="end" transform="translate(-7,50.50776405003786)" font-family="sans-serif" font-size="10px" fill="#000" opacity="1">4.0</text><text text-anchor="end" transform="translate(-7,26.092515877268855)" font-family="sans-serif" font-size="10px" fill="#000" opacity="1">4.5</text><text text-anchor="end" transform="translate(-7,3)" font-family="sans-serif" font-size="10px" fill="#000" opacity="1">5.0</text></g><g class="mark-rule role-axis-domain" pointer-events="none"><line transform="translate(0,450)" x2="0" y2="-450" stroke="#888" stroke-width="1" opacity="1"/></g><g class="mark-text role-axis-title" pointer-events="none"><text text-anchor="middle" transform="translate(-24.9013671875,225) rotate(-90) translate(0,-2)" font-family="sans-serif" font-size="11px" font-weight="bold" fill="#000" opacity="1">dN/dS estimate</text></g></g><path class="foreground" aria-hidden="true" d="" pointer-events="none" display="none"/></g></g><g class="mark-area role-mark layer_0_marks" role="graphics-object" aria-roledescription="area mark container"><path aria-label="CodonSite: 1; dN/dS LB: 0; dN/dS UB: 0" role="graphics-symbol" aria-roledescription="area mark" d="M30,450L60,450L90,450L120,450L150,450L180,450L210,450L240,450L270,450L300,450L330,450L360,450L390,450L420,0L450,450L480,450L510,0L540,450L570,450L600,450L630,450L660,450L690,0L720,450L750,0L780,86.063L810,450L840,450L870,0L900,450L900,0L870,0L840,0L810,0L780,0L750,0L720,0L690,0L660,0L630,0L600,0L570,69.262L540,0L510,0L480,0L450,0L420,0L390,0L360,0L330,0L300,450L270,450L240,450L210,450L180,0L150,0L120,0L90,0L60,0L30,450Z" fill="#4c78a8" opacity="0.25"/></g><g class="mark-symbol role-mark layer_1_marks" clip-path="url(#clip1)" role="graphics-object" aria-roledescription="symbol mark container"><path aria-label="Codon site: 1; dN/dS estimate: 0; CodonSite: 1; alpha: 0; beta: 0; dN/dS MLE: 0; p_value: 1; adjusted_p_value: 1" role="graphics-symbol" aria-roledescription="circle" transform="translate(30,450)" d="M4.183,0A4.183,4.183,0,1,1,-4.183,0A4.183,4.183,0,1,1,4.183,0" fill="lightgray" stroke-width="2" opacity="0.9"/><path aria-label="Codon site: 2; dN/dS estimate: 106.187480731; CodonSite: 2; alpha: 1.03690947591; beta: 110.106804993; dN/dS MLE: 106.187480731; p_value: 0.44435240172; adjusted_p_value: 1" role="graphics-symbol" aria-roledescription="circle" transform="translate(60,0)" d="M4.183,0A4.183,4.183,0,1,1,-4.183,0A4.183,4.183,0,1,1,4.183,0" fill="lightgray" stroke-width="2" opacity="0.9"/><path aria-label="Codon site: 3; dN/dS estimate: 1.28358035532; CodonSite: 3; alpha: 6.36022447233; beta: 8.16385918813; dN/dS MLE: 1.28358035532; p_value: 0.978997609178; adjusted_p_value: 1" role="graphics-symbol" aria-roledescription="circle" transform="translate(90,221.9977973995417)" d="M4.183,0A4.183,4.183,0,1,1,-4.183,0A4.183,4.183,0,1,1,4.183,0" fill="lightgray" stroke-width="2" opacity="0.9"/><path aria-label="Codon site: 4; dN/dS estimate: 0.00000775250229372; CodonSite: 4; alpha: 6.48349037564; beta: 0.0000502632740084; dN/dS MLE: 0.00000775250229372; p_value: 0.656825744182; adjusted_p_value: 1" role="graphics-symbol" aria-roledescription="circle" transform="translate(120,449.43966408030934)" d="M4.183,0A4.183,4.183,0,1,1,-4.183,0A4.183,4.183,0,1,1,4.183,0" fill="lightgray" stroke-width="2" opacity="0.9"/><path aria-label="Codon site: 5; dN/dS estimate: 0.00000279567548532; CodonSite: 5; alpha: 0.840329456075; beta: 0.00000234928845994; dN/dS MLE: 0.00000279567548532; p_value: 0.849243322422; adjusted_p_value: 1" role="graphics-symbol" aria-roledescription="circle" transform="translate(150,449.6635109850896)" d="M4.183,0A4.183,4.183,0,1,1,-4.183,0A4.183,4.183,0,1,1,4.183,0" fill="lightgray" stroke-width="2" opacity="0.9"/><path aria-label="Codon site: 6; dN/dS estimate: 0.000222933314712; CodonSite: 6; alpha: 1.60390872102; beta: 0.000357564687672; dN/dS MLE: 0.000222933314712; p_value: 0.833057226474; adjusted_p_value: 1" role="graphics-symbol" aria-roledescription="circle" transform="translate(180,446.995203959363)" d="M4.183,0A4.183,4.183,0,1,1,-4.183,0A4.183,4.183,0,1,1,4.183,0" fill="lightgray" stroke-width="2" opacity="0.9"/><path aria-label="Codon site: 7; dN/dS estimate: 0; CodonSite: 7; alpha: 0; beta: 0; dN/dS MLE: 0; p_value: 1; adjusted_p_value: 1" role="graphics-symbol" aria-roledescription="circle" transform="translate(210,450)" d="M4.183,0A4.183,4.183,0,1,1,-4.183,0A4.183,4.183,0,1,1,4.183,0" fill="lightgray" stroke-width="2" opacity="0.9"/><path aria-label="Codon site: 8; dN/dS estimate: 0; CodonSite: 8; alpha: 0; beta: 0; dN/dS MLE: 0; p_value: 1; adjusted_p_value: 1" role="graphics-symbol" aria-roledescription="circle" transform="translate(240,450)" d="M4.183,0A4.183,4.183,0,1,1,-4.183,0A4.183,4.183,0,1,1,4.183,0" fill="lightgray" stroke-width="2" opacity="0.9"/><path aria-label="Codon site: 9; dN/dS estimate: 0; CodonSite: 9; alpha: 0; beta: 0; dN/dS MLE: 0; p_value: 1; adjusted_p_value: 1" role="graphics-symbol" aria-roledescription="circle" transform="translate(270,450)" d="M4.183,0A4.183,4.183,0,1,1,-4.183,0A4.183,4.183,0,1,1,4.183,0" fill="lightgray" stroke-width="2" opacity="0.9"/><path aria-label="Codon site: 10; dN/dS estimate: 0; CodonSite: 10; alpha: 0; beta: 0; dN/dS MLE: 0; p_value: 1; adjusted_p_value: 1" role="graphics-symbol" aria-roledescription="circle" transform="translate(300,450)" d="M4.183,0A4.183,4.183,0,1,1,-4.183,0A4.183,4.183,0,1,1,4.183,0" fill="lightgray" stroke-width="2" opacity="0.9"/><path aria-label="Codon site: 11; dN/dS estimate: 0.0000029691006139; CodonSite: 11; alpha: 0.0114510162162; beta: 3.39992192773e-8; dN/dS MLE: 0.0000029691006139; p_value: 1; adjusted_p_value: 1" role="graphics-symbol" aria-roledescription="circle" transform="translate(330,449.6532312371871)" d="M4.183,0A4.183,4.183,0,1,1,-4.183,0A4.183,4.183,0,1,1,4.183,0" fill="lightgray" stroke-width="2" opacity="0.9"/><path aria-label="Codon site: 12; dN/dS estimate: 1942.3305992; CodonSite: 12; alpha: 0.00170516125989; beta: 3.31198689164; dN/dS MLE: 1942.3305992; p_value: 1; adjusted_p_value: 1" role="graphics-symbol" aria-roledescription="circle" transform="translate(360,0)" d="M4.183,0A4.183,4.183,0,1,1,-4.183,0A4.183,4.183,0,1,1,4.183,0" fill="lightgray" stroke-width="2" opacity="0.9"/><path aria-label="Codon site: 13; dN/dS estimate: 10000; CodonSite: 13; alpha: 9.94181731914e-11; beta: 23.5912758243; dN/dS MLE: 10000; p_value: 0.147496207706; adjusted_p_value: 0.491654025685" role="graphics-symbol" aria-roledescription="circle" transform="translate(390,0)" d="M4.183,0A4.183,4.183,0,1,1,-4.183,0A4.183,4.183,0,1,1,4.183,0" fill="lightgray" stroke-width="2" opacity="0.9"/><path aria-label="Codon site: 14; dN/dS estimate: 10000; CodonSite: 14; alpha: 0.000597027704256; beta: 339.900199362; dN/dS MLE: 10000; p_value: 0.594270438337; adjusted_p_value: 1" role="graphics-symbol" aria-roledescription="circle" transform="translate(420,0)" d="M4.183,0A4.183,4.183,0,1,1,-4.183,0A4.183,4.183,0,1,1,4.183,0" fill="lightgray" stroke-width="2" opacity="0.9"/><path aria-label="Codon site: 15; dN/dS estimate: 10000; CodonSite: 15; alpha: 8.9427662706e-8; beta: 3364.20180023; dN/dS MLE: 10000; p_value: 0.571909317699; adjusted_p_value: 1" role="graphics-symbol" aria-roledescription="circle" transform="translate(450,0)" d="M4.183,0A4.183,4.183,0,1,1,-4.183,0A4.183,4.183,0,1,1,4.183,0" fill="lightgray" stroke-width="2" opacity="0.9"/><path aria-label="Codon site: 16; dN/dS estimate: 10000; CodonSite: 16; alpha: 2.85059086448e-11; beta: 1681.9468019; dN/dS MLE: 10000; p_value: 0.083393683147; adjusted_p_value: 0.357401499201" role="graphics-symbol" aria-roledescription="circle" transform="translate(480,0)" d="M4.183,0A4.183,4.183,0,1,1,-4.183,0A4.183,4.183,0,1,1,4.183,0" fill="lightgray" stroke-width="2" opacity="0.9"/><path aria-label="Codon site: 17; dN/dS estimate: 1409.31986172; CodonSite: 17; alpha: 0.48505066361; beta: 683.591534168; dN/dS MLE: 1409.31986172; p_value: 0.186391430976; adjusted_p_value: 0.5083402663" role="graphics-symbol" aria-roledescription="circle" transform="translate(510,0)" d="M4.183,0A4.183,4.183,0,1,1,-4.183,0A4.183,4.183,0,1,1,4.183,0" fill="lightgray" stroke-width="2" opacity="0.9"/><path aria-label="Codon site: 18; dN/dS estimate: 10000; CodonSite: 18; alpha: 6.87162084684e-9; beta: 0.000853158651977; dN/dS MLE: 10000; p_value: 1; adjusted_p_value: 1" role="graphics-symbol" aria-roledescription="circle" transform="translate(540,0)" d="M4.183,0A4.183,4.183,0,1,1,-4.183,0A4.183,4.183,0,1,1,4.183,0" fill="lightgray" stroke-width="2" opacity="0.9"/><path aria-label="Codon site: 19; dN/dS estimate: 9.97408889811e-7; CodonSite: 19; alpha: 3.96534773868; beta: 0.00000395507308575; dN/dS MLE: 9.97408889811e-7; p_value: 0.284755808464; adjusted_p_value: 0.711889521159" role="graphics-symbol" aria-roledescription="circle" transform="translate(570,449.79901477656966)" d="M4.183,0A4.183,4.183,0,1,1,-4.183,0A4.183,4.183,0,1,1,4.183,0" fill="lightgray" stroke-width="2" opacity="0.9"/><path aria-label="Codon site: 20; dN/dS estimate: 10000; CodonSite: 20; alpha: 1.38825962942e-7; beta: 13.7987032876; dN/dS MLE: 10000; p_value: 0.134430734363; adjusted_p_value: 0.491654025685" role="graphics-symbol" aria-roledescription="circle" transform="translate(600,0)" d="M4.183,0A4.183,4.183,0,1,1,-4.183,0A4.183,4.183,0,1,1,4.183,0" fill="lightgray" stroke-width="2" opacity="0.9"/><path aria-label="Codon site: 21; dN/dS estimate: 4.92248341949; CodonSite: 21; alpha: 0.96993887627; beta: 4.77450803636; dN/dS MLE: 4.92248341949; p_value: 0.527723553474; adjusted_p_value: 1" role="graphics-symbol" aria-roledescription="circle" transform="translate(630,3.501871796307449)" d="M4.183,0A4.183,4.183,0,1,1,-4.183,0A4.183,4.183,0,1,1,4.183,0" fill="lightgray" stroke-width="2" opacity="0.9"/><path aria-label="Codon site: 22; dN/dS estimate: 20.6190918606; CodonSite: 22; alpha: 0.37497397513; beta: 7.73162283856; dN/dS MLE: 20.6190918606; p_value: 0.164450003317; adjusted_p_value: 0.493350009951" role="graphics-symbol" aria-roledescription="circle" transform="translate(660,0)" d="M4.183,0A4.183,4.183,0,1,1,-4.183,0A4.183,4.183,0,1,1,4.183,0" fill="lightgray" stroke-width="2" opacity="0.9"/><path aria-label="Codon site: 23; dN/dS estimate: 94.3594801465; CodonSite: 23; alpha: 0.344090283003; beta: 32.4681802276; dN/dS MLE: 94.3594801465; p_value: 0.00287962008291; adjusted_p_value: 0.0287962008291" role="graphics-symbol" aria-roledescription="circle" transform="translate(690,0)" d="M4.183,0A4.183,4.183,0,1,1,-4.183,0A4.183,4.183,0,1,1,4.183,0" fill="red" stroke-width="2" opacity="0.9"/><path aria-label="Codon site: 24; dN/dS estimate: 2.36668281799; CodonSite: 24; alpha: 2.89940655564; beta: 6.86197567761; dN/dS MLE: 2.36668281799; p_value: 0.586065417561; adjusted_p_value: 1" role="graphics-symbol" aria-roledescription="circle" transform="translate(720,140.40243197217652)" d="M4.183,0A4.183,4.183,0,1,1,-4.183,0A4.183,4.183,0,1,1,4.183,0" fill="lightgray" stroke-width="2" opacity="0.9"/><path aria-label="Codon site: 25; dN/dS estimate: 369.61902651; CodonSite: 25; alpha: 0.286167740283; beta: 105.773041582; dN/dS MLE: 369.61902651; p_value: 0.000101281016322; adjusted_p_value: 0.00303843048967" role="graphics-symbol" aria-roledescription="circle" transform="translate(750,0)" d="M4.183,0A4.183,4.183,0,1,1,-4.183,0A4.183,4.183,0,1,1,4.183,0" fill="red" stroke-width="2" opacity="0.9"/><path aria-label="Codon site: 26; dN/dS estimate: 18.2709298796; CodonSite: 26; alpha: 1.72499330474; beta: 31.5172317138; dN/dS MLE: 18.2709298796; p_value: 0.0303648373462; adjusted_p_value: 0.182189024077" role="graphics-symbol" aria-roledescription="circle" transform="translate(780,0)" d="M4.183,0A4.183,4.183,0,1,1,-4.183,0A4.183,4.183,0,1,1,4.183,0" fill="lightgray" stroke-width="2" opacity="0.9"/><path aria-label="Codon site: 27; dN/dS estimate: 10000; CodonSite: 27; alpha: 5.2492175814e-8; beta: 13.4854345698; dN/dS MLE: 10000; p_value: 0.0830764571365; adjusted_p_value: 0.357401499201" role="graphics-symbol" aria-roledescription="circle" transform="translate(810,0)" d="M4.183,0A4.183,4.183,0,1,1,-4.183,0A4.183,4.183,0,1,1,4.183,0" fill="lightgray" stroke-width="2" opacity="0.9"/><path aria-label="Codon site: 28; dN/dS estimate: 10000; CodonSite: 28; alpha: 5.39945055867e-7; beta: 40.2236079653; dN/dS MLE: 10000; p_value: 0.00413000481519; adjusted_p_value: 0.0309750361139" role="graphics-symbol" aria-roledescription="circle" transform="translate(840,0)" d="M4.183,0A4.183,4.183,0,1,1,-4.183,0A4.183,4.183,0,1,1,4.183,0" fill="red" stroke-width="2" opacity="0.9"/><path aria-label="Codon site: 29; dN/dS estimate: 562.482076769; CodonSite: 29; alpha: 0.167209090418; beta: 94.0521164331; dN/dS MLE: 562.482076769; p_value: 0.000369731476255; adjusted_p_value: 0.00554597214383" role="graphics-symbol" aria-roledescription="circle" transform="translate(870,0)" d="M4.183,0A4.183,4.183,0,1,1,-4.183,0A4.183,4.183,0,1,1,4.183,0" fill="red" stroke-width="2" opacity="0.9"/><path aria-label="Codon site: 30; dN/dS estimate: 0.0000551257580939; CodonSite: 30; alpha: 1.29608493349; beta: 0.0000714476645125; dN/dS MLE: 0.0000551257580939; p_value: 0.792603711338; adjusted_p_value: 1" role="graphics-symbol" aria-roledescription="circle" transform="translate(900,448.50581353144884)" d="M4.183,0A4.183,4.183,0,1,1,-4.183,0A4.183,4.183,0,1,1,4.183,0" fill="lightgray" stroke-width="2" opacity="0.9"/></g><g class="mark-group role-title"><g transform="translate(450,-22)"><path class="background" aria-hidden="true" d="M0,0h0v0h0Z" pointer-events="none"/><g><g class="mark-text role-title-text" role="graphics-symbol" aria-roledescription="title" aria-label="Title text 'FEL: BDNF-64 part 2'" pointer-events="none"><text text-anchor="middle" transform="translate(0,10)" font-family="sans-serif" font-size="13px" font-weight="bold" fill="#000" opacity="1">FEL: BDNF-64 part 2</text></g></g><path class="foreground" aria-hidden="true" d="" pointer-events="none" display="none"/></g></g></g><path class="foreground" aria-hidden="true" d="" display="none"/></g></g></g><defs><clipPath id="clip1"><rect x="0" y="0" width="900" height="450"/></clipPath></defs></svg>