<svg xmlns="http://www.w3.org/2000/svg" xmlns:xlink="http://www.w3.org/1999/xlink" version="1.1" class="marks" width="1057" height="515" viewBox="0 0 1057 515"><rect width="1057" height="515" fill="white"/><g fill="none" stroke-miterlimit="10" transform="translate(41,28)"><g class="mark-group role-frame root" role="graphics-object" aria-roledescription="group mark container"><g transform="translate(0,0)"><path class="background" aria-hidden="true" d="M0.5,0.5h900v450h-900Z" stroke="#ddd"/><g><g class="mark-group role-axis" aria-hidden="true"><g transform="translate(0.5,450.5)"><path class="background" aria-hidden="true" d="M0,0h0v0h0Z" pointer-events="none"/><g><g class="mark-rule role-axis-grid" pointer-events="none"><line transform="translate(0,-450)" x2="0" y2="450" stroke="#ddd" stroke-width="1" opacity="1"/><line transform="translate(35,-450)" x2="0" y2="450" stroke="#ddd" stroke-width="1" opacity="1"/><line transform="translate(69,-450)" x2="0" y2="450" stroke="#ddd" stroke-width="1" opacity="1"/><line transform="translate(104,-450)" x2="0" y2="450" stroke="#ddd" stroke-width="1" opacity="1"/><line transform="translate(138,-450)" x2="0" y2="450" stroke="#ddd" stroke-width="1" opacity="1"/><line transform="translate(173,-450)" x2="0" y2="450" stroke="#ddd" stroke-width="1" opacity="1"/><line transform="translate(208,-450)" x2="0" y2="450" stroke="#ddd" stroke-width="1" opacity="1"/><line transform="translate(242,-450)" x2="0" y2="450" stroke="#ddd" stroke-width="1" opacity="1"/><line transform="translate(277,-450)" x2="0" y2="450" stroke="#ddd" stroke-width="1" opacity="1"/><line transform="translate(312,-450)" x2="0" y2="450" stroke="#ddd" stroke-width="1" opacity="1"/><line transform="translate(346,-450)" x2="0" y2="450" stroke="#ddd" stroke-width="1" opacity="1"/><line transform="translate(381,-450)" x2="0" y2="450" stroke="#ddd" stroke-width="1" opacity="1"/><line transform="translate(415,-450)" x2="0" y2="450" stroke="#ddd" stroke-width="1" opacity="1"/><line transform="translate(450,-450)" x2="0" y2="450" stroke="#ddd" stroke-width="1" opacity="1"/><line transform="translate(485,-450)" x2="0" y2="450" stroke="#ddd" stroke-width="1" opacity="1"/><line transform="translate(519,-450)" x2="0" y2="450" stroke="#ddd" stroke-width="1" opacity="1"/><line transform="translate(554,-450)" x2="0" y2="450" stroke="#ddd" stroke-width="1" opacity="1"/><line transform="translate(588,-450)" x2="0" y2="450" stroke="#ddd" stroke-width="1" opacity="1"/><line transform="translate(623,-450)" x2="0" y2="450" stroke="#ddd" stroke-width="1" opacity="1"/><line transform="translate(658,-450)" x2="0" y2="450" stroke="#ddd" stroke-width="1" opacity="1"/><line transform="translate(692,-450)" x2="0" y2="450" stroke="#ddd" stroke-width="1" opacity="1"/><line transform="translate(727,-450)" x2="0" y2="450" stroke="#ddd" stroke-width="1" opacity="1"/><line transform="translate(762,-450)" x2="0" y2="450" stroke="#ddd" stroke-width="1" opacity="1"/><line transform="translate(796,-450)" x2="0" y2="450" stroke="#ddd" stroke-width="1" opacity="1"/><line transform="translate(831,-450)" x2="0" y2="450" stroke="#ddd" stroke-width="1" opacity="1"/><line transform="translate(865,-450)" x2="0" y2="450" stroke="#ddd" stroke-width="1" opacity="1"/><line transform="translate(900,-450)" x2="0" y2="450" stroke="#ddd" stroke-width="1" opacity="1"/></g></g><path class="foreground" aria-hidden="true" d="" pointer-events="none" display="none"/></g></g><g class="mark-group role-axis" aria-hidden="true"><g transform="translate(0.5,0.5)"><path class="background" aria-hidden="true" d="M0,0h0v0h0Z" pointer-events="none"/><g><g class="mark-rule role-axis-grid" pointer-events="none"><line transform="translate(0,450)" x2="900" y2="0" stroke="#ddd" stroke-width="1" opacity="1"/><line transform="translate(0,405)" x2="900" y2="0" stroke="#ddd" stroke-width="1" opacity="1"/><line transform="translate(0,360)" x2="900" y2="0" stroke="#ddd" stroke-width="1" opacity="1"/><line transform="translate(0,315)" x2="900" y2="0" stroke="#ddd" stroke-width="1" opacity="1"/><line transform="translate(0,270)" x2="900" y2="0" stroke="#ddd" stroke-width="1" opacity="1"/><line transform="translate(0,225)" x2="900" y2="0" stroke="#ddd" stroke-width="1" opacity="1"/><line transform="translate(0,180)" x2="900" y2="0" stroke="#ddd" stroke-width="1" opacity="1"/><line transform="translate(0,135)" x2="900" y2="0" stroke="#ddd" stroke-width="1" opacity="1"/><line transform="translate(0,90)" x2="900" y2="0" stroke="#ddd" stroke-width="1" opacity="1"/><line transform="translate(0,45)" x2="900" y2="0" stroke="#ddd" stroke-width="1" opacity="1"/><line transform="translate(0,0)" x2="900" y2="0" stroke="#ddd" stroke-width="1" opacity="1"/></g></g><path class="foreground" aria-hidden="true" d="" pointer-events="none" display="none"/></g></g><g class="mark-group role-axis" role="graphics-symbol" aria-roledescription="axis" aria-label="X-axis titled 'Codon site' for a linear scale with values from 0 to 26"><g transform="translate(0.5,450.5)"><path class="background" aria-hidden="true" d="M0,0h0v0h0Z" pointer-events="none"/><g><g class="mark-rule role-axis-tick" pointer-events="none"><line transform="translate(0,0)" x2="0" y2="5" stroke="#888" stroke-width="1" opacity="1"/><line transform="translate(35,0)" x2="0" y2="5" stroke="#888" stroke-width="1" opacity="1"/><line transform="translate(69,0)" x2="0" y2="5" stroke="#888" stroke-width="1" opacity="1"/><line transform="translate(104,0)" x2="0" y2="5" stroke="#888" stroke-width="1" opacity="1"/><line transform="translate(138,0)" x2="0" y2="5" stroke="#888" stroke-width="1" opacity="1"/><line transform="translate(173,0)" x2="0" y2="5" stroke="#888" stroke-width="1" opacity="1"/><line transform="translate(208,0)" x2="0" y2="5" stroke="#888" stroke-width="1" opacity="1"/><line transform="translate(242,0)" x2="0" y2="5" stroke="#888" stroke-width="1" opacity="1"/><line transform="translate(277,0)" x2="0" y2="5" stroke="#888" stroke-width="1" opacity="1"/><line transform="translate(312,0)" x2="0" y2="5" stroke="#888" stroke-width="1" opacity="1"/><line transform="translate(346,0)" x2="0" y2="5" stroke="#888" stroke-width="1" opacity="1"/><line transform="translate(381,0)" x2="0" y2="5" stroke="#888" stroke-width="1" opacity="1"/><line transform="translate(415,0)" x2="0" y2="5" stroke="#888" stroke-width="1" opacity="1"/><line transform="translate(450,0)" x2="0" y2="5" stroke="#888" stroke-width="1" opacity="1"/><line transform="translate(485,0)" x2="0" y2="5" stroke="#888" stroke-width="1" opacity="1"/><line transform="translate(519,0)" x2="0" y2="5" stroke="#888" stroke-width="1" opacity="1"/><line transform="translate(554,0)" x2="0" y2="5" stroke="#888" stroke-width="1" opacity="1"/><line transform="translate(588,0)" x2="0" y2="5" stroke="#888" stroke-width="1" opacity="1"/><line transform="translate(623,0)" x2="0" y2="5" stroke="#888" stroke-width="1" opacity="1"/><line transform="translate(658,0)" x2="0" y2="5" stroke="#888" stroke-width="1" opacity="1"/><line transform="translate(692,0)" x2="0" y2="5" stroke="#888" stroke-width="1" opacity="1"/><line transform="translate(727,0)" x2="0" y2="5" stroke="#888" stroke-width="1" opacity="1"/><line transform="translate(762,0)" x2="0" y2="5" stroke="#888" stroke-width="1" opacity="1"/><line transform="translate(796,0)" x2="0" y2="5" stroke="#888" stroke-width="1" opacity="1"/><line transform="translate(831,0)" x2="0" y2="5" stroke="#888" stroke-width="1" opacity="1"/><line transform="translate(865,0)" x2="0" y2="5" stroke="#888" stroke-width="1" opacity="1"/><line transform="translate(900,0)" x2="0" y2="5" stroke="#888" stroke-width="1" opacity="1"/></g><g class="mark-text role-axis-label" pointer-events="none"><text text-anchor="start" transform="translate(0,15)" font-family="sans-serif" font-size="10px" fill="#000" opacity="1">0</text><text text-anchor="middle" transform="translate(34.61538461538462,15)" font-family="sans-serif" font-size="10px" fill="#000" opacity="1">1</text><text text-anchor="middle" transform="translate(69.23076923076924,15)" font-family="sans-serif" font-size="10px" fill="#000" opacity="1">2</text><text text-anchor="middle" transform="translate(103.84615384615385,15)" font-family="sans-serif" font-size="10px" fill="#000" opacity="1">3</text><text text-anchor="middle" transform="translate(138.46153846153848,15)" font-family="sans-serif" font-size="10px" fill="#000" opacity="1">4</text><text text-anchor="middle" transform="translate(173.0769230769231,15)" font-family="sans-serif" font-size="10px" fill="#000" opacity="1">5</text><text text-anchor="middle" transform="translate(207.6923076923077,15)" font-family="sans-serif" font-size="10px" fill="#000" opacity="1">6</text><text text-anchor="middle" transform="translate(242.3076923076923,15)" font-family="sans-serif" font-size="10px" fill="#000" opacity="1">7</text><text text-anchor="middle" transform="translate(276.92307692307696,15)" font-family="sans-serif" font-size="10px" fill="#000" opacity="1">8</text><text text-anchor="middle" transform="translate(311.53846153846155,15)" font-family="sans-serif" font-size="10px" fill="#000" opacity="1">9</text><text text-anchor="middle" transform="translate(346.1538461538462,15)" font-family="sans-serif" font-size="10px" fill="#000" opacity="1">10</text><text text-anchor="middle" transform="translate(380.7692307692308,15)" font-family="sans-serif" font-size="10px" fill="#000" opacity="1">11</text><text text-anchor="middle" transform="translate(415.3846153846154,15)" font-family="sans-serif" font-size="10px" fill="#000" opacity="1">12</text><text text-anchor="middle" transform="translate(450,15)" font-family="sans-serif" font-size="10px" fill="#000" opacity="1">13</text><text text-anchor="middle" transform="translate(484.6153846153846,15)" font-family="sans-serif" font-size="10px" fill="#000" opacity="1">14</text><text text-anchor="middle" transform="translate(519.2307692307692,15)" font-family="sans-serif" font-size="10px" fill="#000" opacity="1">15</text><text text-anchor="middle" transform="translate(553.8461538461539,15)" font-family="sans-serif" font-size="10px" fill="#000" opacity="1">16</text><text text-anchor="middle" transform="translate(588.4615384615385,15)" font-family="sans-serif" font-size="10px" fill="#000" opacity="1">17</text><text text-anchor="middle" transform="translate(623.0769230769231,15)" font-family="sans-serif" font-size="10px" fill="#000" opacity="1">18</text><text text-anchor="middle" transform="translate(657.6923076923076,15)" font-family="sans-serif" font-size="10px" fill="#000" opacity="1">19</text><text text-anchor="middle" transform="translate(692.3076923076924,15)" font-family="sans-serif" font-size="10px" fill="#000" opacity="1">20</text><text text-anchor="middle" transform="translate(726.9230769230769,15)" font-family="sans-serif" font-size="10px" fill="#000" opacity="1">21</text><text text-anchor="middle" transform="translate(761.5384615384615,15)" font-family="sans-serif" font-size="10px" fill="#000" opacity="1">22</text><text text-anchor="middle" transform="translate(796.1538461538461,15)" font-family="sans-serif" font-size="10px" fill="#000" opacity="1">23</text><text text-anchor="middle" transform="translate(830.7692307692308,15)" font-family="sans-serif" font-size="10px" fill="#000" opacity="1">24</text><text text-anchor="middle" transform="translate(865.3846153846154,15)" font-family="sans-serif" font-size="10px" fill="#000" opacity="1">25</text><text text-anchor="end" transform="translate(900,15)" font-family="sans-serif" font-size="10px" fill="#000" opacity="1">26</text></g><g class="mark-rule role-axis-domain" pointer-events="none"><line transform="translate(0,0)" x2="900" y2="0" stroke="#888" stroke-width="1" opacity="1"/></g><g class="mark-text role-axis-title" pointer-events="none"><text text-anchor="middle" transform="translate(450,30)" font-family="sans-serif" font-size="11px" font-weight="bold" fill="#000" opacity="1">Codon site</text></g></g><path class="foreground" aria-hidden="true" d="" pointer-events="none" display="none"/></g></g><g class="mark-group role-axis" role="graphics-symbol" aria-roledescription="axis" aria-label="Y-axis titled 'Adjusted p-value' for a linear scale with values from 0.0 to 1.0"><g transform="translate(0.5,0.5)"><path class="background" aria-hidden="true" d="M0,0h0v0h0Z" pointer-events="none"/><g><g class="mark-rule role-axis-tick" pointer-events="none"><line transform="translate(0,450)" x2="-5" y2="0" stroke="#888" stroke-width="1" opacity="1"/><line transform="translate(0,405)" x2="-5" y2="0" stroke="#888" stroke-width="1" opacity="1"/><line transform="translate(0,360)" x2="-5" y2="0" stroke="#888" stroke-width="1" opacity="1"/><line transform="translate(0,315)" x2="-5" y2="0" stroke="#888" stroke-width="1" opacity="1"/><line transform="translate(0,270)" x2="-5" y2="0" stroke="#888" stroke-width="1" opacity="1"/><line transform="translate(0,225)" x2="-5" y2="0" stroke="#888" stroke-width="1" opacity="1"/><line transform="translate(0,180)" x2="-5" y2="0" stroke="#888" stroke-width="1" opacity="1"/><line transform="translate(0,135)" x2="-5" y2="0" stroke="#888" stroke-width="1" opacity="1"/><line transform="translate(0,90)" x2="-5" y2="0" stroke="#888" stroke-width="1" opacity="1"/><line transform="translate(0,45)" x2="-5" y2="0" stroke="#888" stroke-width="1" opacity="1"/><line transform="translate(0,0)" x2="-5" y2="0" stroke="#888" stroke-width="1" opacity="1"/></g><g class="mark-text role-axis-label" pointer-events="none"><text text-anchor="end" transform="translate(-7,453)" font-family="sans-serif" font-size="10px" fill="#000" opacity="1">0.0</text><text text-anchor="end" transform="translate(-7,408)" font-family="sans-serif" font-size="10px" fill="#000" opacity="1">0.1</text><text text-anchor="end" transform="translate(-7,363)" font-family="sans-serif" font-size="10px" fill="#000" opacity="1">0.2</text><text text-anchor="end" transform="translate(-7,318)" font-family="sans-serif" font-size="10px" fill="#000" opacity="1">0.3</text><text text-anchor="end" transform="translate(-7,273)" font-family="sans-serif" font-size="10px" fill="#000" opacity="1">0.4</text><text text-anchor="end" transform="translate(-7,228)" font-family="sans-serif" font-size="10px" fill="#000" opacity="1">0.5</text><text text-anchor="end" transform="translate(-7,183)" font-family="sans-serif" font-size="10px" fill="#000" opacity="1">0.6</text><text text-anchor="end" transform="translate(-7,138.00000000000003)" font-family="sans-serif" font-size="10px" fill="#000" opacity="1">0.7</text><text text-anchor="end" transform="translate(-7,92.99999999999999)" font-family="sans-serif" font-size="10px" fill="#000" opacity="1">0.8</text><text text-anchor="end" transform="translate(-7,47.99999999999999)" font-family="sans-serif" font-size="10px" fill="#000" opacity="1">0.9</text><text text-anchor="end" transform="translate(-7,3)" font-family="sans-serif" font-size="10px" fill="#000" opacity="1">1.0</text></g><g class="mark-rule role-axis-domain" pointer-events="none"><line transform="translate(0,450)" x2="0" y2="-450" stroke="#888" stroke-width="1" opacity="1"/></g><g class="mark-text role-axis-title" pointer-events="none"><text text-anchor="middle" transform="translate(-24.9013671875,225) rotate(-90) translate(0,-2)" font-family="sans-serif" font-size="11px" font-weight="bold" fill="#000" opacity="1">Adjusted p-value</text></g></g><path class="foreground" aria-hidden="true" d="" pointer-events="none" display="none"/></g></g><g class="mark-symbol role-mark marks" role="graphics-object" aria-roledescription="symbol mark container"><path aria-label="Codon site: 1; Adjusted p-value: 1; adjusted_p_value: 1; p-value: 1; adjusted p-value: 1" role="graphics-symbol" aria-roledescription="point" transform="translate(34.61538461538462,0)" d="M3.708,0A3.708,3.708,0,1,1,-3.708,0A3.708,3.708,0,1,1,3.708,0" stroke="rgb(253, 201, 180)" stroke-width="2" opacity="0.7"/><path aria-label="Codon site: 2; Adjusted p-value: 1; adjusted_p_value: 1; p-value: 1; adjusted p-value: 1" role="graphics-symbol" aria-roledescription="point" transform="translate(69.23076923076924,0)" d="M3.708,0A3.708,3.708,0,1,1,-3.708,0A3.708,3.708,0,1,1,3.708,0" stroke="rgb(253, 201, 180)" stroke-width="2" opacity="0.7"/><path aria-label="Codon site: 3; Adjusted p-value: 1; adjusted_p_value: 1; p-value: 1; adjusted p-value: 1" role="graphics-symbol" aria-roledescription="point" transform="translate(103.84615384615385,0)" d="M3.708,0A3.708,3.708,0,1,1,-3.708,0A3.708,3.708,0,1,1,3.708,0" stroke="rgb(253, 201, 180)" stroke-width="2" opacity="0.7"/><path aria-label="Codon site: 4; Adjusted p-value: 1; adjusted_p_value: 1; p-value: 1; adjusted p-value: 1" role="graphics-symbol" aria-roledescription="point" transform="translate(138.46153846153848,0)" d="M3.708,0A3.708,3.708,0,1,1,-3.708,0A3.708,3.708,0,1,1,3.708,0" stroke="rgb(253, 201, 180)" stroke-width="2" opacity="0.7"/><path aria-label="Codon site: 5; Adjusted p-value: 1; adjusted_p_value: 1; p-value: 1; adjusted p-value: 1" role="graphics-symbol" aria-roledescription="point" transform="translate(173.0769230769231,0)" d="M3.708,0A3.708,3.708,0,1,1,-3.708,0A3.708,3.708,0,1,1,3.708,0" stroke="rgb(253, 201, 180)" stroke-width="2" opacity="0.7"/><path aria-label="Codon site: 6; Adjusted p-value: 0.833333333333; adjusted_p_value: 0.833333333333; p-value: 0.666666666667; adjusted p-value: 0.833333333333" role="graphics-symbol" aria-roledescription="point" transform="translate(207.6923076923077,75.00000000000003)" d="M3.708,0A3.708,3.708,0,1,1,-3.708,0A3.708,3.708,0,1,1,3.708,0" stroke="rgb(251, 127, 96)" stroke-width="2" opacity="0.7"/><path aria-label="Codon site: 7; Adjusted p-value: 0.833333333333; adjusted_p_value: 0.833333333333; p-value: 0.666666666667; adjusted p-value: 0.833333333333" role="graphics-symbol" aria-roledescription="point" transform="translate(242.3076923076923,75.00000000000003)" d="M3.708,0A3.708,3.708,0,1,1,-3.708,0A3.708,3.708,0,1,1,3.708,0" stroke="rgb(251, 127, 96)" stroke-width="2" opacity="0.7"/><path aria-label="Codon site: 8; Adjusted p-value: 0.833333333333; adjusted_p_value: 0.833333333333; p-value: 0.621440906063; adjusted p-value: 0.833333333333" role="graphics-symbol" aria-roledescription="point" transform="translate(276.92307692307696,75.00000000000003)" d="M3.708,0A3.708,3.708,0,1,1,-3.708,0A3.708,3.708,0,1,1,3.708,0" stroke="rgb(251, 127, 96)" stroke-width="2" opacity="0.7"/><path aria-label="Codon site: 9; Adjusted p-value: 0.833333333333; adjusted_p_value: 0.833333333333; p-value: 0.506639044645; adjusted p-value: 0.833333333333" role="graphics-symbol" aria-roledescription="point" transform="translate(311.53846153846155,75.00000000000003)" d="M3.708,0A3.708,3.708,0,1,1,-3.708,0A3.708,3.708,0,1,1,3.708,0" stroke="rgb(251, 127, 96)" stroke-width="2" opacity="0.7"/><path aria-label="Codon site: 10; Adjusted p-value: 0.833333333333; adjusted_p_value: 0.833333333333; p-value: 0.549231548877; adjusted p-value: 0.833333333333" role="graphics-symbol" aria-roledescription="point" transform="translate(346.1538461538462,75.00000000000003)" d="M3.708,0A3.708,3.708,0,1,1,-3.708,0A3.708,3.708,0,1,1,3.708,0" stroke="rgb(251, 127, 96)" stroke-width="2" opacity="0.7"/><path aria-label="Codon site: 11; Adjusted p-value: 0.833333333333; adjusted_p_value: 0.833333333333; p-value: 0.54884874386; adjusted p-value: 0.833333333333" role="graphics-symbol" aria-roledescription="point" transform="translate(380.7692307692308,75.00000000000003)" d="M3.708,0A3.708,3.708,0,1,1,-3.708,0A3.708,3.708,0,1,1,3.708,0" stroke="rgb(251, 127, 96)" stroke-width="2" opacity="0.7"/><path aria-label="Codon site: 12; Adjusted p-value: 0.833333333333; adjusted_p_value: 0.833333333333; p-value: 0.57746220517; adjusted p-value: 0.833333333333" role="graphics-symbol" aria-roledescription="point" transform="translate(415.3846153846154,75.00000000000003)" d="M3.708,0A3.708,3.708,0,1,1,-3.708,0A3.708,3.708,0,1,1,3.708,0" stroke="rgb(251, 127, 96)" stroke-width="2" opacity="0.7"/><path aria-label="Codon site: 13; Adjusted p-value: 0.833333333333; adjusted_p_value: 0.833333333333; p-value: 0.666666666667; adjusted p-value: 0.833333333333" role="graphics-symbol" aria-roledescription="point" transform="translate(450,75.00000000000003)" d="M3.708,0A3.708,3.708,0,1,1,-3.708,0A3.708,3.708,0,1,1,3.708,0" stroke="rgb(251, 127, 96)" stroke-width="2" opacity="0.7"/><path aria-label="Codon site: 14; Adjusted p-value: 0.833333333333; adjusted_p_value: 0.833333333333; p-value: 0.666666666667; adjusted p-value: 0.833333333333" role="graphics-symbol" aria-roledescription="point" transform="translate(484.6153846153846,75.00000000000003)" d="M3.708,0A3.708,3.708,0,1,1,-3.708,0A3.708,3.708,0,1,1,3.708,0" stroke="rgb(251, 127, 96)" stroke-width="2" opacity="0.7"/><path aria-label="Codon site: 15; Adjusted p-value: 0.833333333333; adjusted_p_value: 0.833333333333; p-value: 0.335972684368; adjusted p-value: 0.833333333333" role="graphics-symbol" aria-roledescription="point" transform="translate(519.2307692307692,75.00000000000003)" d="M3.708,0A3.708,3.708,0,1,1,-3.708,0A3.708,3.708,0,1,1,3.708,0" stroke="rgb(251, 127, 96)" stroke-width="2" opacity="0.7"/><path aria-label="Codon site: 16; Adjusted p-value: 0.833333333333; adjusted_p_value: 0.833333333333; p-value: 0.666666666667; adjusted p-value: 0.833333333333" role="graphics-symbol" aria-roledescription="point" transform="translate(553.8461538461539,75.00000000000003)" d="M3.708,0A3.708,3.708,0,1,1,-3.708,0A3.708,3.708,0,1,1,3.708,0" stroke="rgb(251, 127, 96)" stroke-width="2" opacity="0.7"/><path aria-label="Codon site: 17; Adjusted p-value: 0.833333333333; adjusted_p_value: 0.833333333333; p-value: 0.520322820484; adjusted p-value: 0.833333333333" role="graphics-symbol" aria-roledescription="point" transform="translate(588.4615384615385,75.00000000000003)" d="M3.708,0A3.708,3.708,0,1,1,-3.708,0A3.708,3.708,0,1,1,3.708,0" stroke="rgb(251, 127, 96)" stroke-width="2" opacity="0.7"/><path aria-label="Codon site: 18; Adjusted p-value: 0.833333333333; adjusted_p_value: 0.833333333333; p-value: 0.197145282813; adjusted p-value: 0.833333333333" role="graphics-symbol" aria-roledescription="point" transform="translate(623.0769230769231,75.00000000000003)" d="M3.708,0A3.708,3.708,0,1,1,-3.708,0A3.708,3.708,0,1,1,3.708,0" stroke="rgb(251, 127, 96)" stroke-width="2" opacity="0.7"/><path aria-label="Codon site: 19; Adjusted p-value: 0.833333333333; adjusted_p_value: 0.833333333333; p-value: 0.666666666667; adjusted p-value: 0.833333333333" role="graphics-symbol" aria-roledescription="point" transform="translate(657.6923076923076,75.00000000000003)" d="M3.708,0A3.708,3.708,0,1,1,-3.708,0A3.708,3.708,0,1,1,3.708,0" stroke="rgb(251, 127, 96)" stroke-width="2" opacity="0.7"/><path aria-label="Codon site: 20; Adjusted p-value: 0.716019044697; adjusted_p_value: 0.716019044697; p-value: 0.0987354967812; adjusted p-value: 0.716019044697" role="graphics-symbol" aria-roledescription="point" transform="translate(692.3076923076924,127.79142988620654)" d="M3.708,0A3.708,3.708,0,1,1,-3.708,0A3.708,3.708,0,1,1,3.708,0" stroke="rgb(239, 71, 52)" stroke-width="2" opacity="0.7"/><path aria-label="Codon site: 21; Adjusted p-value: 0.833333333333; adjusted_p_value: 0.833333333333; p-value: 0.666666666667; adjusted p-value: 0.833333333333" role="graphics-symbol" aria-roledescription="point" transform="translate(726.9230769230769,75.00000000000003)" d="M3.708,0A3.708,3.708,0,1,1,-3.708,0A3.708,3.708,0,1,1,3.708,0" stroke="rgb(251, 127, 96)" stroke-width="2" opacity="0.7"/><path aria-label="Codon site: 22; Adjusted p-value: 0.716019044697; adjusted_p_value: 0.716019044697; p-value: 0.114563047152; adjusted p-value: 0.716019044697" role="graphics-symbol" aria-roledescription="point" transform="translate(761.5384615384615,127.79142988620654)" d="M3.708,0A3.708,3.708,0,1,1,-3.708,0A3.708,3.708,0,1,1,3.708,0" stroke="rgb(239, 71, 52)" stroke-width="2" opacity="0.7"/><path aria-label="Codon site: 23; Adjusted p-value: 0.500166015773; adjusted_p_value: 0.500166015773; p-value: 0.0400132812619; adjusted p-value: 0.500166015773" role="graphics-symbol" aria-roledescription="point" transform="translate(796.1538461538461,224.92529290197953)" d="M3.708,0A3.708,3.708,0,1,1,-3.708,0A3.708,3.708,0,1,1,3.708,0" stroke="rgb(151, 11, 19)" stroke-width="2" opacity="0.7"/><path aria-label="Codon site: 24; Adjusted p-value: 0.500166015773; adjusted_p_value: 0.500166015773; p-value: 0.0246554835453; adjusted p-value: 0.500166015773" role="graphics-symbol" aria-roledescription="point" transform="translate(830.7692307692308,224.92529290197953)" d="M3.708,0A3.708,3.708,0,1,1,-3.708,0A3.708,3.708,0,1,1,3.708,0" stroke="rgb(151, 11, 19)" stroke-width="2" opacity="0.7"/><path aria-label="Codon site: 25; Adjusted p-value: 0.833333333333; adjusted_p_value: 0.833333333333; p-value: 0.666666666667; adjusted p-value: 0.833333333333" role="graphics-symbol" aria-roledescription="point" transform="translate(865.3846153846154,75.00000000000003)" d="M3.708,0A3.708,3.708,0,1,1,-3.708,0A3.708,3.708,0,1,1,3.708,0" stroke="rgb(251, 127, 96)" stroke-width="2" opacity="0.7"/></g><g class="mark-group role-legend" role="graphics-symbol" aria-roledescription="legend" aria-label="Gradient legend titled 'adjusted_p_value' for stroke color with values from 0.5 to 1.0"><g transform="translate(918,0)"><path class="background" aria-hidden="true" d="M0,0h93v216h-93Z" pointer-events="none"/><g><g class="mark-group role-legend-entry"><g transform="translate(0,16)"><path class="background" aria-hidden="true" d="M0,0h0v0h0Z" pointer-events="none"/><g><g class="mark-rect role-legend-gradient" pointer-events="none"><path d="M0,0h16v200h-16Z" fill="url(#gradient_0)" stroke="#ddd" stroke-width="0" opacity="0.7"/></g><g class="mark-text role-legend-label" pointer-events="none"><text text-anchor="start" transform="translate(18,163.05314269253162)" font-family="sans-serif" font-size="10px" fill="#000" opacity="1">0.6</text><text text-anchor="start" transform="translate(18,123.03985701939874)" font-family="sans-serif" font-size="10px" fill="#000" opacity="1">0.7</text><text text-anchor="start" transform="translate(18,83.02657134626578)" font-family="sans-serif" font-size="10px" fill="#000" opacity="1">0.8</text><text text-anchor="start" transform="translate(18,43.01328567313289)" font-family="sans-serif" font-size="10px" fill="#000" opacity="1">0.9</text><text text-anchor="start" transform="translate(18,8)" font-family="sans-serif" font-size="10px" fill="#000" opacity="1">1.0</text></g></g><path class="foreground" aria-hidden="true" d="" pointer-events="none" display="none"/></g></g><g class="mark-text role-legend-title" pointer-events="none"><text text-anchor="start" transform="translate(0,9)" font-family="sans-serif" font-size="11px" font-weight="bold" fill="#000" opacity="1">adjusted_p_value</text></g></g><path class="foreground" aria-hidden="true" d="" pointer-events="none" display="none"/></g></g><g class="mark-group role-title"><g transform="translate(450,-22.70809924354783)"><path class="background" aria-hidden="true" d="M0,0h0v0h0Z" pointer-events="none"/><g><g class="mark-text role-title-text" role="graphics-symbol" aria-roledescription="title" aria-label="Title text 'MEME: BDNF-64 part 2'" pointer-events="none"><text text-anchor="middle" transform="translate(0,10)" font-family="sans-serif" font-size="13px" font-weight="bold" fill="#000" opacity="1">MEME: BDNF-64 part 2</text></g></g><path class="foreground" aria-hidden="true" d="" pointer-events="none" display="none"/></g></g></g><path class="foreground" aria-hidden="true" d="" display="none"/></g></g></g><defs><linearGradient id="gradient_0" x1="0" x2="0" y1="1" y2="0"><stop offset="0" stop-color="rgb(151, 11, 19)"/><stop offset="0.0997010723545097" stop-color="rgb(178, 18, 24)"/><stop offset="0.19973428653734185" stop-color="rgb(200, 27, 29)"/><stop offset="0.29976750072017416" stop-color="rgb(220, 42, 37)"/><stop offset="0.39980071490300634" stop-color="rgb(236, 63, 47)"/><stop offset="0.4998339290858387" stop-color="rgb(246, 87, 63)"/><stop offset="0.5998671432686711" stop-color="rgb(250, 112, 81)"/><stop offset="0.6999003574515031" stop-color="rgb(252, 135, 103)"/><stop offset="0.7999335716343355" stop-color="rgb(252, 158, 128)"/><stop offset="0.8999667858171676" stop-color="rgb(252, 180, 154)"/><stop offset="1" stop-color="rgb(253, 201, 180)"/></linearGradient></defs></svg>