<svg xmlns="http://www.w3.org/2000/svg" xmlns:xlink="http://www.w3.org/1999/xlink" version="1.1" class="marks" width="947" height="514" viewBox="0 0 947 514"><rect width="947" height="514" fill="white"/><g fill="none" stroke-miterlimit="10" transform="translate(41,27)"><g class="mark-group role-frame root" role="graphics-object" aria-roledescription="group mark container"><g transform="translate(0,0)"><path class="background" aria-hidden="true" d="M0.5,0.5h900v450h-900Z" stroke="#ddd"/><g><g class="mark-group role-axis" aria-hidden="true"><g transform="translate(0.5,450.5)"><path class="background" aria-hidden="true" d="M0,0h0v0h0Z" pointer-events="none"/><g><g class="mark-rule role-axis-grid" pointer-events="none"><line transform="translate(0,-450)" x2="0" y2="450" stroke="#ddd" stroke-width="1" opacity="1"/><line transform="translate(32,-450)" x2="0" y2="450" stroke="#ddd" stroke-width="1" opacity="1"/><line transform="translate(64,-450)" x2="0" y2="450" stroke="#ddd" stroke-width="1" opacity="1"/><line transform="translate(96,-450)" x2="0" y2="450" stroke="#ddd" stroke-width="1" opacity="1"/><line transform="translate(129,-450)" x2="0" y2="450" stroke="#ddd" stroke-width="1" opacity="1"/><line transform="translate(161,-450)" x2="0" y2="450" stroke="#ddd" stroke-width="1" opacity="1"/><line transform="translate(193,-450)" x2="0" y2="450" stroke="#ddd" stroke-width="1" opacity="1"/><line transform="translate(225,-450)" x2="0" y2="450" stroke="#ddd" stroke-width="1" opacity="1"/><line transform="translate(257,-450)" x2="0" y2="450" stroke="#ddd" stroke-width="1" opacity="1"/><line transform="translate(289,-450)" x2="0" y2="450" stroke="#ddd" stroke-width="1" opacity="1"/><line transform="translate(321,-450)" x2="0" y2="450" stroke="#ddd" stroke-width="1" opacity="1"/><line transform="translate(354,-450)" x2="0" y2="450" stroke="#ddd" stroke-width="1" opacity="1"/><line transform="translate(386,-450)" x2="0" y2="450" stroke="#ddd" stroke-width="1" opacity="1"/><line transform="translate(418,-450)" x2="0" y2="450" stroke="#ddd" stroke-width="1" opacity="1"/><line transform="translate(450,-450)" x2="0" y2="450" stroke="#ddd" stroke-width="1" opacity="1"/><line transform="translate(482,-450)" x2="0" y2="450" stroke="#ddd" stroke-width="1" opacity="1"/><line transform="translate(514,-450)" x2="0" y2="450" stroke="#ddd" stroke-width="1" opacity="1"/><line transform="translate(546,-450)" x2="0" y2="450" stroke="#ddd" stroke-width="1" opacity="1"/><line transform="translate(579,-450)" x2="0" y2="450" stroke="#ddd" stroke-width="1" opacity="1"/><line transform="translate(611,-450)" x2="0" y2="450" stroke="#ddd" stroke-width="1" opacity="1"/><line transform="translate(643,-450)" x2="0" y2="450" stroke="#ddd" stroke-width="1" opacity="1"/><line transform="translate(675,-450)" x2="0" y2="450" stroke="#ddd" stroke-width="1" opacity="1"/><line transform="translate(707,-450)" x2="0" y2="450" stroke="#ddd" stroke-width="1" opacity="1"/><line transform="translate(739,-450)" x2="0" y2="450" stroke="#ddd" stroke-width="1" opacity="1"/><line transform="translate(771,-450)" x2="0" y2="450" stroke="#ddd" stroke-width="1" opacity="1"/><line transform="translate(804,-450)" x2="0" y2="450" stroke="#ddd" stroke-width="1" opacity="1"/><line transform="translate(836,-450)" x2="0" y2="450" stroke="#ddd" stroke-width="1" opacity="1"/><line transform="translate(868,-450)" x2="0" y2="450" stroke="#ddd" stroke-width="1" opacity="1"/><line transform="translate(900,-450)" x2="0" y2="450" stroke="#ddd" stroke-width="1" opacity="1"/></g></g><path class="foreground" aria-hidden="true" d="" pointer-events="none" display="none"/></g></g><g class="mark-group role-axis" aria-hidden="true"><g transform="translate(0.5,0.5)"><path class="background" aria-hidden="true" d="M0,0h0v0h0Z" pointer-events="none"/><g><g class="mark-rule role-axis-grid" pointer-events="none"><line transform="translate(0,450)" x2="900" y2="0" stroke="#ddd" stroke-width="1" opacity="1"/><line transform="translate(0,308)" x2="900" y2="0" stroke="#ddd" stroke-width="1" opacity="1"/><line transform="translate(0,249)" x2="900" y2="0" stroke="#ddd" stroke-width="1" opacity="1"/><line transform="translate(0,204)" x2="900" y2="0" stroke="#ddd" stroke-width="1" opacity="1"/><line transform="translate(0,165)" x2="900" y2="0" stroke="#ddd" stroke-width="1" opacity="1"/><line transform="translate(0,132)" x2="900" y2="0" stroke="#ddd" stroke-width="1" opacity="1"/><line transform="translate(0,101)" x2="900" y2="0" stroke="#ddd" stroke-width="1" opacity="1"/><line transform="translate(0,74)" x2="900" y2="0" stroke="#ddd" stroke-width="1" opacity="1"/><line transform="translate(0,48)" x2="900" y2="0" stroke="#ddd" stroke-width="1" opacity="1"/><line transform="translate(0,23)" x2="900" y2="0" stroke="#ddd" stroke-width="1" opacity="1"/><line transform="translate(0,0)" x2="900" y2="0" stroke="#ddd" stroke-width="1" opacity="1"/></g></g><path class="foreground" aria-hidden="true" d="" pointer-events="none" display="none"/></g></g><g class="mark-group role-axis" role="graphics-symbol" aria-roledescription="axis" aria-label="X-axis titled 'Codon site' for a linear scale with values from 1 to 15"><g transform="translate(0.5,450.5)"><path class="background" aria-hidden="true" d="M0,0h0v0h0Z" pointer-events="none"/><g><g class="mark-rule role-axis-tick" pointer-events="none"><line transform="translate(0,0)" x2="0" y2="5" stroke="#888" stroke-width="1" opacity="1"/><line transform="translate(32,0)" x2="0" y2="5" stroke="#888" stroke-width="1" opacity="1"/><line transform="translate(64,0)" x2="0" y2="5" stroke="#888" stroke-width="1" opacity="1"/><line transform="translate(96,0)" x2="0" y2="5" stroke="#888" stroke-width="1" opacity="1"/><line transform="translate(129,0)" x2="0" y2="5" stroke="#888" stroke-width="1" opacity="1"/><line transform="translate(161,0)" x2="0" y2="5" stroke="#888" stroke-width="1" opacity="1"/><line transform="translate(193,0)" x2="0" y2="5" stroke="#888" stroke-width="1" opacity="1"/><line transform="translate(225,0)" x2="0" y2="5" stroke="#888" stroke-width="1" opacity="1"/><line transform="translate(257,0)" x2="0" y2="5" stroke="#888" stroke-width="1" opacity="1"/><line transform="translate(289,0)" x2="0" y2="5" stroke="#888" stroke-width="1" opacity="1"/><line transform="translate(321,0)" x2="0" y2="5" stroke="#888" stroke-width="1" opacity="1"/><line transform="translate(354,0)" x2="0" y2="5" stroke="#888" stroke-width="1" opacity="1"/><line transform="translate(386,0)" x2="0" y2="5" stroke="#888" stroke-width="1" opacity="1"/><line transform="translate(418,0)" x2="0" y2="5" stroke="#888" stroke-width="1" opacity="1"/><line transform="translate(450,0)" x2="0" y2="5" stroke="#888" stroke-width="1" opacity="1"/><line transform="translate(482,0)" x2="0" y2="5" stroke="#888" stroke-width="1" opacity="1"/><line transform="translate(514,0)" x2="0" y2="5" stroke="#888" stroke-width="1" opacity="1"/><line transform="translate(546,0)" x2="0" y2="5" stroke="#888" stroke-width="1" opacity="1"/><line transform="translate(579,0)" x2="0" y2="5" stroke="#888" stroke-width="1" opacity="1"/><line transform="translate(611,0)" x2="0" y2="5" stroke="#888" stroke-width="1" opacity="1"/><line transform="translate(643,0)" x2="0" y2="5" stroke="#888" stroke-width="1" opacity="1"/><line transform="translate(675,0)" x2="0" y2="5" stroke="#888" stroke-width="1" opacity="1"/><line transform="translate(707,0)" x2="0" y2="5" stroke="#888" stroke-width="1" opacity="1"/><line transform="translate(739,0)" x2="0" y2="5" stroke="#888" stroke-width="1" opacity="1"/><line transform="translate(771,0)" x2="0" y2="5" stroke="#888" stroke-width="1" opacity="1"/><line transform="translate(804,0)" x2="0" y2="5" stroke="#888" stroke-width="1" opacity="1"/><line transform="translate(836,0)" x2="0" y2="5" stroke="#888" stroke-width="1" opacity="1"/><line transform="translate(868,0)" x2="0" y2="5" stroke="#888" stroke-width="1" opacity="1"/><line transform="translate(900,0)" x2="0" y2="5" stroke="#888" stroke-width="1" opacity="1"/></g><g class="mark-text role-axis-label" pointer-events="none"><text text-anchor="start" transform="translate(0,15)" font-family="sans-serif" font-size="10px" fill="#000" opacity="1">1.0</text><text text-anchor="middle" transform="translate(32.14285714285714,15)" font-family="sans-serif" font-size="10px" fill="#000" opacity="1">1.5</text><text text-anchor="middle" transform="translate(64.28571428571428,15)" font-family="sans-serif" font-size="10px" fill="#000" opacity="1">2.0</text><text text-anchor="middle" transform="translate(96.42857142857142,15)" font-family="sans-serif" font-size="10px" fill="#000" opacity="1">2.5</text><text text-anchor="middle" transform="translate(128.57142857142856,15)" font-family="sans-serif" font-size="10px" fill="#000" opacity="1">3.0</text><text text-anchor="middle" transform="translate(160.71428571428572,15)" font-family="sans-serif" font-size="10px" fill="#000" opacity="1">3.5</text><text text-anchor="middle" transform="translate(192.85714285714283,15)" font-family="sans-serif" font-size="10px" fill="#000" opacity="1">4.0</text><text text-anchor="middle" transform="translate(225,15)" font-family="sans-serif" font-size="10px" fill="#000" opacity="1">4.5</text><text text-anchor="middle" transform="translate(257.1428571428571,15)" font-family="sans-serif" font-size="10px" fill="#000" opacity="1">5.0</text><text text-anchor="middle" transform="translate(289.28571428571433,15)" font-family="sans-serif" font-size="10px" fill="#000" opacity="1">5.5</text><text text-anchor="middle" transform="translate(321.42857142857144,15)" font-family="sans-serif" font-size="10px" fill="#000" opacity="1">6.0</text><text text-anchor="middle" transform="translate(353.57142857142856,15)" font-family="sans-serif" font-size="10px" fill="#000" opacity="1">6.5</text><text text-anchor="middle" transform="translate(385.71428571428567,15)" font-family="sans-serif" font-size="10px" fill="#000" opacity="1">7.0</text><text text-anchor="middle" transform="translate(417.8571428571429,15)" font-family="sans-serif" font-size="10px" fill="#000" opacity="1">7.5</text><text text-anchor="middle" transform="translate(450,15)" font-family="sans-serif" font-size="10px" fill="#000" opacity="1">8.0</text><text text-anchor="middle" transform="translate(482.1428571428571,15)" font-family="sans-serif" font-size="10px" fill="#000" opacity="1">8.5</text><text text-anchor="middle" transform="translate(514.2857142857142,15)" font-family="sans-serif" font-size="10px" fill="#000" opacity="1">9.0</text><text text-anchor="middle" transform="translate(546.4285714285713,15)" font-family="sans-serif" font-size="10px" fill="#000" opacity="1">9.5</text><text text-anchor="middle" transform="translate(578.5714285714287,15)" font-family="sans-serif" font-size="10px" fill="#000" opacity="1">10.0</text><text text-anchor="middle" transform="translate(610.7142857142858,15)" font-family="sans-serif" font-size="10px" fill="#000" opacity="1">10.5</text><text text-anchor="middle" transform="translate(642.8571428571429,15)" font-family="sans-serif" font-size="10px" fill="#000" opacity="1">11.0</text><text text-anchor="middle" transform="translate(675,15)" font-family="sans-serif" font-size="10px" fill="#000" opacity="1">11.5</text><text text-anchor="middle" transform="translate(707.1428571428571,15)" font-family="sans-serif" font-size="10px" fill="#000" opacity="1">12.0</text><text text-anchor="middle" transform="translate(739.2857142857142,15)" font-family="sans-serif" font-size="10px" fill="#000" opacity="1">12.5</text><text text-anchor="middle" transform="translate(771.4285714285713,15)" font-family="sans-serif" font-size="10px" fill="#000" opacity="1">13.0</text><text text-anchor="middle" transform="translate(803.5714285714287,15)" font-family="sans-serif" font-size="10px" fill="#000" opacity="1">13.5</text><text text-anchor="middle" transform="translate(835.7142857142858,15)" font-family="sans-serif" font-size="10px" fill="#000" opacity="1">14.0</text><text text-anchor="middle" transform="translate(867.8571428571429,15)" font-family="sans-serif" font-size="10px" fill="#000" opacity="1">14.5</text><text text-anchor="end" transform="translate(900,15)" font-family="sans-serif" font-size="10px" fill="#000" opacity="1">15.0</text></g><g class="mark-rule role-axis-domain" pointer-events="none"><line transform="translate(0,0)" x2="900" y2="0" stroke="#888" stroke-width="1" opacity="1"/></g><g class="mark-text role-axis-title" pointer-events="none"><text text-anchor="middle" transform="translate(450,30)" font-family="sans-serif" font-size="11px" font-weight="bold" fill="#000" opacity="1">Codon site</text></g></g><path class="foreground" aria-hidden="true" d="" pointer-events="none" display="none"/></g></g><g class="mark-group role-axis" role="graphics-symbol" aria-roledescription="axis" aria-label="Y-axis titled 'dN/dS estimate' for a sqrt scale with values from 0 to 5"><g transform="translate(0.5,0.5)"><path class="background" aria-hidden="true" d="M0,0h0v0h0Z" pointer-events="none"/><g><g class="mark-rule role-axis-tick" pointer-events="none"><line transform="translate(0,450)" x2="-5" y2="0" stroke="#888" stroke-width="1" opacity="1"/><line transform="translate(0,308)" x2="-5" y2="0" stroke="#888" stroke-width="1" opacity="1"/><line transform="translate(0,249)" x2="-5" y2="0" stroke="#888" stroke-width="1" opacity="1"/><line transform="translate(0,204)" x2="-5" y2="0" stroke="#888" stroke-width="1" opacity="1"/><line transform="translate(0,165)" x2="-5" y2="0" stroke="#888" stroke-width="1" opacity="1"/><line transform="translate(0,132)" x2="-5" y2="0" stroke="#888" stroke-width="1" opacity="1"/><line transform="translate(0,101)" x2="-5" y2="0" stroke="#888" stroke-width="1" opacity="1"/><line transform="translate(0,74)" x2="-5" y2="0" stroke="#888" stroke-width="1" opacity="1"/><line transform="translate(0,48)" x2="-5" y2="0" stroke="#888" stroke-width="1" opacity="1"/><line transform="translate(0,23)" x2="-5" y2="0" stroke="#888" stroke-width="1" opacity="1"/><line transform="translate(0,0)" x2="-5" y2="0" stroke="#888" stroke-width="1" opacity="1"/></g><g class="mark-text role-axis-label" pointer-events="none"><text text-anchor="end" transform="translate(-7,453)" font-family="sans-serif" font-size="10px" fill="#000" opacity="1">0.0</text><text text-anchor="end" transform="translate(-7,310.6975052924229)" font-family="sans-serif" font-size="10px" fill="#000" opacity="1">0.5</text><text text-anchor="end" transform="translate(-7,251.75388202501895)" font-family="sans-serif" font-size="10px" fill="#000" opacity="1">1.0</text><text text-anchor="end" transform="translate(-7,206.52484912267528)" font-family="sans-serif" font-size="10px" fill="#000" opacity="1">1.5</text><text text-anchor="end" transform="translate(-7,168.39501058484586)" font-family="sans-serif" font-size="10px" fill="#000" opacity="1">2.0</text><text text-anchor="end" transform="translate(-7,134.8019484660536)" font-family="sans-serif" font-size="10px" fill="#000" opacity="1">2.5</text><text text-anchor="end" transform="translate(-7,104.43149884133251)" font-family="sans-serif" font-size="10px" fill="#000" opacity="1">3.0</text><text text-anchor="end" transform="translate(-7,76.50298805966605)" font-family="sans-serif" font-size="10px" fill="#000" opacity="1">3.5</text><text text-anchor="end" transform="translate(-7,50.50776405003786)" font-family="sans-serif" font-size="10px" fill="#000" opacity="1">4.0</text><text text-anchor="end" transform="translate(-7,26.092515877268855)" font-family="sans-serif" font-size="10px" fill="#000" opacity="1">4.5</text><text text-anchor="end" transform="translate(-7,3)" font-family="sans-serif" font-size="10px" fill="#000" opacity="1">5.0</text></g><g class="mark-rule role-axis-domain" pointer-events="none"><line transform="translate(0,450)" x2="0" y2="-450" stroke="#888" stroke-width="1" opacity="1"/></g><g class="mark-text role-axis-title" pointer-events="none"><text text-anchor="middle" transform="translate(-24.9013671875,225) rotate(-90) translate(0,-2)" font-family="sans-serif" font-size="11px" font-weight="bold" fill="#000" opacity="1">dN/dS estimate</text></g></g><path class="foreground" aria-hidden="true" d="" pointer-events="none" display="none"/></g></g><g class="mark-area role-mark layer_0_marks" role="graphics-object" aria-roledescription="area mark container"><path aria-label="CodonSite: 1; dN/dS LB: 0; dN/dS UB: 0" role="graphics-symbol" aria-roledescription="area mark" d="M0,450L64.286,450L128.571,82.489L192.857,450L257.143,0L321.429,408.399L385.714,319.004L450,276.679L514.286,426.476L578.571,12.176L642.857,365.352L707.143,0L771.429,124.068L835.714,0L900,450L900,66.676L835.714,0L771.429,0L707.143,0L642.857,0L578.571,0L514.286,143.509L450,0L385.714,0L321.429,0L257.143,0L192.857,363.052L128.571,0L64.286,0L0,450Z" fill="#4c78a8" opacity="0.25"/></g><g class="mark-symbol role-mark layer_1_marks" clip-path="url(#clip3)" role="graphics-object" aria-roledescription="symbol mark container"><path aria-label="Codon site: 1; dN/dS estimate: 0; CodonSite: 1; alpha: 0; beta: 0; dN/dS MLE: 0; p_value: 1; adjusted_p_value: 1" role="graphics-symbol" aria-roledescription="circle" transform="translate(0,450)" d="M4.183,0A4.183,4.183,0,1,1,-4.183,0A4.183,4.183,0,1,1,4.183,0" fill="lightgray" stroke-width="2" opacity="0.9"/><path aria-label="Codon site: 2; dN/dS estimate: 5; CodonSite: 2; alpha: 10; beta: 50; dN/dS MLE: 5; p_value: 1; adjusted_p_value: 1" role="graphics-symbol" aria-roledescription="circle" transform="translate(64.28571428571428,0)" d="M4.183,0A4.183,4.183,0,1,1,-4.183,0A4.183,4.183,0,1,1,4.183,0" fill="lightgray" stroke-width="2" opacity="0.9"/><path aria-label="Codon site: 3; dN/dS estimate: 30.9801910729; CodonSite: 3; alpha: 0.106712183014; beta: 3.30596381959; dN/dS MLE: 30.9801910729; p_value: 0.0226353976215; adjusted_p_value: 0.0712583761689" role="graphics-symbol" aria-roledescription="circle" transform="translate(128.57142857142856,0)" d="M4.183,0A4.183,4.183,0,1,1,-4.183,0A4.183,4.183,0,1,1,4.183,0" fill="red" stroke-width="2" opacity="0.9"/><path aria-label="Codon site: 4; dN/dS estimate: 1.67735665797e-7; CodonSite: 4; alpha: 10.7380299322; beta: 0.00000180115060003; dN/dS MLE: 1.67735665797e-7; p_value: 0.00366330770432; adjusted_p_value: 0.0274748077824" role="graphics-symbol" aria-roledescription="circle" transform="translate(192.85714285714283,449.9175785557953)" d="M4.183,0A4.183,4.183,0,1,1,-4.183,0A4.183,4.183,0,1,1,4.183,0" fill="red" stroke-width="2" opacity="0.9"/><path aria-label="Codon site: 5; dN/dS estimate: 64.7466551176; CodonSite: 5; alpha: 0.032962379802; beta: 2.13420383689; dN/dS MLE: 64.7466551176; p_value: 0.257746642938; adjusted_p_value: 0.482864243427" role="graphics-symbol" aria-roledescription="circle" transform="translate(257.1428571428571,0)" d="M4.183,0A4.183,4.183,0,1,1,-4.183,0A4.183,4.183,0,1,1,4.183,0" fill="lightgray" stroke-width="2" opacity="0.9"/><path aria-label="Codon site: 6; dN/dS estimate: 0.79115164053; CodonSite: 6; alpha: 1.1916153537; beta: 0.94274844196; dN/dS MLE: 0.79115164053; p_value: 0.860492912942; adjusted_p_value: 1" role="graphics-symbol" aria-roledescription="circle" transform="translate(321.42857142857144,270.99820827298015)" d="M4.183,0A4.183,4.183,0,1,1,-4.183,0A4.183,4.183,0,1,1,4.183,0" fill="lightgray" stroke-width="2" opacity="0.9"/><path aria-label="Codon site: 7; dN/dS estimate: 7.91329438551; CodonSite: 7; alpha: 0.120987558525; beta: 0.957410167594; dN/dS MLE: 7.91329438551; p_value: 0.35410044518; adjusted_p_value: 0.482864243427" role="graphics-symbol" aria-roledescription="circle" transform="translate(385.71428571428567,0)" d="M4.183,0A4.183,4.183,0,1,1,-4.183,0A4.183,4.183,0,1,1,4.183,0" fill="lightgray" stroke-width="2" opacity="0.9"/><path aria-label="Codon site: 8; dN/dS estimate: 7.4897547884; CodonSite: 8; alpha: 0.492739866729; beta: 3.69050077627; dN/dS MLE: 7.4897547884; p_value: 0.147339241701; adjusted_p_value: 0.315726946503" role="graphics-symbol" aria-roledescription="circle" transform="translate(450,0)" d="M4.183,0A4.183,4.183,0,1,1,-4.183,0A4.183,4.183,0,1,1,4.183,0" fill="lightgray" stroke-width="2" opacity="0.9"/><path aria-label="Codon site: 9; dN/dS estimate: 0.275140830186; CodonSite: 9; alpha: 3.13513740092; beta: 0.862604307234; dN/dS MLE: 0.275140830186; p_value: 0.324184896144; adjusted_p_value: 0.482864243427" role="graphics-symbol" aria-roledescription="circle" transform="translate(514.2857142857142,344.43862627589584)" d="M4.183,0A4.183,4.183,0,1,1,-4.183,0A4.183,4.183,0,1,1,4.183,0" fill="lightgray" stroke-width="2" opacity="0.9"/><path aria-label="Codon site: 10; dN/dS estimate: 23.6156260788; CodonSite: 10; alpha: 0.453102160385; beta: 10.7002911952; dN/dS MLE: 23.6156260788; p_value: 0.0287693277777; adjusted_p_value: 0.0719233194442" role="graphics-symbol" aria-roledescription="circle" transform="translate(578.5714285714287,0)" d="M4.183,0A4.183,4.183,0,1,1,-4.183,0A4.183,4.183,0,1,1,4.183,0" fill="red" stroke-width="2" opacity="0.9"/><path aria-label="Codon site: 11; dN/dS estimate: 1.07177329919; CodonSite: 11; alpha: 3.58952100784; beta: 3.84715277309; dN/dS MLE: 1.07177329919; p_value: 0.950169772974; adjusted_p_value: 1" role="graphics-symbol" aria-roledescription="circle" transform="translate(642.8571428571429,241.65696887765537)" d="M4.183,0A4.183,4.183,0,1,1,-4.183,0A4.183,4.183,0,1,1,4.183,0" fill="lightgray" stroke-width="2" opacity="0.9"/><path aria-label="Codon site: 12; dN/dS estimate: 10000; CodonSite: 12; alpha: 2.87934057664e-8; beta: 2.44144744246; dN/dS MLE: 10000; p_value: 0.0178709618122; adjusted_p_value: 0.0712583761689" role="graphics-symbol" aria-roledescription="circle" transform="translate(707.1428571428571,0)" d="M4.183,0A4.183,4.183,0,1,1,-4.183,0A4.183,4.183,0,1,1,4.183,0" fill="red" stroke-width="2" opacity="0.9"/><path aria-label="Codon site: 13; dN/dS estimate: 13.0872920612; CodonSite: 13; alpha: 0.50986244131; beta: 6.67271868045; dN/dS MLE: 13.0872920612; p_value: 0.0237527920563; adjusted_p_value: 0.0712583761689" role="graphics-symbol" aria-roledescription="circle" transform="translate(771.4285714285713,0)" d="M4.183,0A4.183,4.183,0,1,1,-4.183,0A4.183,4.183,0,1,1,4.183,0" fill="red" stroke-width="2" opacity="0.9"/><path aria-label="Codon site: 14; dN/dS estimate: 71.7702601476; CodonSite: 14; alpha: 0.159853371228; beta: 11.4727180385; dN/dS MLE: 71.7702601476; p_value: 0.00333691049058; adjusted_p_value: 0.0274748077824" role="graphics-symbol" aria-roledescription="circle" transform="translate(835.7142857142858,0)" d="M4.183,0A4.183,4.183,0,1,1,-4.183,0A4.183,4.183,0,1,1,4.183,0" fill="red" stroke-width="2" opacity="0.9"/><path aria-label="Codon site: 15; dN/dS estimate: 0.0000012403925422; CodonSite: 15; alpha: 2.57439678353; beta: 0.00000319326257094; dN/dS MLE: 0.0000012403925422; p_value: 0.32426608812; adjusted_p_value: 0.482864243427" role="graphics-symbol" aria-roledescription="circle" transform="translate(900,449.7758663390764)" d="M4.183,0A4.183,4.183,0,1,1,-4.183,0A4.183,4.183,0,1,1,4.183,0" fill="lightgray" stroke-width="2" opacity="0.9"/></g><g class="mark-group role-title"><g transform="translate(450,-22)"><path class="background" aria-hidden="true" d="M0,0h0v0h0Z" pointer-events="none"/><g><g class="mark-text role-title-text" role="graphics-symbol" aria-roledescription="title" aria-label="Title text 'FEL: BDNF-64 part 2'" pointer-events="none"><text text-anchor="middle" transform="translate(0,10)" font-family="sans-serif" font-size="13px" font-weight="bold" fill="#000" opacity="1">FEL: BDNF-64 part 2</text></g></g><path class="foreground" aria-hidden="true" d="" pointer-events="none" display="none"/></g></g></g><path class="foreground" aria-hidden="true" d="" display="none"/></g></g></g><defs><clipPath id="clip3"><rect x="0" y="0" width="900" height="450"/></clipPath></defs></svg>